<svg width="20" height="20" viewBox="0 0 20 20" fill="none" xmlns="http://www.w3.org/2000/svg">
<path d="M5.54556 1.0441C6.31902 1.14007 7.08644 1.38928 7.80387 1.80349C10.6736 3.46035 11.6569 7.12989 10 9.99965C8.34317 7.12989 4.67363 6.14664 1.80387 7.80349C1.08748 8.21711 0.488648 8.75614 0.019104 9.37686C0.243794 5.7202 2.43358 2.59499 5.54556 1.0441Z" fill="#FFD600"/>
<path d="M0.0190778 9.37685C0.488621 8.75614 1.08745 8.2171 1.80385 7.80349C4.6736 6.14664 8.34314 7.12989 9.99999 9.99965C6.68629 9.99965 4 12.6859 4 15.9996C4 16.8273 4.1676 17.6159 4.47071 18.3332C1.77601 16.5417 0 13.4781 0 9.99965C0 9.79049 0.00642139 9.58283 0.0190778 9.37685Z" fill="#1BC47D"/>
<path d="M4.47071 18.3331C4.1676 17.6158 4 16.8272 4 15.9995C4 12.6858 6.68629 9.99951 10 9.99951C8.34314 12.8693 9.32639 16.5388 12.1961 18.1957C12.9136 18.6099 13.681 18.8591 14.4545 18.9551C13.1131 19.6235 11.6005 19.9995 10 19.9995C7.95559 19.9995 6.05448 19.386 4.47071 18.3331Z" fill="#18A0FB"/>
<path d="M14.4544 18.9551C13.6809 18.8591 12.9135 18.6099 12.1961 18.1957C9.32631 16.5388 8.34306 12.8693 9.99992 9.99951C11.6568 12.8693 15.3263 13.8525 18.1961 12.1957C18.9125 11.7821 19.5113 11.243 19.9808 10.6223C19.7561 14.279 17.5664 17.4042 14.4544 18.9551Z" fill="#7B61FF"/>
<path d="M19.9809 10.6224C19.5114 11.2431 18.9125 11.7822 18.1961 12.1958C15.3264 13.8527 11.6569 12.8694 10 9.99964C13.3137 9.99964 16 7.31335 16 3.99964C16 3.17194 15.8324 2.38339 15.5293 1.66606C18.224 3.45756 20 6.5212 20 9.99964C20 10.2088 19.9936 10.4165 19.9809 10.6224Z" fill="#F24822"/>
<path d="M15.5293 1.66603C15.8325 2.38335 16.0001 3.17191 16.0001 3.99961C16.0001 7.31332 13.3138 9.99961 10.0001 9.99961C11.6569 7.12985 10.6737 3.46031 7.80391 1.80345C7.08647 1.38924 6.31905 1.14003 5.54559 1.04406C6.88692 0.375591 8.39958 -0.000396729 10.0001 -0.000396729C12.0445 -0.000396729 13.9456 0.613096 15.5293 1.66603Z" fill="#F97F0F"/>
</svg>
