<svg width="20" height="20" viewBox="0 0 20 20" fill="none" xmlns="http://www.w3.org/2000/svg">
<path d="M11.2499 1.24999C11.2499 1.94035 10.6903 2.49999 9.99995 2.49999C9.30959 2.49999 8.74995 1.94035 8.74995 1.24999C8.74995 0.559641 9.30959 0 9.99995 0C10.6903 0 11.2499 0.559641 11.2499 1.24999Z" fill="url(#paint0_linear_41_20622)"/>
<path fill-rule="evenodd" clip-rule="evenodd" d="M9.99995 14.9999C12.7614 14.9999 14.9999 12.7614 14.9999 9.99995C14.9999 7.23854 12.7614 4.99997 9.99995 4.99997C7.23854 4.99997 4.99997 7.23854 4.99997 9.99995C4.99997 12.7614 7.23854 14.9999 9.99995 14.9999ZM9.99995 12.4999C11.3807 12.4999 12.4999 11.3807 12.4999 9.99995C12.4999 8.61924 11.3807 7.49996 9.99995 7.49996C8.61924 7.49996 7.49996 8.61924 7.49996 9.99995C7.49996 11.3807 8.61924 12.4999 9.99995 12.4999Z" fill="url(#paint1_linear_41_20622)"/>
<path d="M16.2499 4.99997C16.9403 4.99997 17.4999 4.44033 17.4999 3.74998C17.4999 3.05963 16.9403 2.49999 16.2499 2.49999C15.5596 2.49999 14.9999 3.05963 14.9999 3.74998C14.9999 4.44033 15.5596 4.99997 16.2499 4.99997Z" fill="url(#paint2_linear_41_20622)"/>
<path d="M4.99997 3.74998C4.99997 4.44033 4.44033 4.99997 3.74998 4.99997C3.05963 4.99997 2.49999 4.44033 2.49999 3.74998C2.49999 3.05963 3.05963 2.49999 3.74998 2.49999C4.44033 2.49999 4.99997 3.05963 4.99997 3.74998Z" fill="url(#paint3_linear_41_20622)"/>
<path d="M9.99995 17.4999C10.6903 17.4999 11.2499 18.0595 11.2499 18.7499C11.2499 19.4403 10.6903 19.9999 9.99995 19.9999C9.30959 19.9999 8.74995 19.4403 8.74995 18.7499C8.74995 18.0595 9.30959 17.4999 9.99995 17.4999Z" fill="url(#paint4_linear_41_20622)"/>
<path d="M17.4999 16.2499C17.4999 15.5596 16.9403 14.9999 16.2499 14.9999C15.5596 14.9999 14.9999 15.5596 14.9999 16.2499C14.9999 16.9403 15.5596 17.4999 16.2499 17.4999C16.9403 17.4999 17.4999 16.9403 17.4999 16.2499Z" fill="url(#paint5_linear_41_20622)"/>
<path d="M3.74998 14.9999C4.44033 14.9999 4.99997 15.5596 4.99997 16.2499C4.99997 16.9403 4.44033 17.4999 3.74998 17.4999C3.05963 17.4999 2.49999 16.9403 2.49999 16.2499C2.49999 15.5596 3.05963 14.9999 3.74998 14.9999Z" fill="url(#paint6_linear_41_20622)"/>
<path d="M2.49999 9.99995C2.49999 10.6903 1.94035 11.2499 1.24999 11.2499C0.559641 11.2499 0 10.6903 0 9.99995C0 9.30959 0.559641 8.74995 1.24999 8.74995C1.94035 8.74995 2.49999 9.30959 2.49999 9.99995Z" fill="url(#paint7_linear_41_20622)"/>
<path d="M18.7499 11.2499C19.4403 11.2499 19.9999 10.6903 19.9999 9.99995C19.9999 9.30959 19.4403 8.74995 18.7499 8.74995C18.0595 8.74995 17.4999 9.30959 17.4999 9.99995C17.4999 10.6903 18.0595 11.2499 18.7499 11.2499Z" fill="url(#paint8_linear_41_20622)"/>
<defs>
<linearGradient id="paint0_linear_41_20622" x1="-1.92546" y1="-0.676144" x2="-1.92546" y2="20.5054" gradientUnits="userSpaceOnUse">
<stop stop-color="white"/>
<stop offset="1" stop-color="white" stop-opacity="0.72"/>
</linearGradient>
<linearGradient id="paint1_linear_41_20622" x1="-1.92546" y1="-0.676144" x2="-1.92546" y2="20.5054" gradientUnits="userSpaceOnUse">
<stop stop-color="white"/>
<stop offset="1" stop-color="white" stop-opacity="0.72"/>
</linearGradient>
<linearGradient id="paint2_linear_41_20622" x1="-1.92546" y1="-0.676144" x2="-1.92546" y2="20.5054" gradientUnits="userSpaceOnUse">
<stop stop-color="white"/>
<stop offset="1" stop-color="white" stop-opacity="0.72"/>
</linearGradient>
<linearGradient id="paint3_linear_41_20622" x1="-1.92546" y1="-0.676144" x2="-1.92546" y2="20.5054" gradientUnits="userSpaceOnUse">
<stop stop-color="white"/>
<stop offset="1" stop-color="white" stop-opacity="0.72"/>
</linearGradient>
<linearGradient id="paint4_linear_41_20622" x1="-1.92546" y1="-0.676144" x2="-1.92546" y2="20.5054" gradientUnits="userSpaceOnUse">
<stop stop-color="white"/>
<stop offset="1" stop-color="white" stop-opacity="0.72"/>
</linearGradient>
<linearGradient id="paint5_linear_41_20622" x1="-1.92546" y1="-0.676144" x2="-1.92546" y2="20.5054" gradientUnits="userSpaceOnUse">
<stop stop-color="white"/>
<stop offset="1" stop-color="white" stop-opacity="0.72"/>
</linearGradient>
<linearGradient id="paint6_linear_41_20622" x1="-1.92546" y1="-0.676144" x2="-1.92546" y2="20.5054" gradientUnits="userSpaceOnUse">
<stop stop-color="white"/>
<stop offset="1" stop-color="white" stop-opacity="0.72"/>
</linearGradient>
<linearGradient id="paint7_linear_41_20622" x1="-1.92546" y1="-0.676144" x2="-1.92546" y2="20.5054" gradientUnits="userSpaceOnUse">
<stop stop-color="white"/>
<stop offset="1" stop-color="white" stop-opacity="0.72"/>
</linearGradient>
<linearGradient id="paint8_linear_41_20622" x1="-1.92546" y1="-0.676144" x2="-1.92546" y2="20.5054" gradientUnits="userSpaceOnUse">
<stop stop-color="white"/>
<stop offset="1" stop-color="white" stop-opacity="0.72"/>
</linearGradient>
</defs>
</svg>
