<svg width="627" height="141" viewBox="0 0 627 141" fill="none" xmlns="http://www.w3.org/2000/svg">
<g filter="url(#filter0_ddii_117_16393)">
<path d="M25.662 5.742H10.558V92H25.662V5.742ZM60.1226 92V45.744H71.4506V33.708H60.1226V15.536H45.7266V33.708H34.5166V45.744H45.7266V92H60.1226ZM96.3302 15.654C96.3302 8.574 92.3182 4.08999 86.7722 4.08999C81.5802 4.08999 78.0402 7.74799 78.0402 12.94C78.0402 18.132 81.4622 21.082 85.7102 21.082C87.0082 21.082 88.0702 20.846 89.0142 20.492C89.0142 24.622 85.3562 27.808 80.2822 28.752V34.416C89.7222 33.236 96.3302 25.566 96.3302 15.654ZM98.0458 74.3C98.0458 85.746 107.25 93.534 121.764 93.534C136.16 93.534 146.19 86.218 146.19 74.418C146.19 65.45 141.234 60.966 131.44 58.724L120.938 56.246C115.982 55.066 113.386 52.942 113.386 49.638C113.386 45.272 116.69 42.676 122.354 42.676C127.9 42.676 131.204 45.862 131.322 50.818H145.01C144.892 39.49 136.042 31.938 122.944 31.938C109.492 31.938 99.8158 38.782 99.8158 50.228C99.8158 59.55 104.89 64.506 115.392 66.866L125.894 69.344C131.086 70.524 132.62 72.648 132.62 75.598C132.62 79.846 128.962 82.56 122.236 82.56C115.628 82.56 111.852 79.374 111.734 74.3H98.0458ZM198.632 92V58.96C198.632 49.52 204.178 45.036 211.022 45.036C217.866 45.036 222.232 49.402 222.232 57.544V92H236.628V58.96C236.628 49.402 241.938 44.918 248.9 44.918C255.744 44.918 260.228 49.284 260.228 57.662V92H274.506V53.886C274.506 40.434 266.718 31.938 252.558 31.938C243.708 31.938 236.864 36.304 233.914 43.03C230.846 36.304 224.71 31.938 215.86 31.938C207.482 31.938 201.582 35.714 198.632 40.552L197.452 33.708H184.236V92H198.632ZM303.624 93.534C312.71 93.534 320.616 89.404 323.094 83.386L324.156 92H336.782V56.6C336.782 40.434 327.106 31.938 311.412 31.938C295.6 31.938 285.216 40.198 285.216 52.824H297.488C297.488 46.688 302.208 43.148 310.704 43.148C318.02 43.148 322.74 46.334 322.74 54.24V55.538L305.276 56.836C291.47 57.898 283.682 64.624 283.682 75.362C283.682 86.336 291.234 93.534 303.624 93.534ZM308.344 82.678C301.854 82.678 298.314 80.082 298.314 74.772C298.314 70.052 301.736 67.102 310.704 66.276L322.858 65.332V68.4C322.858 77.368 317.194 82.678 308.344 82.678ZM345.26 61.556C345.26 78.43 356.116 90.82 372.636 90.82C381.014 90.82 388.212 87.398 391.87 81.97V91.646C391.87 101.322 385.498 107.576 375.586 107.576C366.736 107.576 360.954 103.092 360.01 95.54H345.614C347.384 111.116 358.83 120.674 375.586 120.674C394.466 120.674 406.148 108.52 406.148 89.05V33.708H392.814L391.988 41.732C388.566 35.478 381.722 31.82 372.99 31.82C356.352 31.82 345.26 44.564 345.26 61.556ZM359.774 61.202C359.774 51.644 365.91 44.446 375.468 44.446C385.498 44.446 391.516 51.29 391.516 61.202C391.516 71.35 385.38 78.312 375.468 78.312C366.028 78.312 359.774 70.996 359.774 61.202ZM425.885 22.026C430.605 22.026 434.499 18.132 434.499 13.294C434.499 8.456 430.605 4.68 425.885 4.68C420.929 4.68 417.035 8.456 417.035 13.294C417.035 18.132 420.929 22.026 425.885 22.026ZM418.687 92H433.083V33.708H418.687V92ZM442.174 62.736C442.174 81.262 453.738 93.534 471.438 93.534C486.66 93.534 497.988 84.212 499.758 70.642H485.244C483.71 77.014 478.636 80.554 471.438 80.554C462.234 80.554 456.57 73.71 456.57 62.736C456.57 51.762 462.706 44.8 471.91 44.8C478.754 44.8 483.592 48.222 485.244 54.83H499.64C498.106 40.788 487.25 31.938 471.32 31.938C454.092 31.938 442.174 44.682 442.174 62.736ZM525.459 93.534C534.545 93.534 542.451 89.404 544.929 83.386L545.991 92H558.617V56.6C558.617 40.434 548.941 31.938 533.247 31.938C517.435 31.938 507.051 40.198 507.051 52.824H519.323C519.323 46.688 524.043 43.148 532.539 43.148C539.855 43.148 544.575 46.334 544.575 54.24V55.538L527.111 56.836C513.305 57.898 505.517 64.624 505.517 75.362C505.517 86.336 513.069 93.534 525.459 93.534ZM530.179 82.678C523.689 82.678 520.149 80.082 520.149 74.772C520.149 70.052 523.571 67.102 532.539 66.276L544.693 65.332V68.4C544.693 77.368 539.029 82.678 530.179 82.678ZM584.914 92V4.208H570.636V92H584.914ZM607.331 93.416C612.523 93.416 616.889 89.168 616.889 84.094C616.889 78.902 612.523 74.654 607.331 74.654C602.139 74.654 597.773 78.902 597.773 84.094C597.773 89.168 602.139 93.416 607.331 93.416Z" fill="url(#paint0_linear_117_16393)"/>
</g>
<defs>
<filter id="filter0_ddii_117_16393" x="0.557983" y="0.746277" width="626.331" height="139.928" filterUnits="userSpaceOnUse" color-interpolation-filters="sRGB">
<feFlood flood-opacity="0" result="BackgroundImageFix"/>
<feColorMatrix in="SourceAlpha" type="matrix" values="0 0 0 0 0 0 0 0 0 0 0 0 0 0 0 0 0 0 127 0" result="hardAlpha"/>
<feOffset dy="3.34372"/>
<feGaussianBlur stdDeviation="3.34372"/>
<feColorMatrix type="matrix" values="0 0 0 0 0 0 0 0 0 0 0 0 0 0 0 0 0 0 0.16 0"/>
<feBlend mode="normal" in2="BackgroundImageFix" result="effect1_dropShadow_117_16393"/>
<feColorMatrix in="SourceAlpha" type="matrix" values="0 0 0 0 0 0 0 0 0 0 0 0 0 0 0 0 0 0 127 0" result="hardAlpha"/>
<feOffset dy="10"/>
<feGaussianBlur stdDeviation="5"/>
<feColorMatrix type="matrix" values="0 0 0 0 0.0103837 0 0 0 0 0.00668403 0 0 0 0 0.0291667 0 0 0 0.4 0"/>
<feBlend mode="normal" in2="effect1_dropShadow_117_16393" result="effect2_dropShadow_117_16393"/>
<feBlend mode="normal" in="SourceGraphic" in2="effect2_dropShadow_117_16393" result="shape"/>
<feColorMatrix in="SourceAlpha" type="matrix" values="0 0 0 0 0 0 0 0 0 0 0 0 0 0 0 0 0 0 127 0" result="hardAlpha"/>
<feOffset dy="0.83593"/>
<feComposite in2="hardAlpha" operator="arithmetic" k2="-1" k3="1"/>
<feColorMatrix type="matrix" values="0 0 0 0 1 0 0 0 0 1 0 0 0 0 1 0 0 0 0.72 0"/>
<feBlend mode="normal" in2="shape" result="effect3_innerShadow_117_16393"/>
<feColorMatrix in="SourceAlpha" type="matrix" values="0 0 0 0 0 0 0 0 0 0 0 0 0 0 0 0 0 0 127 0" result="hardAlpha"/>
<feOffset dy="-1.67186"/>
<feComposite in2="hardAlpha" operator="arithmetic" k2="-1" k3="1"/>
<feColorMatrix type="matrix" values="0 0 0 0 0 0 0 0 0 0 0 0 0 0 0 0 0 0 0.08 0"/>
<feBlend mode="normal" in2="effect3_innerShadow_117_16393" result="effect4_innerShadow_117_16393"/>
</filter>
<linearGradient id="paint0_linear_117_16393" x1="-59.0745" y1="-17.0231" x2="-59.0745" y2="109.008" gradientUnits="userSpaceOnUse">
<stop stop-color="white"/>
<stop offset="1" stop-color="white" stop-opacity="0.72"/>
</linearGradient>
</defs>
</svg>
