<svg width="800" height="800" viewBox="0 0 800 800" fill="none" xmlns="http://www.w3.org/2000/svg">
<g clip-path="url(#clip0_283_18935)">
<path d="M727.69 170.616C735.699 182.054 743.024 193.753 749.666 205.714C756.254 217.496 762.159 229.539 767.477 241.777C780.111 271.065 789.008 301.309 794.236 331.883C799.681 363.387 801.23 395.31 799.109 426.84C796.954 459.045 790.868 490.896 781.016 521.701C767.674 563.616 747.376 603.54 720.472 639.497C695.704 672.728 665.198 702.612 629.378 727.693C581.537 761.191 528.926 782.718 475.074 792.981C420.077 803.467 363.844 802.18 309.999 789.758C223.779 769.889 143.785 721.464 85.545 647.263C80.9978 641.491 76.6106 635.535 72.3348 629.429C52.1099 600.545 36.2281 569.919 24.5584 538.295C15.8123 514.663 9.49962 490.482 5.38257 466.136C-19.1986 318.893 40.0341 163.736 170.565 72.3374C278.8 -3.44937 411.571 -18.1976 527.826 20.9423C546.552 27.2589 564.899 34.9959 582.636 44.0271C631.615 69.1003 676.072 104.634 712.284 150.058C717.641 156.78 722.77 163.589 727.69 170.616Z" fill="url(#paint0_radial_283_18935)"/>
</g>
<defs>
<radialGradient id="paint0_radial_283_18935" cx="0" cy="0" r="1" gradientUnits="userSpaceOnUse" gradientTransform="translate(400 -22.0001) rotate(90) scale(817.5 820.06)">
<stop stop-color="#A9A9A9"/>
<stop offset="0.697537" stop-color="#4B4B4B"/>
<stop offset="1" stop-color="#313131"/>
</radialGradient>
<clipPath id="clip0_283_18935">
<rect width="800" height="800" rx="400" fill="white"/>
</clipPath>
</defs>
</svg>
