<svg width="21" height="21" viewBox="0 0 21 21" fill="none" xmlns="http://www.w3.org/2000/svg">
<g clip-path="url(#clip0_298_62522)">
<path d="M17.2678 18.7944V20.0996C17.2678 20.5311 16.9181 20.8809 16.4866 20.8809C16.0551 20.8809 15.7053 20.5311 15.7053 20.0996V18.7944C15.7053 18.3832 15.4304 18.1747 15.3122 18.1042C15.1972 18.0355 14.8917 17.8961 14.5417 18.085C13.236 18.7893 11.8683 19.1517 10.4766 19.162C10.4728 19.1621 10.4689 19.1621 10.465 19.162C9.0804 19.1518 7.7635 18.7995 6.4391 18.085C6.0891 17.8962 5.78362 18.0354 5.66854 18.1042C5.55034 18.1747 5.27545 18.3832 5.27545 18.7944V20.0996C5.27545 20.5311 4.92568 20.8809 4.49419 20.8809C4.06269 20.8809 3.71292 20.5311 3.71292 20.0996V18.7944C3.71292 17.9536 4.14465 17.194 4.86783 16.7624C5.58452 16.3347 6.44918 16.315 7.18095 16.7098C8.27343 17.2991 9.34962 17.5902 10.4708 17.5995C11.6028 17.5901 12.7228 17.2908 13.7998 16.7098C14.5315 16.315 15.3962 16.3347 16.1129 16.7624C16.8361 17.194 17.2678 17.9536 17.2678 18.7944ZM16.6849 3.55264C15.0521 1.85798 12.8556 0.909161 10.4998 0.880918C10.4935 0.88084 10.4873 0.88084 10.481 0.880918C8.12526 0.909161 5.92866 1.85798 4.29598 3.55264C2.6572 5.25359 1.83789 7.48205 1.83789 9.86493C1.83789 11.74 2.31497 13.4734 3.33631 14.9891C3.57745 15.347 4.06301 15.4416 4.42079 15.2005C4.7786 14.9594 4.87322 14.4738 4.63212 14.116C3.78956 12.8656 3.3621 11.3827 3.40042 9.86493C3.351 7.90851 4.07019 6.03904 5.42119 4.63677C6.75946 3.24771 8.55933 2.46901 10.4904 2.4435C12.4215 2.46905 14.2213 3.24771 15.5596 4.63677C16.9106 6.03904 17.6275 7.88878 17.578 9.84524C17.5389 11.3962 17.0792 12.874 16.2487 14.119C16.0092 14.478 16.1061 14.9631 16.4651 15.2025C16.5983 15.2914 16.7489 15.334 16.8979 15.334C17.1503 15.334 17.398 15.2119 17.5485 14.9862C18.5431 13.4952 19.0935 11.7312 19.1401 9.8847C19.2001 7.50705 18.3281 5.25827 16.6849 3.55264ZM6.72305 13.7984C5.74323 12.4793 5.15826 10.8725 5.15826 9.49996C5.15826 6.57792 7.52396 4.20066 10.4318 4.20066C13.3396 4.20066 15.7053 6.57792 15.7053 9.49996C15.7053 10.8724 15.1203 12.4793 14.1405 13.7984C13.0653 15.2459 11.7135 16.0761 10.4318 16.0761C9.15005 16.0761 7.79827 15.2459 6.72305 13.7984ZM6.72079 9.5C6.72079 10.5332 7.20228 11.8232 7.97737 12.8667C8.74336 13.8979 9.66091 14.5135 10.4318 14.5135C11.2027 14.5135 12.1202 13.8979 12.8862 12.8667C13.6613 11.8232 14.1428 10.5332 14.1428 9.5C14.1428 7.43955 12.478 5.76325 10.4318 5.76325C8.38554 5.76325 6.72079 7.43951 6.72079 9.5ZM12.2873 10.6765L13.0295 9.89521C13.3267 9.58238 13.314 9.08788 13.0012 8.79068C12.6883 8.49349 12.1938 8.50618 11.8967 8.819L11.1545 9.60028C10.8573 9.9131 10.87 10.4076 11.1828 10.7048C11.334 10.8484 11.5275 10.9196 11.7207 10.9196C11.9274 10.9196 12.1337 10.8381 12.2873 10.6765ZM9.14286 10.9196C8.93614 10.9196 8.72992 10.8382 8.57633 10.6765L7.83413 9.89521C7.53693 9.58238 7.54963 9.08788 7.86245 8.79068C8.17526 8.49349 8.66977 8.50618 8.96696 8.819L9.70916 9.60028C10.0064 9.9131 9.99365 10.4076 9.68084 10.7048C9.52966 10.8484 9.33607 10.9196 9.14286 10.9196Z" fill="#EEEEEE"/>
</g>
<defs>
<clipPath id="clip0_298_62522">
<rect width="19.9998" height="20" fill="white" transform="translate(0.49707 0.880859)"/>
</clipPath>
</defs>
</svg>
