<svg width="20" height="20" viewBox="0 0 20 20" fill="none" xmlns="http://www.w3.org/2000/svg">
<g clip-path="url(#clip0_298_62843)">
<path d="M5.37639 11.89C5.03219 12.0385 4.67366 12.1087 4.32059 12.1087C3.52799 12.1087 2.76362 11.7543 2.25279 11.1354L1.07962 11.6199C0.982086 11.6602 0.881037 11.6793 0.781707 11.6793C0.474851 11.6793 0.183736 11.4973 0.0593682 11.1961C-0.105348 10.7973 0.0844448 10.3405 0.483249 10.1758L1.65322 9.69264C1.61209 9.27508 1.66993 8.85089 1.82864 8.44947C2.09139 7.78482 2.59726 7.26231 3.253 6.97819C3.25578 6.97698 10.2442 4.04509 10.2442 4.04509C10.6422 3.87826 11.0999 4.0654 11.2668 4.46326C11.4338 4.86113 11.2465 5.31896 10.8487 5.48586L3.87058 8.41338C3.59954 8.53196 3.39046 8.74863 3.28163 9.02393C3.1723 9.30047 3.17719 9.60299 3.29546 9.87583C3.53947 10.439 4.19615 10.6987 4.75947 10.4547C4.76217 10.4535 4.7649 10.4523 4.7676 10.4512L11.6501 7.56073C12.048 7.39363 12.5058 7.58073 12.6729 7.97852C12.84 8.37631 12.6529 8.83421 12.2552 9.00127L5.37639 11.89ZM14.6409 18.74L10.8198 13.795V12.1478C10.8198 11.7163 10.4701 11.3666 10.0386 11.3666C9.60719 11.3666 9.25744 11.7163 9.25744 12.1478V13.795L5.43635 18.74C5.17257 19.0814 5.23546 19.572 5.57689 19.8358C5.91831 20.0997 6.40894 20.0367 6.67272 19.6953L10.0387 15.3393L13.4047 19.6953C13.5586 19.8945 13.7897 19.9989 14.0234 19.9989C14.1902 19.9989 14.3583 19.9457 14.5005 19.8358C14.8418 19.572 14.9047 19.0814 14.6409 18.74ZM16.3096 8.43627C15.9562 8.43627 15.6169 8.38861 15.297 8.29284C14.332 8.00375 13.581 7.29583 13.1252 6.24531C13.1252 6.24531 12.6929 5.26861 12.6921 5.26669C12.2693 4.29031 12.2301 3.31228 12.5788 2.43831C12.9601 1.48259 13.7679 0.719116 14.9148 0.230435C16.3619 -0.386207 18.0466 0.283049 18.6699 1.72238L19.7641 4.24863C20.0673 4.94886 20.0786 5.72483 19.7958 6.43354C19.5119 7.14517 18.9662 7.70299 18.2591 8.00426C17.5854 8.29131 16.926 8.43627 16.3096 8.43627ZM14.1248 4.64325C14.1248 4.64325 14.5568 5.61933 14.5576 5.62124C15.2412 7.19951 16.6147 7.00655 17.6467 6.56689C17.9681 6.4299 18.216 6.17691 18.3447 5.85447C18.4722 5.53504 18.4671 5.18525 18.3304 4.86953L17.2362 2.34331C16.9532 1.68992 16.1866 1.38689 15.5273 1.66781C14.7715 1.98986 14.2537 2.45651 14.03 3.01734C13.8364 3.50262 13.8683 4.04962 14.1248 4.64325Z" fill="#EEEEEE"/>
</g>
<defs>
<clipPath id="clip0_298_62843">
<rect width="20" height="20" fill="white"/>
</clipPath>
</defs>
</svg>
