<svg width="25" height="71" viewBox="0 0 25 71" fill="none" xmlns="http://www.w3.org/2000/svg">
<g clip-path="url(#clip0_115_2916)">
<path d="M20.8626 8.86894C20.3283 9.39615 14.3152 7.21877 11.0717 6.46505C10.9054 6.71629 10.8223 6.96752 10.9054 7.13502C11.6539 7.88873 12.4024 8.55869 13.0677 9.39615C16.228 13.3322 18.6524 17.4217 21.3969 21.6927C27.2745 35.5852 26.2059 48.409 12.3134 63.37C10.4516 65.3751 8.6611 67.4052 6.9146 69.2476C6.4156 69.8338 5.9011 70.3163 5.3668 70.8506C5.2005 70.5993 2.6955 68.179 2.6955 68.179C4.8328 65.5073 4.5554 66.0417 5.0018 65.5073C8.5731 61.2327 9.6418 60.6984 12.3204 57.4925C24.0685 38.7911 24.6029 35.0509 10.4896 12.3273C9.1074 10.4719 8.4104 10.4849 7.4124 9.56364C6.9966 10.9036 7.2461 11.741 7.4124 12.6623C7.7451 14.3372 8.1609 16.012 8.4104 17.7707C8.4936 18.2732 8.5731 19.0211 7.6619 19.4456C5.9015 19.4456 5.9015 19.0211 5.7491 18.4407C5.63 17.9868 5.4996 18.0219 5.4165 17.7707C3.9195 13.4159 2.3393 9.14493 1.0087 4.79013C0.176999 2.19401 1.5908 0.267852 4.2521 0.854071C8.9094 1.85903 13.4836 3.28271 17.9745 4.79013C19.4715 5.29261 21.3969 6.73165 20.8626 8.86894Z" fill="white"/>
</g>
<defs>
<clipPath id="clip0_115_2916">
<rect width="25" height="71" fill="white" transform="matrix(-1 0 0 1 25 0)"/>
</clipPath>
</defs>
</svg>
