<svg width="22" height="22" viewBox="0 0 22 22" fill="none" xmlns="http://www.w3.org/2000/svg">
<path d="M7.79134 15.5833C6.78301 15.5833 5.95801 16.4083 5.95801 17.4167C5.95801 18.425 6.78301 19.25 7.79134 19.25C8.79967 19.25 9.62467 18.425 9.62467 17.4167C9.62467 16.4083 8.79967 15.5833 7.79134 15.5833ZM14.208 6.41667C15.2163 6.41667 16.0413 5.59167 16.0413 4.58333C16.0413 3.575 15.2163 2.75 14.208 2.75C13.1997 2.75 12.3747 3.575 12.3747 4.58333C12.3747 5.59167 13.1997 6.41667 14.208 6.41667ZM7.79134 9.16667C6.78301 9.16667 5.95801 9.99167 5.95801 11C5.95801 12.0083 6.78301 12.8333 7.79134 12.8333C8.79967 12.8333 9.62467 12.0083 9.62467 11C9.62467 9.99167 8.79967 9.16667 7.79134 9.16667ZM14.208 9.16667C13.1997 9.16667 12.3747 9.99167 12.3747 11C12.3747 12.0083 13.1997 12.8333 14.208 12.8333C15.2163 12.8333 16.0413 12.0083 16.0413 11C16.0413 9.99167 15.2163 9.16667 14.208 9.16667ZM14.208 15.5833C13.1997 15.5833 12.3747 16.4083 12.3747 17.4167C12.3747 18.425 13.1997 19.25 14.208 19.25C15.2163 19.25 16.0413 18.425 16.0413 17.4167C16.0413 16.4083 15.2163 15.5833 14.208 15.5833ZM7.79134 2.75C6.78301 2.75 5.95801 3.575 5.95801 4.58333C5.95801 5.59167 6.78301 6.41667 7.79134 6.41667C8.79967 6.41667 9.62467 5.59167 9.62467 4.58333C9.62467 3.575 8.79967 2.75 7.79134 2.75Z" fill="white"/>
</svg>
