<svg width="25" height="24" viewBox="0 0 25 24" fill="none" xmlns="http://www.w3.org/2000/svg">
<path d="M17.45 12C17.45 14.8995 15.0994 17.25 12.2 17.25C9.30046 17.25 6.94995 14.8995 6.94995 12C6.94995 9.10051 9.30046 6.75 12.2 6.75C15.0994 6.75 17.45 9.10051 17.45 12Z" stroke="white" stroke-width="1.5" stroke-linecap="round" stroke-linejoin="round"/>
<path d="M14.7 13C14.7 13.2761 14.4761 13.5 14.2 13.5C13.9238 13.5 13.7 13.2761 13.7 13C13.7 12.7239 13.9238 12.5 14.2 12.5C14.4761 12.5 14.7 12.7239 14.7 13Z" stroke="white" stroke-linecap="round" stroke-linejoin="round"/>
<path d="M9.94031 7.02812C7.63854 5.28577 5.78831 4.43964 5.21547 5.01247C4.33767 5.89028 6.79189 9.7677 10.6971 13.673C14.6024 17.5782 18.4798 20.0325 19.3576 19.1547C19.9442 18.568 19.0427 16.6417 17.2145 14.2627" stroke="white" stroke-width="1.5" stroke-linecap="round" stroke-linejoin="round"/>
</svg>
