<svg width="81" height="81" viewBox="0 0 81 81" fill="none" xmlns="http://www.w3.org/2000/svg">
<path fill-rule="evenodd" clip-rule="evenodd" d="M47.8263 37.6962C47.8263 42.6001 43.8509 46.5755 38.947 46.5755C34.043 46.5755 30.0676 42.6001 30.0676 37.6962C30.0676 32.7923 34.043 28.8169 38.947 28.8169C43.8509 28.8169 47.8263 32.7923 47.8263 37.6962ZM46.0611 46.5781C44.1126 48.1407 41.639 49.0755 38.947 49.0755C32.6623 49.0755 27.5676 43.9808 27.5676 37.6962C27.5676 31.4116 32.6623 26.3169 38.947 26.3169C45.2316 26.3169 50.3263 31.4116 50.3263 37.6962C50.3263 40.3882 49.3915 42.8618 47.8288 44.8103L55.9509 52.9323L54.1831 54.7001L46.0611 46.5781Z" fill="white"/>
</svg>
