<svg width="40" height="40" viewBox="0 0 40 40" fill="none" xmlns="http://www.w3.org/2000/svg">
<path fill-rule="evenodd" clip-rule="evenodd" d="M21.875 16.875V18.75H18.125V16.875C18.125 15.8395 18.9645 15 20 15C21.0355 15 21.875 15.8395 21.875 16.875ZM16.875 18.75V16.875C16.875 15.1491 18.2741 13.75 20 13.75C21.7259 13.75 23.125 15.1491 23.125 16.875V18.75H23.75C24.0952 18.75 24.375 19.0298 24.375 19.375V25.625C24.375 25.9702 24.0952 26.25 23.75 26.25H16.25C15.9048 26.25 15.625 25.9702 15.625 25.625V19.375C15.625 19.0298 15.9048 18.75 16.25 18.75H16.875Z" fill="white"/>
</svg>
