<svg width="40" height="40" viewBox="0 0 40 40" fill="none" xmlns="http://www.w3.org/2000/svg">
<path d="M13.6807 24L14.4854 21.7344H17.7197L18.5244 24H19.54L16.6025 16H15.6025L12.665 24H13.6807ZM14.79 20.875L16.0713 17.2656H16.1338L17.415 20.875H14.79Z" fill="white"/>
<path d="M25.8789 18.5H26.8789C26.582 16.9531 25.2852 15.8906 23.5977 15.8906C21.5469 15.8906 20.0977 17.4688 20.0977 20C20.0977 22.5312 21.5352 24.1094 23.6602 24.1094C25.5664 24.1094 26.9258 22.8398 26.9258 20.8594V20H23.8789V20.8594H25.9883C25.9609 22.2969 25.0156 23.2031 23.6602 23.2031C22.1758 23.2031 21.0352 22.0781 21.0352 20C21.0352 17.9219 22.1758 16.7969 23.5977 16.7969C24.7539 16.7969 25.5391 17.4492 25.8789 18.5Z" fill="white"/>
</svg>
