<svg width="40" height="40" viewBox="0 0 40 40" fill="none" xmlns="http://www.w3.org/2000/svg">
<path fill-rule="evenodd" clip-rule="evenodd" d="M28.75 20C28.75 24.8325 24.8325 28.75 20 28.75C15.1675 28.75 11.25 24.8325 11.25 20C11.25 15.1675 15.1675 11.25 20 11.25C24.8325 11.25 28.75 15.1675 28.75 20ZM30 20C30 25.5228 25.5228 30 20 30C14.4772 30 10 25.5228 10 20C10 14.4772 14.4772 10 20 10C25.5228 10 30 14.4772 30 20ZM20 25.6248C18.1845 25.6248 16.5698 24.7646 15.5414 23.4296L14.5505 24.1917C15.8075 25.8234 17.7811 26.8748 20 26.8748C22.2189 26.8748 24.1925 25.8234 25.4495 24.1917L24.4586 23.4296C23.4302 24.7646 21.8155 25.6248 20 25.6248Z" fill="white"/>
</svg>
