<svg width="40" height="40" viewBox="0 0 40 40" fill="none" xmlns="http://www.w3.org/2000/svg">
<path fill-rule="evenodd" clip-rule="evenodd" d="M27 20C27 23.866 23.866 27 20 27C16.134 27 13 23.866 13 20C13 16.134 16.134 13 20 13C23.866 13 27 16.134 27 20ZM28 20C28 24.4183 24.4183 28 20 28C15.5817 28 12 24.4183 12 20C12 15.5817 15.5817 12 20 12C24.4183 12 28 15.5817 28 20ZM20 24.4998C18.5476 24.4998 17.2559 23.8117 16.4331 22.7437L15.6404 23.3534C16.646 24.6588 18.2249 25.4998 20 25.4998C21.7751 25.4998 23.354 24.6588 24.3596 23.3534L23.5669 22.7437C22.7441 23.8117 21.4524 24.4998 20 24.4998Z" fill="white"/>
</svg>
