<svg width="40" height="40" viewBox="0 0 40 40" fill="none" xmlns="http://www.w3.org/2000/svg">
<path fill-rule="evenodd" clip-rule="evenodd" d="M26.5457 13.4543C25.2732 12.1819 23.2102 12.1819 21.9378 13.4543L19.0218 16.3703L19.9184 17.2668L22.8343 14.3508C23.6116 13.5735 24.8719 13.5735 25.6491 14.3508C26.4265 15.1281 26.4265 16.3883 25.6491 17.1656L22.7331 20.0815L23.6298 20.9781L26.5457 18.0621C27.8181 16.7897 27.8181 14.7267 26.5457 13.4543ZM13.4543 26.5454C12.1819 25.273 12.1819 23.21 13.4543 21.9376L16.3704 19.0216L17.2669 19.9181L14.3509 22.8341C13.5736 23.6114 13.5736 24.8715 14.3509 25.6489C15.1281 26.4262 16.3884 26.4262 17.1657 25.6489L20.0818 22.7328L20.9783 23.6294L18.0622 26.5454C16.7898 27.8178 14.7268 27.8178 13.4543 26.5454ZM27.4225 23.2848H24.2414V22.017H27.4225V23.2848ZM23.2852 24.2412V27.4222H22.0172V24.2412H23.2852ZM16.7153 12.5771V15.7582H17.9832V12.5771H16.7153ZM15.7586 16.7148H12.5775V17.9827H15.7586V16.7148Z" fill="white"/>
</svg>
