<svg width="41" height="40" viewBox="0 0 41 40" fill="none" xmlns="http://www.w3.org/2000/svg">
<path fill-rule="evenodd" clip-rule="evenodd" d="M20.3752 23.75C17.5004 23.75 14.9725 22.2573 13.5273 20C14.9725 17.7427 17.5004 16.25 20.3752 16.25C23.2501 16.25 25.7779 17.7427 27.2232 20C25.7779 22.2573 23.2501 23.75 20.3752 23.75ZM20.3752 15C23.9728 15 27.0971 17.0264 28.6689 20C27.0971 22.9736 23.9728 25 20.3752 25C16.7777 25 13.6534 22.9736 12.0815 20C13.6534 17.0264 16.7777 15 20.3752 15ZM20.3756 22.5C21.7563 22.5 22.8756 21.3807 22.8756 20C22.8756 18.6193 21.7563 17.5 20.3756 17.5C18.9949 17.5 17.8756 18.6193 17.8756 20C17.8756 21.3807 18.9949 22.5 20.3756 22.5Z" fill="white"/>
</svg>
