<svg width="40" height="40" viewBox="0 0 40 40" fill="none" xmlns="http://www.w3.org/2000/svg">
<path d="M28.0591 12C27.0591 11 25.5591 11 24.5591 12L21.0591 15.5L20.0591 14.625C19.5591 14.125 18.8091 14.125 18.3091 14.625C17.8091 15.125 17.8091 15.875 18.3091 16.375L19.1841 17.25L11.9341 24.5C11.4341 25 10.6841 26.875 11.9341 28.125C13.1841 29.375 15.0591 28.625 15.5591 28.125L22.8091 20.875L23.6841 21.75C24.1841 22.25 24.9341 22.25 25.4341 21.75C25.9341 21.25 25.9341 20.5 25.4341 20L24.5591 19.125L28.0591 15.625C29.0591 14.5 29.0591 13 28.0591 12ZM14.4341 26.875H13.1841V25.625L20.4341 18.375L21.6841 19.625C21.5591 19.625 14.4341 26.875 14.4341 26.875Z" fill="white"/>
</svg>
