<svg width="40" height="40" viewBox="0 0 40 40" fill="none" xmlns="http://www.w3.org/2000/svg">
<path fill-rule="evenodd" clip-rule="evenodd" d="M15 20.0625V11.25H16.25V20.0625C17.6764 20.3521 18.75 21.6132 18.75 23.125C18.75 24.6368 17.6764 25.8979 16.25 26.1875V28.75H15V26.1875C13.5736 25.8979 12.5 24.6368 12.5 23.125C12.5 21.6132 13.5736 20.3521 15 20.0625ZM17.5 23.125C17.5 24.1605 16.6605 25 15.625 25C14.5895 25 13.75 24.1605 13.75 23.125C13.75 22.0895 14.5895 21.25 15.625 21.25C16.6605 21.25 17.5 22.0895 17.5 23.125ZM23.75 28.75H25V19.9375C26.4264 19.6479 27.5 18.3868 27.5 16.875C27.5 15.3632 26.4264 14.1021 25 13.8125V11.25H23.75V13.8125C22.3236 14.1021 21.25 15.3632 21.25 16.875C21.25 18.3868 22.3236 19.6479 23.75 19.9375V28.75ZM26.25 16.875C26.25 15.8395 25.4105 15 24.375 15C23.3395 15 22.5 15.8395 22.5 16.875C22.5 17.9105 23.3395 18.75 24.375 18.75C25.4105 18.75 26.25 17.9105 26.25 16.875Z" fill="white"/>
</svg>
