<svg width="40" height="40" viewBox="0 0 40 40" fill="none" xmlns="http://www.w3.org/2000/svg">
<path fill-rule="evenodd" clip-rule="evenodd" d="M28.4046 16.2904L26.9544 18.1031C26.9444 18.0387 26.9334 17.9746 26.9216 17.9106C26.7346 16.899 26.3191 15.9376 25.7002 15.1024C24.8334 13.9327 23.6136 13.0726 22.2209 12.6489C20.8281 12.2252 19.336 12.2604 17.9647 12.7492C16.9855 13.0983 16.105 13.6654 15.3863 14.4015C15.0987 14.696 14.8371 15.0176 14.6053 15.3631L14.6049 15.3639L15.6302 16.0513C16.2935 15.0621 17.2574 14.3123 18.3793 13.9123C19.5012 13.5124 20.722 13.4836 21.8615 13.8303C23.001 14.1769 23.9989 14.8806 24.7081 15.8376C25.3065 16.6452 25.6726 17.597 25.7723 18.5904L23.0562 16.7796L22.3714 17.8068L26.0751 20.276L26.5459 20.5899L26.8995 20.148L29.3686 17.0616L28.4046 16.2904ZM13.5897 18.1425L11.1206 21.2289L12.0847 22.0001L13.535 20.1872C13.545 20.2515 13.5559 20.3157 13.5677 20.3797C13.7548 21.3912 14.1703 22.3526 14.7892 23.1878C15.656 24.3575 16.8757 25.2176 18.2685 25.6413C19.6613 26.065 21.1534 26.0298 22.5247 25.541C23.5038 25.1919 24.3844 24.6248 25.103 23.8888C25.3908 23.594 25.6527 23.2721 25.8845 22.9264L24.8591 22.2388C24.1959 23.2281 23.232 23.978 22.11 24.3779C20.9882 24.7778 19.7674 24.8066 18.6279 24.4599C17.4884 24.1133 16.4904 23.4096 15.7813 22.4527C15.1829 21.6452 14.8169 20.6934 14.7171 19.7002L17.4331 21.5108L18.1179 20.4836L14.4142 18.0145L13.9433 17.7005L13.5897 18.1425Z" fill="white"/>
</svg>
