<svg width="24" height="24" viewBox="0 0 24 24" fill="none" xmlns="http://www.w3.org/2000/svg">
<path fill-rule="evenodd" clip-rule="evenodd" d="M20 12C20 16.4183 16.4183 20 12 20C7.58172 20 4 16.4183 4 12C4 7.58172 7.58172 4 12 4C16.4183 4 20 7.58172 20 12ZM17.2952 12.3248C17.324 12.219 17.3376 12.1096 17.336 12C17.3278 11.7748 17.2546 11.5567 17.1252 11.3722C16.9959 11.1877 16.8159 11.0445 16.607 10.96C16.3981 10.8754 16.1693 10.8531 15.948 10.8958C15.7267 10.9383 15.5225 11.044 15.36 11.2C15.134 11.0464 14.8972 10.9092 14.6514 10.7896C14.1594 10.5499 13.6353 10.3824 13.0954 10.2924C12.8258 10.2474 12.5532 10.2218 12.28 10.216L12.8 7.72L14.512 8.08C14.554 8.4708 14.8738 8.7732 15.2664 8.7934C15.6588 8.8136 16.008 8.5456 16.0898 8.1612C16.1718 7.7768 15.9622 7.3898 15.5956 7.2482C15.229 7.1066 14.8138 7.2522 14.616 7.592L12.656 7.2C12.624 7.193 12.5908 7.1924 12.5586 7.1982C12.5262 7.2042 12.4954 7.2164 12.4678 7.2342C12.4404 7.252 12.4166 7.2752 12.3982 7.3022C12.3796 7.3294 12.3666 7.3598 12.36 7.392L11.768 10.168C11.4914 10.1722 11.2154 10.1964 10.9424 10.2406C10.6694 10.2848 10.3998 10.3486 10.136 10.4318C9.8722 10.515 9.6148 10.6174 9.3658 10.7378C9.11686 10.8584 8.87697 10.9968 8.648 11.152C8.52466 11.036 8.37757 10.9482 8.21691 10.8946C8.05626 10.8411 7.88588 10.8231 7.7176 10.842C7.54934 10.8608 7.38718 10.9159 7.24237 11.0037C7.09756 11.0914 6.97357 11.2096 6.879 11.35C6.78435 11.4905 6.72137 11.6498 6.69444 11.817C6.6675 11.9843 6.67725 12.1553 6.723 12.3184C6.76883 12.4814 6.84953 12.6325 6.95952 12.7612C7.0695 12.89 7.20615 12.9933 7.36 13.064C7.3578 13.0932 7.356 13.1226 7.355 13.152C7.35259 13.2106 7.35259 13.2694 7.355 13.328C7.356 13.3574 7.3578 13.3868 7.36 13.416C7.36 15.208 9.448 16.664 12.024 16.664C14.6 16.664 16.688 15.208 16.688 13.416C16.6902 13.3868 16.692 13.3574 16.693 13.328C16.6954 13.2694 16.6954 13.2106 16.693 13.152C16.692 13.1226 16.6902 13.0932 16.688 13.064C16.7862 13.0152 16.877 12.9528 16.9578 12.8786C17.0386 12.8044 17.1086 12.7192 17.1656 12.6256C17.2228 12.532 17.2664 12.4306 17.2952 12.3248ZM9.5704 13.3656C9.496 13.2914 9.4372 13.2032 9.3968 13.1062C9.3566 13.009 9.336 12.905 9.336 12.8C9.336 12.4764 9.531 12.1848 9.8298 12.0608C10.1288 11.937 10.4728 12.0056 10.7016 12.2344C10.9304 12.4632 10.999 12.8072 10.8752 13.1062C10.7512 13.405 10.4596 13.6 10.136 13.6C10.0309 13.6 9.92689 13.5794 9.8298 13.5392C9.7328 13.4988 9.6446 13.44 9.5704 13.3656ZM14.044 14.8748C14.0432 14.932 14.0198 14.9866 13.9788 15.0266L13.984 15C13.8434 15.106 13.694 15.1996 13.5374 15.28C13.2235 15.4409 12.8843 15.5466 12.5346 15.5926C12.36 15.6154 12.1838 15.6232 12.008 15.616C11.8322 15.6232 11.656 15.6154 11.4814 15.5926C11.3068 15.5696 11.1346 15.5318 10.9666 15.4794C10.7986 15.427 10.6352 15.3604 10.4786 15.28C10.322 15.1996 10.1726 15.106 10.032 15C9.998 14.9586 9.9806 14.906 9.9832 14.8524C9.9858 14.7988 10.0084 14.7482 10.0462 14.7102C10.0842 14.6724 10.1348 14.6498 10.1884 14.6472C10.242 14.6446 10.2946 14.662 10.336 14.696C10.4552 14.7834 10.5816 14.8606 10.7138 14.9266C10.846 14.9926 10.9834 15.0474 11.125 15.0902C11.2664 15.1332 11.4112 15.164 11.5578 15.1822C11.7044 15.2006 11.8524 15.2066 12 15.2C12.1478 15.208 12.296 15.2036 12.4432 15.1866C12.5902 15.1696 12.7356 15.1402 12.8776 15.0988C13.0197 15.0573 13.1581 15.0038 13.2912 14.939C13.4243 14.8742 13.5517 14.7983 13.672 14.712C13.7182 14.6774 13.7734 14.6552 13.8308 14.656C13.888 14.6568 13.9426 14.6802 13.9826 14.7212C14.0226 14.7622 14.0448 14.8174 14.044 14.8748ZM14.1482 13.6026C14.048 13.6442 13.9404 13.6652 13.832 13.664L13.84 13.632C13.5164 13.632 13.2248 13.437 13.1008 13.1382C12.977 12.8392 13.0456 12.4952 13.2744 12.2664C13.5032 12.0376 13.8472 11.969 14.1462 12.0928C14.445 12.2168 14.64 12.5084 14.64 12.832C14.6444 12.9404 14.6266 13.0485 14.5878 13.1498C14.549 13.2512 14.4902 13.3436 14.4146 13.4214C14.339 13.4992 14.2484 13.5608 14.1482 13.6026Z" fill="white"/>
</svg>
