<svg width="24" height="24" viewBox="0 0 24 24" fill="none" xmlns="http://www.w3.org/2000/svg">
<path d="M19.3813 9.60675C18.671 8.27655 17.2892 7.45001 15.7781 7.45001H4.38744C4.16789 7.45001 4 7.63082 4 7.85037C4 7.95368 4.03874 8.057 4.11623 8.12157L6.59584 10.6141C6.81539 10.8336 7.11243 10.9628 7.42238 10.9628H15.4553C16.0235 10.9628 16.5014 11.4148 16.5014 11.983C16.5014 12.5513 16.0493 13.0291 15.4811 13.0291H9.94073C9.72118 13.0291 9.55329 13.2099 9.55329 13.4295C9.55329 13.5328 9.59203 13.6361 9.66952 13.7007L12.1362 16.1932C12.3558 16.4128 12.6528 16.5419 12.9628 16.5419H15.4682C18.7356 16.5419 21.2023 13.055 19.3813 9.60675Z" fill="white"/>
</svg>
