<svg width="24" height="24" viewBox="0 0 24 24" fill="none" xmlns="http://www.w3.org/2000/svg">
<g clip-path="url(#clip0_565_84233)">
<path d="M5.7282 13.7007C5.7282 14.3128 5.86229 14.7807 6.03756 15.0645C6.13096 15.226 6.26546 15.36 6.42739 15.4527C6.58932 15.5455 6.77292 15.5937 6.95952 15.5925C7.41021 15.5925 7.82251 15.4812 8.61705 14.3818C9.25358 13.501 10.0036 12.2674 10.5088 11.4884L11.3635 10.1753C11.9572 9.26338 12.6432 8.24961 13.4322 7.56022C14.0748 7.00159 14.7687 6.69 15.467 6.69C16.6393 6.69 17.756 7.36937 18.6107 8.64354C19.546 10.039 20.0017 11.7967 20.0017 13.6106C20.0017 14.6889 19.7891 15.4812 19.4275 16.1072C19.0786 16.7125 18.3953 17.3173 17.2497 17.3173V15.5925C18.2306 15.5925 18.4738 14.6911 18.4738 13.6595C18.4738 12.1895 18.131 10.5581 17.376 9.39246C16.8402 8.56565 16.1458 8.06043 15.3818 8.06043C14.5556 8.06043 13.8907 8.6836 13.1434 9.79475C12.7461 10.3851 12.3383 11.1045 11.8804 11.9163L11.3763 12.8066C10.3636 14.6021 10.1071 15.011 9.60078 15.686C8.71498 16.8722 7.95716 17.3173 6.95952 17.3173C5.77605 17.3173 5.02768 16.8049 4.56698 16.0326C4.18584 15.4033 4 14.5776 4 13.6367L5.7282 13.7007Z" fill="white"/>
<path d="M5.3623 8.76539C6.15463 7.54408 7.29804 6.69 8.60949 6.69C9.36898 6.69 10.124 6.91256 10.9125 7.55855C11.7749 8.2624 12.6929 9.4214 13.8408 11.3315L14.252 12.017C15.2446 13.6707 15.8099 14.5209 16.1399 14.9226C16.565 15.4378 16.8632 15.5903 17.2494 15.5903C18.2303 15.5903 18.4734 14.6889 18.4734 13.6573L19.998 13.6095C19.998 14.6878 19.7854 15.4801 19.4238 16.1061C19.0783 16.7125 18.395 17.3173 17.2494 17.3173C16.5372 17.3173 15.9062 17.1627 15.2085 16.5044C14.6721 15.9992 14.045 15.1017 13.5626 14.295L12.1276 11.898C11.4077 10.695 10.7472 9.79808 10.3649 9.39413C9.95321 8.95513 9.42518 8.42766 8.58167 8.42766C7.89896 8.42766 7.31918 8.90672 6.834 9.63951L5.3623 8.76539Z" fill="white"/>
<path d="M8.582 8.42766C7.89929 8.42766 7.31952 8.90672 6.83433 9.63951C6.14828 10.675 5.7282 12.2173 5.7282 13.7007C5.7282 14.3128 5.86229 14.7807 6.03756 15.0645L4.5642 16.0326C4.18584 15.4033 4 14.5776 4 13.6367C4 11.9258 4.46961 10.1425 5.36264 8.76539C6.15496 7.54408 7.29837 6.69 8.60982 6.69L8.582 8.42766Z" fill="white"/>
</g>
<defs>
<clipPath id="clip0_565_84233">
<rect width="16" height="10.6273" fill="white" transform="translate(4 6.69)"/>
</clipPath>
</defs>
</svg>
