<svg width="24" height="24" viewBox="0 0 24 24" fill="none" xmlns="http://www.w3.org/2000/svg">
<g clip-path="url(#clip0_565_84193)">
<path fill-rule="evenodd" clip-rule="evenodd" d="M13.2724 4.01055L13.2661 7.54651L13.2599 11.0825L12.969 10.2616C12.9689 10.2613 12.9685 10.2603 12.9684 10.26L12.5925 18.132C12.9621 19.1757 13.1601 19.7329 13.1623 19.7351C13.1653 19.7381 13.3759 19.7508 13.6304 19.7634C14.4016 19.8017 15.3572 19.8837 16.0822 19.9737C16.25 19.9946 16.3945 20.0053 16.4032 19.9975C16.4119 19.9897 16.4166 16.3894 16.4137 11.9969L16.4084 4.01055H13.2724ZM7.6001 4.00003V11.9945C7.6001 16.3915 7.6044 19.9933 7.60967 19.9986C7.61493 20.0038 7.88723 19.9781 8.21478 19.9414C8.54232 19.9048 8.99501 19.8591 9.22074 19.8401C9.56694 19.8109 10.6006 19.7444 10.7203 19.7437C10.7551 19.7434 10.7573 19.5638 10.7624 16.3575L10.7677 12.9717L11.0178 13.6793C11.0565 13.7886 11.0686 13.8228 11.1063 13.9293L11.4821 6.05931C11.4024 5.83417 11.4442 5.95236 11.3529 5.69434C11.0459 4.82614 10.7853 4.08974 10.7739 4.05791L10.7531 4.00003H7.6001Z" fill="#E4E4E4" stroke="black" stroke-width="0.0168379"/>
<path fill-rule="evenodd" clip-rule="evenodd" d="M7.6001 4.00003V8.48755L10.7613 16.8732C10.7617 16.681 10.762 16.5772 10.7624 16.3575L10.7677 12.9717L11.0178 13.6793C12.41 17.6186 13.1579 19.7307 13.1623 19.7351C13.1653 19.7381 13.3759 19.7508 13.6304 19.7634C14.4016 19.8017 15.3572 19.8837 16.0822 19.9737C16.25 19.9946 16.3945 20.0053 16.4032 19.9975C16.4092 19.9921 16.4131 18.2268 16.4141 15.7365L13.2677 6.69047L13.2661 7.54651L13.2599 11.0825L12.969 10.2616C12.6847 9.45955 12.4949 8.92317 11.3529 5.69434C11.0459 4.82614 10.7853 4.08974 10.7739 4.05791L10.7531 4.00003H7.6001Z" fill="url(#paint0_radial_565_84193)"/>
<path fill-rule="evenodd" clip-rule="evenodd" d="M7.6001 4L10.7677 12.9757V12.9716L11.0178 13.6792C12.4099 17.6186 13.1579 19.7307 13.1623 19.7351C13.1652 19.738 13.3758 19.7507 13.6304 19.7634C14.4015 19.8016 15.3572 19.8836 16.0821 19.9737C16.2491 19.9945 16.3928 20.0051 16.4028 19.9975L13.2598 11.0808V11.0824L12.9689 10.2616C12.6847 9.45952 12.4949 8.92314 11.3529 5.69431C11.0458 4.82611 10.7852 4.08971 10.7738 4.05788L10.753 4L7.6001 4Z" fill="white"/>
<path fill-rule="evenodd" clip-rule="evenodd" d="M13.2724 4.01055L13.2661 7.54651L13.2599 11.0825L12.969 10.2616C12.9689 10.2613 12.9685 10.2603 12.9684 10.26L12.5925 18.132C12.9621 19.1757 13.1601 19.7329 13.1623 19.7351C13.1653 19.7381 13.3759 19.7508 13.6304 19.7634C14.4016 19.8017 15.3572 19.8837 16.0822 19.9737C16.25 19.9946 16.3945 20.0053 16.4032 19.9975C16.4119 19.9897 16.4166 16.3894 16.4137 11.9969L16.4084 4.01055H13.2724ZM7.6001 4.00003V11.9945C7.6001 16.3915 7.6044 19.9933 7.60967 19.9986C7.61493 20.0038 7.88723 19.9781 8.21478 19.9414C8.54232 19.9048 8.99501 19.8591 9.22074 19.8401C9.56694 19.8109 10.6006 19.7444 10.7203 19.7437C10.7551 19.7434 10.7573 19.5638 10.7624 16.3575L10.7677 12.9717L11.0178 13.6793C11.0565 13.7886 11.0686 13.8228 11.1063 13.9293L11.4821 6.05931C11.4024 5.83417 11.4442 5.95236 11.3529 5.69434C11.0459 4.82614 10.7853 4.08974 10.7739 4.05791L10.7531 4.00003H7.6001Z" fill="#E4E4E4" stroke="black" stroke-width="0.0168379"/>
<path fill-rule="evenodd" clip-rule="evenodd" d="M7.6001 4.00003V8.48755L10.7613 16.8732C10.7617 16.681 10.762 16.5772 10.7624 16.3575L10.7677 12.9717L11.0178 13.6793C12.41 17.6186 13.1579 19.7307 13.1623 19.7351C13.1653 19.7381 13.3759 19.7508 13.6304 19.7634C14.4016 19.8017 15.3572 19.8837 16.0822 19.9737C16.25 19.9946 16.3945 20.0053 16.4032 19.9975C16.4092 19.9921 16.4131 18.2268 16.4141 15.7365L13.2677 6.69047L13.2661 7.54651L13.2599 11.0825L12.969 10.2616C12.6847 9.45955 12.4949 8.92317 11.3529 5.69434C11.0459 4.82614 10.7853 4.08974 10.7739 4.05791L10.7531 4.00003H7.6001Z" fill="url(#paint1_radial_565_84193)"/>
<path fill-rule="evenodd" clip-rule="evenodd" d="M7.6001 4L10.7677 12.9757V12.9716L11.0178 13.6792C12.4099 17.6186 13.1579 19.7307 13.1623 19.7351C13.1652 19.738 13.3758 19.7507 13.6304 19.7634C14.4015 19.8016 15.3572 19.8836 16.0821 19.9737C16.2491 19.9945 16.3928 20.0051 16.4028 19.9975L13.2598 11.0808V11.0824L12.9689 10.2616C12.6847 9.45952 12.4949 8.92314 11.3529 5.69431C11.0458 4.82611 10.7852 4.08971 10.7738 4.05788L10.753 4L7.6001 4Z" fill="white"/>
</g>
<defs>
<radialGradient id="paint0_radial_565_84193" cx="0" cy="0" r="1" gradientUnits="userSpaceOnUse" gradientTransform="translate(11.8607 11.907) rotate(-19.0977) scale(1.99774 73.1754)">
<stop/>
<stop offset="1" stop-opacity="0"/>
</radialGradient>
<radialGradient id="paint1_radial_565_84193" cx="0" cy="0" r="1" gradientUnits="userSpaceOnUse" gradientTransform="translate(11.8607 11.907) rotate(-19.0977) scale(1.99774 73.1754)">
<stop/>
<stop offset="1" stop-opacity="0"/>
</radialGradient>
<clipPath id="clip0_565_84193">
<rect width="24" height="24" fill="white"/>
</clipPath>
</defs>
</svg>
