<svg width="24" height="24" viewBox="0 0 24 24" fill="none" xmlns="http://www.w3.org/2000/svg">
<mask id="mask0_571_84374" style="mask-type:luminance" maskUnits="userSpaceOnUse" x="4" y="5" width="16" height="14">
<path d="M20 5.42004H4V18.5813H20V5.42004Z" fill="white"/>
</mask>
<g mask="url(#mask0_571_84374)">
<path d="M18.3193 8.72915C18.329 8.86915 18.329 9.00915 18.329 9.15044C18.329 13.4556 15.0515 18.4208 9.05865 18.4208V18.4182C7.28832 18.4208 5.55478 17.9137 4.06445 16.9575C4.32187 16.9885 4.58058 17.004 4.83994 17.0046C6.30703 17.0059 7.73219 16.5137 8.88639 15.6072C7.49219 15.5808 6.26961 14.6717 5.84252 13.3446C6.3309 13.4388 6.83413 13.4195 7.31349 13.2885C5.79349 12.9814 4.69994 11.6459 4.69994 10.095V10.0537C5.15284 10.3059 5.65994 10.4459 6.17865 10.4614C4.74703 9.50463 4.30574 7.60012 5.17026 6.11109C6.82445 8.14657 9.2651 9.38399 11.8851 9.51496C11.6225 8.38334 11.9812 7.19754 12.8277 6.40205C14.1399 5.1685 16.2038 5.23173 17.4374 6.54334C18.167 6.39947 18.8664 6.13173 19.5064 5.75238C19.2632 6.50657 18.7541 7.14721 18.0741 7.55431C18.7199 7.47818 19.3509 7.30528 19.9451 7.04141C19.5077 7.69689 18.9567 8.26786 18.3193 8.72915Z" fill="#1D9BF0"/>
</g>
</svg>
