<svg width="24" height="24" viewBox="0 0 24 24" fill="none" xmlns="http://www.w3.org/2000/svg">
<path d="M15.8584 4.00096C15.2007 3.98684 14.4187 4.12877 13.5329 4.42088C13.4 4.46748 13.295 4.5411 13.2004 4.63425C12.2994 5.48001 11.423 6.37662 10.5946 7.30359L10.531 7.37396C10.5134 7.39389 10.5113 7.42358 10.5242 7.44659C10.5376 7.46989 10.5639 7.48192 10.59 7.47611L10.6831 7.45682C12.0182 7.17141 13.3661 6.95231 14.6883 6.80764C14.7753 6.79805 14.8651 6.82786 14.93 6.88709C14.9949 6.94691 15.0328 7.03225 15.031 7.12088C15.0092 8.43311 15.056 9.75183 15.1729 11.0409L15.1808 11.1249C15.1838 11.1506 15.2015 11.1714 15.2274 11.1782C15.232 11.1794 15.2363 11.1806 15.2422 11.1806C15.2617 11.1809 15.2813 11.1716 15.2932 11.1545L15.342 11.0852C16.0869 10.0223 16.8979 8.98906 17.7504 8.01187C17.8458 7.90315 17.8709 7.83476 17.8888 7.73608C18.1572 6.01836 17.743 4.748 17.3724 4.42664C17.0506 4.14762 16.5836 4.01654 15.8584 4.00096ZM13.8132 7.48064L13.7315 7.49197C12.456 7.66765 11.1647 7.91102 9.89319 8.21492C9.76715 8.25014 9.68623 8.33205 9.66847 8.35111C8.7169 9.49073 7.8156 10.6902 6.98891 11.9193C6.94759 11.9815 6.94352 12.1304 6.94352 12.1304C6.94352 12.1304 7.15093 13.7315 7.45425 14.911C6.70265 17.0725 6.03218 19.9206 6.03218 19.9206C6.02695 19.939 6.03044 19.9583 6.04124 19.9739C6.05257 19.9895 6.07053 19.9994 6.09005 20H6.51792C6.545 20.0004 6.56859 19.984 6.57808 19.9591L6.60759 19.8786C7.04423 18.6876 7.54192 17.5118 8.09208 16.366C8.22016 16.099 8.49044 15.5602 8.49044 15.5602C8.53483 15.4727 8.7422 15.075 8.78892 14.9859L8.79689 14.97C10.1822 12.3568 11.8709 9.89187 13.8144 7.64407L13.8677 7.58279C13.8842 7.56326 13.8876 7.53496 13.8757 7.51242C13.8629 7.4897 13.838 7.47727 13.8132 7.48064ZM14.4011 7.9732C14.3771 7.96419 14.3495 7.97029 14.333 7.99022L14.2797 8.05264C12.0136 10.6735 10.109 13.5824 8.61867 16.6985L8.58345 16.7712C8.57212 16.7942 8.57648 16.8219 8.59368 16.8404C8.60548 16.8526 8.62105 16.8595 8.63796 16.8597C8.64551 16.86 8.65522 16.8585 8.66295 16.855L8.73785 16.8232C10.0106 16.2959 11.3109 15.8391 12.6023 15.4659C12.6796 15.4434 12.7439 15.3898 12.7805 15.3183C13.3466 14.215 14.661 12.0792 14.661 12.0792C14.6948 12.0311 14.6871 11.9589 14.6871 11.9589C14.6871 11.9589 14.4562 9.40442 14.442 8.11154L14.4408 8.02983C14.4397 8.0042 14.4247 7.9818 14.4011 7.9732ZM11.0406 16.5521L10.9351 16.5884C10.2508 16.8158 9.23859 17.1652 8.33039 17.5826C8.28175 17.6055 8.24981 17.6689 8.24981 17.6689C8.2329 17.7078 8.21239 17.7563 8.18852 17.8107L8.18504 17.8175C8.0833 18.0491 7.94212 18.3976 7.88201 18.5394L7.83547 18.6517C7.82821 18.6695 7.83257 18.6894 7.8468 18.7028C7.85523 18.7108 7.86493 18.7148 7.87742 18.7153C7.88382 18.7153 7.89114 18.7141 7.89788 18.7106L8.00796 18.6585C8.25641 18.5403 8.57135 18.3612 8.90115 18.2045L8.91248 18.1987C9.53964 17.9012 10.2474 17.5654 10.6739 17.3622C10.6739 17.3622 10.7425 17.3252 10.7772 17.2567L11.0961 16.6166C11.1045 16.5999 11.1021 16.5798 11.0903 16.5655C11.0773 16.5516 11.0583 16.5462 11.0406 16.5521Z" fill="#00C805"/>
</svg>
