<svg width="24" height="24" viewBox="0 0 24 24" fill="none" xmlns="http://www.w3.org/2000/svg">
<g clip-path="url(#clip0_572_84400)">
<path d="M5.7282 13.7007C5.7282 14.3127 5.86229 14.7806 6.03756 15.0644C6.13096 15.226 6.26546 15.3599 6.42739 15.4526C6.58932 15.5454 6.77292 15.5936 6.95952 15.5924C7.41021 15.5924 7.82251 15.4811 8.61705 14.3817C9.25358 13.5009 10.0036 12.2673 10.5088 11.4884L11.3635 10.1753C11.9572 9.26332 12.6432 8.24955 13.4322 7.56016C14.0748 7.00153 14.7687 6.68994 15.467 6.68994C16.6393 6.68994 17.756 7.36931 18.6107 8.64348C19.546 10.0389 20.0017 11.7966 20.0017 13.6105C20.0017 14.6888 19.7891 15.4811 19.4275 16.1071C19.0786 16.7125 18.3953 17.3173 17.2497 17.3173V15.5924C18.2306 15.5924 18.4738 14.6911 18.4738 13.6595C18.4738 12.1895 18.131 10.5581 17.376 9.3924C16.8402 8.56558 16.1458 8.06037 15.3818 8.06037C14.5556 8.06037 13.8907 8.68354 13.1434 9.79468C12.7461 10.385 12.3383 11.1045 11.8804 11.9163L11.3763 12.8065C10.3636 14.602 10.1071 15.011 9.60078 15.6859C8.71498 16.8722 7.95716 17.3173 6.95952 17.3173C5.77605 17.3173 5.02768 16.8048 4.56698 16.0325C4.18584 15.4033 4 14.5775 4 13.6367L5.7282 13.7007Z" fill="#0081FB"/>
<path d="M5.3623 8.76533C6.15463 7.54402 7.29804 6.68994 8.60949 6.68994C9.36898 6.68994 10.124 6.9125 10.9125 7.55849C11.7749 8.26234 12.6929 9.42134 13.8408 11.3315L14.252 12.017C15.2446 13.6706 15.8099 14.5208 16.1399 14.9225C16.565 15.4377 16.8632 15.5902 17.2494 15.5902C18.2303 15.5902 18.4734 14.6888 18.4734 13.6573L19.998 13.6094C19.998 14.6877 19.7854 15.48 19.4238 16.106C19.0783 16.7125 18.395 17.3173 17.2494 17.3173C16.5372 17.3173 15.9062 17.1626 15.2085 16.5044C14.6721 15.9992 14.045 15.1017 13.5626 14.2949L12.1276 11.8979C11.4077 10.6949 10.7472 9.79802 10.3649 9.39407C9.95321 8.95507 9.42518 8.4276 8.58167 8.4276C7.89896 8.4276 7.31918 8.90666 6.834 9.63945L5.3623 8.76533Z" fill="url(#paint0_linear_572_84400)"/>
<path d="M8.582 8.4276C7.89929 8.4276 7.31952 8.90666 6.83433 9.63945C6.14828 10.6749 5.7282 12.2173 5.7282 13.7007C5.7282 14.3127 5.86229 14.7806 6.03756 15.0644L4.5642 16.0325C4.18584 15.4033 4 14.5775 4 13.6367C4 11.9257 4.46961 10.1424 5.36264 8.76533C6.15496 7.54402 7.29837 6.68994 8.60982 6.68994L8.582 8.4276Z" fill="url(#paint1_linear_572_84400)"/>
</g>
<defs>
<linearGradient id="paint0_linear_572_84400" x1="7.4683" y1="11.7282" x2="18.4851" y2="12.2846" gradientUnits="userSpaceOnUse">
<stop stop-color="#0064E1"/>
<stop offset="0.4" stop-color="#0064E1"/>
<stop offset="0.83" stop-color="#0073EE"/>
<stop offset="1" stop-color="#0082FB"/>
</linearGradient>
<linearGradient id="paint1_linear_572_84400" x1="6.30463" y1="14.424" x2="6.30463" y2="10.3622" gradientUnits="userSpaceOnUse">
<stop stop-color="#0082FB"/>
<stop offset="1" stop-color="#0064E0"/>
</linearGradient>
<clipPath id="clip0_572_84400">
<rect width="16" height="10.6273" fill="white" transform="translate(4 6.68994)"/>
</clipPath>
</defs>
</svg>
