<svg width="24" height="24" viewBox="0 0 24 24" fill="none" xmlns="http://www.w3.org/2000/svg">
<path d="M19.7226 16.1248C16.9352 14.7754 16.4909 12.6921 16.4711 12.5376C16.4472 12.3504 16.4201 12.2033 16.6266 12.0129C16.8257 11.8289 17.7092 11.2821 17.9543 11.111C18.3595 10.8277 18.5379 10.5449 18.4064 10.1972C18.3144 9.95667 18.0904 9.86607 17.8545 9.86607C17.7801 9.8663 17.7059 9.87463 17.6333 9.89091C17.1881 9.98748 16.7558 10.2105 16.5056 10.2708C16.4756 10.2785 16.4447 10.2827 16.4137 10.2832C16.2803 10.2832 16.2297 10.2239 16.2426 10.0634C16.2738 9.5768 16.3401 8.62712 16.2633 7.73998C16.158 6.51942 15.7643 5.91466 15.2975 5.37981C15.0717 5.12043 14.0231 4.0061 11.9996 4.0061C9.97606 4.0061 8.92888 5.12043 8.70445 5.37659C8.23628 5.91144 7.84307 6.51621 7.73868 7.73676C7.66188 8.6239 7.73086 9.57312 7.75937 10.0601C7.76857 10.2128 7.72166 10.28 7.58829 10.28C7.55725 10.2794 7.52638 10.2753 7.49631 10.2676C7.24659 10.2073 6.81429 9.98426 6.36911 9.88769C6.2965 9.87141 6.22232 9.86308 6.1479 9.86285C5.91106 9.86285 5.68801 9.95483 5.59603 10.194C5.4645 10.5417 5.64202 10.8245 6.04857 11.1078C6.29369 11.2789 7.17715 11.8252 7.37628 12.0096C7.58231 12.2 7.55564 12.3472 7.53173 12.5344C7.51195 12.6912 7.06723 14.7745 4.28028 16.1215C4.11701 16.2007 3.83924 16.3681 4.32902 16.6385C5.09797 17.0634 5.60983 17.0179 6.00764 17.274C6.3452 17.4916 6.1456 17.9607 6.39119 18.1299C6.69288 18.3382 7.58461 18.1152 8.73665 18.4955C9.70242 18.8138 10.2892 19.7129 12.0019 19.7129C13.7145 19.7129 14.3184 18.8096 15.2671 18.4955C16.4169 18.1152 17.3104 18.3382 17.6126 18.1299C17.8577 17.9607 17.6586 17.4916 17.9962 17.274C18.394 17.0179 18.9054 17.0634 19.6748 16.6385C20.1636 16.3713 19.8859 16.2039 19.7226 16.1248Z" fill="white"/>
<path d="M20.9356 15.9663C20.8106 15.6259 20.5723 15.4438 20.301 15.293C20.2499 15.2631 20.203 15.2392 20.163 15.2208C20.0821 15.1789 19.9993 15.1384 19.917 15.0957C19.0712 14.6473 18.4108 14.0816 17.9528 13.4111C17.8227 13.2223 17.7099 13.0222 17.6157 12.8132C17.5766 12.7015 17.5784 12.638 17.6065 12.5801C17.6343 12.5354 17.6711 12.497 17.7146 12.4674C17.8599 12.3713 18.0098 12.2738 18.1114 12.208C18.2926 12.0907 18.4361 11.9978 18.5286 11.9321C18.8758 11.6892 19.1186 11.4312 19.2704 11.1429C19.3763 10.9437 19.438 10.724 19.4514 10.4988C19.4648 10.2735 19.4296 10.0481 19.3481 9.8377C19.1181 9.23248 18.5465 8.85675 17.8539 8.85675C17.7078 8.85661 17.5621 8.87203 17.4193 8.90274C17.3811 8.91102 17.343 8.91975 17.3057 8.92941C17.3121 8.51551 17.3029 8.07861 17.2662 7.64861C17.1355 6.13694 16.6062 5.34454 16.0543 4.71265C15.7009 4.31667 15.2847 3.98167 14.8223 3.72111C13.9848 3.24282 13.0351 3 11.9999 3C10.9647 3 10.0196 3.24282 9.18122 3.72111C8.7177 3.98175 8.30059 4.31742 7.94686 4.71448C7.39499 5.34638 6.86565 6.14016 6.73504 7.65045C6.69825 8.08045 6.68905 8.51965 6.69503 8.93125C6.65778 8.92159 6.62007 8.91286 6.5819 8.90458C6.43908 8.87387 6.29339 8.85845 6.1473 8.85859C5.45424 8.85859 4.88167 9.23432 4.65264 9.83954C4.57078 10.05 4.53519 10.2756 4.54828 10.5011C4.56137 10.7265 4.62285 10.9465 4.72853 11.1461C4.88075 11.4345 5.12358 11.6925 5.4708 11.9353C5.56277 11.9997 5.70672 12.0926 5.88792 12.2112C5.98588 12.2747 6.1289 12.3676 6.26917 12.4605C6.31825 12.4922 6.35996 12.5341 6.3915 12.5833C6.42094 12.6435 6.42186 12.7084 6.37817 12.8279C6.28524 13.0325 6.17427 13.2285 6.04658 13.4134C5.59865 14.0687 4.95755 14.6243 4.13894 15.069C3.70526 15.2989 3.25457 15.4525 3.06417 15.9699C2.92068 16.3604 3.0145 16.8046 3.3792 17.179C3.51304 17.3187 3.66829 17.4362 3.83909 17.5271C4.19449 17.7224 4.57241 17.8736 4.96445 17.9774C5.04536 17.9982 5.12216 18.0326 5.19164 18.079C5.32455 18.1954 5.30569 18.3706 5.48275 18.6272C5.57163 18.7598 5.68457 18.8746 5.81572 18.9657C6.18731 19.2223 6.60489 19.2384 7.04731 19.2554C7.44696 19.2706 7.89996 19.2881 8.41734 19.4587C8.63165 19.5295 8.85424 19.6666 9.11224 19.8266C9.73171 20.2074 10.5798 20.7285 11.999 20.7285C13.4182 20.7285 14.2722 20.2046 14.8963 19.8225C15.1525 19.6652 15.3737 19.5295 15.582 19.4605C16.0994 19.2894 16.5524 19.2724 16.952 19.2573C17.3945 19.2402 17.812 19.2241 18.1836 18.9675C18.339 18.8592 18.4684 18.7179 18.5626 18.5536C18.69 18.337 18.6868 18.1857 18.8063 18.0799C18.8715 18.0357 18.9437 18.0028 19.0197 17.9824C19.4171 17.8784 19.8002 17.7258 20.1603 17.5281C20.3417 17.4307 20.5051 17.3028 20.6432 17.15L20.6478 17.1445C20.9899 16.7784 21.0759 16.347 20.9356 15.9663ZM19.6742 16.6441C18.9048 17.0691 18.3934 17.0235 17.9955 17.2797C17.6575 17.4972 17.8576 17.9663 17.612 18.1356C17.3103 18.3439 16.4186 18.1209 15.2665 18.5012C14.3164 18.8153 13.7103 19.7185 12.0013 19.7185C10.2923 19.7185 9.70044 18.8171 8.73466 18.4989C7.58493 18.1186 6.69135 18.3416 6.3892 18.1333C6.14408 17.964 6.34321 17.4949 6.00565 17.2774C5.60738 17.0212 5.09598 17.0668 4.32704 16.6441C3.83725 16.3737 4.11503 16.2063 4.27829 16.1272C7.06525 14.7779 7.50997 12.6946 7.52974 12.54C7.55366 12.3529 7.58033 12.2057 7.3743 12.0153C7.17516 11.8313 6.29171 11.2845 6.04658 11.1135C5.64096 10.8302 5.46252 10.5473 5.59405 10.1996C5.68603 9.95912 5.91045 9.86852 6.14592 9.86852C6.22034 9.86874 6.29451 9.87707 6.36713 9.89335C6.81231 9.98993 7.24461 10.213 7.49433 10.2732C7.5244 10.2809 7.55527 10.2851 7.58631 10.2856C7.71968 10.2856 7.76659 10.2185 7.75739 10.0658C7.72887 9.57878 7.65989 8.62956 7.73669 7.74243C7.84201 6.52187 8.23522 5.91711 8.70247 5.38225C8.9269 5.12517 9.98144 4.01085 11.9981 4.01085C14.0147 4.01085 15.072 5.12057 15.2964 5.37673C15.7641 5.91159 16.1578 6.51635 16.2622 7.73691C16.339 8.62404 16.2728 9.57372 16.2415 10.0603C16.2309 10.2208 16.2792 10.2801 16.4126 10.2801C16.4436 10.2796 16.4745 10.2755 16.5046 10.2677C16.7548 10.2075 17.1871 9.98441 17.6322 9.88783C17.7048 9.87155 17.779 9.86323 17.8534 9.863C18.0903 9.863 18.3133 9.95498 18.4053 10.1941C18.5368 10.5418 18.3593 10.8246 17.9532 11.1079C17.7081 11.279 16.8247 11.8254 16.6255 12.0098C16.419 12.2002 16.4462 12.3473 16.4701 12.5345C16.4899 12.6913 16.9341 14.7747 19.7215 16.1217C19.8862 16.204 20.1639 16.3714 19.6742 16.6441Z" fill="black"/>
</svg>
