<svg width="24" height="24" viewBox="0 0 24 24" fill="none" xmlns="http://www.w3.org/2000/svg">
<path fill-rule="evenodd" clip-rule="evenodd" d="M17.7 4.275C16.825 4 16.025 4 14.425 4H9.575C7.975 4 7.175 4 6.3 4.275C5.83549 4.44492 5.41364 4.71415 5.0639 5.0639C4.71415 5.41365 4.44492 5.83549 4.275 6.3C4 7.165 4 7.97 4 9.57501V14.4225C4 16.025 4 16.825 4.275 17.7C4.44492 18.1645 4.71415 18.5864 5.0639 18.9361C5.41364 19.2859 5.83549 19.5551 6.3 19.725C7.165 20 7.97 20 9.575 20H14.425C16.025 20 16.825 20 17.7 19.72C18.1645 19.5501 18.5864 19.2809 18.9361 18.9311C19.2858 18.5814 19.5551 18.1595 19.725 17.695C20 16.83 20 16.025 20 14.42V9.57751C20 7.975 20 7.175 19.725 6.3C19.5551 5.83549 19.2858 5.41365 18.9361 5.0639C18.5864 4.71415 18.1645 4.44492 17.7 4.275ZM15.0674 9.94994C14.9499 10.0749 14.7424 10.0749 14.6174 9.94994L14.6224 9.95494C14.0949 9.47994 13.2874 9.13244 12.4474 9.13244C11.7874 9.13244 11.1299 9.37244 11.1299 9.97744C11.1299 10.5531 11.7329 10.7739 12.4682 11.0431C12.528 11.065 12.5886 11.0872 12.6499 11.1099C14.0749 11.6024 15.2499 12.2074 15.2499 13.6424C15.2499 15.1999 14.0699 16.2675 12.1329 16.3975L11.9579 17.245C11.9428 17.3199 11.9022 17.3874 11.8429 17.4357C11.7836 17.484 11.7094 17.5103 11.6329 17.51L10.4204 17.5C10.2129 17.4975 10.0604 17.305 10.1029 17.0975L10.2879 16.205C9.52989 15.9974 8.86489 15.6224 8.33989 15.1049C8.27638 15.0412 8.24072 14.9549 8.24072 14.8649C8.24072 14.775 8.27638 14.6887 8.33989 14.6249L9.01489 13.9499C9.04508 13.9197 9.08093 13.8957 9.12039 13.8794C9.15986 13.863 9.20217 13.8546 9.24489 13.8546C9.28762 13.8546 9.32992 13.863 9.36939 13.8794C9.40885 13.8957 9.4447 13.9197 9.47489 13.9499C10.1249 14.6024 10.9649 14.8699 11.7649 14.8699C12.6449 14.8699 13.2399 14.5049 13.2399 13.8824C13.2399 13.3355 12.7516 13.1523 11.8249 12.8045C11.7265 12.7675 11.6231 12.7287 11.5149 12.6874C10.3224 12.2599 9.19489 11.6374 9.19489 10.1874C9.19489 8.51244 10.5599 7.69494 12.1699 7.61244L12.3449 6.76744C12.3598 6.69329 12.3997 6.6265 12.458 6.57826C12.5162 6.53002 12.5893 6.50325 12.6649 6.50244H13.8749C14.0824 6.50244 14.2374 6.69744 14.1949 6.90494L13.9974 7.85494C14.6153 8.06089 15.1863 8.38716 15.6774 8.81494C15.8174 8.94994 15.8249 9.17494 15.6924 9.29994L15.0674 9.94994Z" fill="white"/>
</svg>
