<svg width="24" height="24" viewBox="0 0 24 24" fill="none" xmlns="http://www.w3.org/2000/svg">
<path d="M19.3813 9.60669C18.671 8.27649 17.2892 7.44995 15.7781 7.44995H4.38744C4.16789 7.44995 4 7.63076 4 7.85031C4 7.95362 4.03874 8.05694 4.11623 8.12151L6.59584 10.614C6.81539 10.8335 7.11243 10.9627 7.42238 10.9627H15.4553C16.0235 10.9627 16.5014 11.4147 16.5014 11.9829C16.5014 12.5512 16.0493 13.029 15.4811 13.029H9.94073C9.72118 13.029 9.55329 13.2098 9.55329 13.4294C9.55329 13.5327 9.59203 13.636 9.66952 13.7006L12.1362 16.1931C12.3558 16.4127 12.6528 16.5418 12.9628 16.5418H15.4682C18.7356 16.5418 21.2023 13.0549 19.3813 9.60669Z" fill="#FF3109"/>
</svg>
