<svg width="24" height="24" viewBox="0 0 24 24" fill="none" xmlns="http://www.w3.org/2000/svg">
<path d="M16.1799 6.65932C15.5052 6.65932 15.0239 6.95332 14.5799 7.59199L13.2999 9.42999V4.18332H10.2465V9.42999L8.96652 7.59199C8.52318 6.95332 8.04185 6.65932 7.36652 6.65932C6.34785 6.65932 5.66985 7.41132 5.66652 8.33799C5.66385 9.13132 6.03785 9.64865 6.82652 10.1567L11.7732 13.3433L16.7199 10.1567C17.5085 9.64865 17.8825 9.13132 17.8799 8.33799C17.8772 7.41132 17.1985 6.65932 16.1799 6.65932Z" fill="white"/>
<path d="M11.7735 14.1067C14.7135 14.1067 17.1235 16.3013 17.1169 19.4507H6.43019C6.42419 16.3027 8.83352 14.1067 11.7735 14.1067Z" fill="white"/>
</svg>
