<svg width="24" height="24" viewBox="0 0 24 24" fill="none" xmlns="http://www.w3.org/2000/svg">
<path d="M16.1799 6.65935C15.5052 6.65935 15.0239 6.95335 14.5799 7.59202L13.2999 9.43002V4.18335H10.2465V9.43002L8.96652 7.59202C8.52318 6.95335 8.04185 6.65935 7.36652 6.65935C6.34785 6.65935 5.66985 7.41135 5.66652 8.33802C5.66385 9.13135 6.03785 9.64868 6.82652 10.1567L11.7732 13.3433L16.7199 10.1567C17.5085 9.64868 17.8825 9.13135 17.8799 8.33802C17.8772 7.41135 17.1985 6.65935 16.1799 6.65935Z" fill="#0CAC0B"/>
<path d="M11.7735 14.1067C14.7135 14.1067 17.1235 16.3013 17.1169 19.4507H6.43019C6.42419 16.3027 8.83352 14.1067 11.7735 14.1067Z" fill="#FF7108"/>
</svg>
