<svg width="64" height="38" viewBox="0 0 64 38" fill="none" xmlns="http://www.w3.org/2000/svg">
<path d="M28.834 2.12485C28.834 0.860216 29.2512 0.236328 30.0856 0.236328C31.3849 0.236328 32.0285 0.910802 32.0285 2.27661C32.0285 3.30518 31.7901 3.81104 31.3133 3.81104C31.063 3.81104 30.9438 3.62556 30.9438 3.23773C30.9438 3.13656 30.9438 3.06912 30.9557 3.05225C31.0153 2.78246 31.0511 2.58012 31.0749 2.42837V2.25975C31.0749 1.8382 30.9557 1.619 30.7054 1.619C30.4789 1.619 30.2644 1.90565 30.0856 2.46209C30.0021 2.73188 29.9187 3.10284 29.8472 3.55811C29.728 4.35061 29.6684 5.09253 29.6684 5.78387C29.6684 6.34031 29.728 6.8293 29.8472 7.23399C30.026 7.85787 30.2882 8.16139 30.6101 8.16139C30.9796 8.16139 31.1584 7.87474 31.1584 7.30143C31.1584 7.09909 31.1465 6.94734 31.1345 6.84616C31.0273 6.39089 30.9796 6.10424 30.9796 5.95249C30.9796 5.53094 31.1107 5.34546 31.3729 5.37919C31.7663 5.42977 31.9689 5.81759 31.9689 6.55951C31.9689 7.21712 31.8021 7.85787 31.4564 8.49862C31.0392 9.29113 30.5743 9.67895 30.0856 9.67895C29.3704 9.67895 29.0128 8.98762 29.0128 7.58809L29.132 6.30659C29.1558 6.08738 29.1677 5.9019 29.1677 5.71642C29.1677 5.49722 29.1558 5.31174 29.132 5.12626C29.0485 4.53609 28.9889 4.09769 28.9532 3.81104C28.8697 3.08598 28.834 2.51268 28.834 2.12485ZM29.3108 1.70331V1.98996C29.3108 2.24289 29.3227 2.4115 29.3465 2.51267C29.3823 2.25975 29.4061 2.12485 29.4061 2.09113C29.5253 1.68645 29.5849 1.45038 29.5849 1.36607C29.4657 1.36607 29.3704 1.4841 29.3108 1.70331ZM31.3014 3.08598C31.3014 3.10284 31.3014 3.1197 31.3133 3.13656C31.4445 2.98481 31.516 2.69816 31.516 2.27661C31.516 2.00682 31.4921 1.85506 31.4564 1.8382C31.4564 1.93937 31.4087 2.32719 31.3133 3.01853C31.3014 3.03539 31.3014 3.05225 31.3014 3.08598ZM29.3346 7.21712C29.3346 7.79043 29.3942 8.12766 29.5253 8.2457C29.43 7.65553 29.3823 6.87989 29.3704 5.91876C29.3465 6.42462 29.3346 6.86303 29.3346 7.21712ZM31.4087 6.22228H31.4325C31.4087 6.08738 31.3729 5.98621 31.3133 5.91876C31.3014 5.93563 31.3014 5.96935 31.3014 5.98621C31.3014 6.13797 31.3372 6.22228 31.4087 6.22228ZM31.3014 8.00963C31.3014 8.02649 31.3014 8.02649 31.3133 8.02649C31.3968 7.95905 31.4325 7.84101 31.4325 7.65553V7.60495C31.3491 7.82415 31.3014 7.95904 31.3014 8.00963Z" fill="white"/>
<path d="M29.3108 1.70331V1.98996C29.3108 2.24289 29.3227 2.4115 29.3465 2.51267C29.3823 2.25975 29.4061 2.12485 29.4061 2.09113C29.5253 1.68645 29.5849 1.45038 29.5849 1.36607C29.4657 1.36607 29.3704 1.4841 29.3108 1.70331Z" fill="white"/>
<path d="M29.3346 7.21712C29.3346 7.79043 29.3942 8.12766 29.5253 8.2457C29.43 7.65553 29.3823 6.87989 29.3704 5.91876C29.3465 6.42462 29.3346 6.86303 29.3346 7.21712Z" fill="white"/>
<path d="M31.3014 8.00963C31.3014 8.02649 31.3014 8.02649 31.3133 8.02649C31.3968 7.95905 31.4325 7.84101 31.4325 7.65553V7.60495C31.3491 7.82415 31.3014 7.95904 31.3014 8.00963Z" fill="white"/>
<path d="M31.4087 6.22228H31.4325C31.4087 6.08738 31.3729 5.98621 31.3133 5.91876C31.3014 5.93563 31.3014 5.96935 31.3014 5.98621C31.3014 6.13797 31.3372 6.22228 31.4087 6.22228Z" fill="white"/>
<path d="M31.3014 3.08598C31.3014 3.10284 31.3014 3.1197 31.3133 3.13656C31.4445 2.98481 31.516 2.69816 31.516 2.27661C31.516 2.00682 31.4921 1.85506 31.4564 1.8382C31.4564 1.93937 31.4087 2.32719 31.3133 3.01853C31.3014 3.03539 31.3014 3.05225 31.3014 3.08598Z" fill="white"/>
</svg>
