<svg width="64" height="38" viewBox="0 0 64 38" fill="none" xmlns="http://www.w3.org/2000/svg">
<path d="M6.67002 27.8853C6.68194 27.8684 6.72962 27.8516 6.80114 27.8516C7.11106 27.8516 7.26602 28.2057 7.26602 28.897C7.26602 28.9139 7.21834 29.1836 7.11106 29.7064C7.0753 29.9256 7.05146 30.1448 7.05146 30.3977V30.7181C7.11106 31.0384 7.24218 31.1902 7.44482 31.1902C7.76666 31.1902 7.92162 30.971 7.92162 30.5495V29.3691C7.92162 28.8127 8.12426 28.526 8.52953 28.526C8.73217 28.526 8.83945 28.6778 8.83945 28.9813V29.1162C8.55337 30.1785 8.41033 30.9204 8.41033 31.342C8.41033 32.0839 8.46993 32.6403 8.60105 33.0281C8.86329 33.8544 8.99441 34.4614 8.99441 34.8661C8.99441 35.7935 8.74409 36.2488 8.24345 36.2488C7.88586 36.2488 7.70706 36.0296 7.70706 35.608V34.7143C7.70706 34.4277 7.6117 34.2928 7.40906 34.2928C7.24218 34.2928 7.1349 34.4614 7.08722 34.7986C7.02762 35.1527 6.97994 35.4057 6.93226 35.5237C6.82498 35.8103 6.64618 35.9452 6.4197 35.9452C6.02634 35.9452 5.8237 35.5911 5.8237 34.8661C5.8237 34.6469 5.83562 34.4783 5.85946 34.3434C5.96674 33.6858 6.01442 33.2305 6.01442 32.9944C6.01442 32.5054 5.90714 31.6623 5.68066 30.4989V30.2291C5.68066 29.4534 6.01442 28.6778 6.67002 27.8853ZM6.09786 30.1448C6.09786 30.2628 6.14554 30.4314 6.25282 30.6675C6.27666 30.2459 6.33626 29.7569 6.43162 29.2005H6.40778C6.20514 29.2005 6.09786 29.5209 6.09786 30.1448ZM8.24345 29.4872V29.6558C8.30305 29.6221 8.33881 29.504 8.33881 29.3017C8.33881 29.2511 8.32689 29.2174 8.30305 29.2005C8.26729 29.2342 8.24345 29.3354 8.24345 29.4872ZM8.06465 30.971L8.10042 31.0047C8.16001 30.7855 8.18386 30.6 8.18386 30.4483V30.3302C8.17194 30.3471 8.13617 30.5495 8.06465 30.971ZM6.51506 32.556C6.51506 32.9776 6.49122 33.2136 6.45546 33.2811L6.39586 33.2473C6.4197 33.2811 6.43162 33.3317 6.43162 33.3991L6.39586 33.5846C6.37202 33.7026 6.34818 33.8375 6.33626 33.9555C6.32434 33.9724 6.31242 34.0061 6.31242 34.0904H6.28858C6.28858 34.141 6.28858 34.2085 6.27666 34.2591L6.2409 34.6975C6.2409 34.7818 6.2409 34.8324 6.25282 34.8492L6.31242 34.9335C6.3005 34.8492 6.3005 34.7649 6.33626 34.7143L6.39586 34.7649C6.39586 34.748 6.4197 34.5963 6.45546 34.2928V34.2759C6.45546 34.2591 6.44354 34.2253 6.43162 34.2085C6.44354 34.1916 6.4793 34.1242 6.51506 34.0399C6.69386 33.416 6.76538 33.0113 6.75346 32.8258L6.81306 32.8595L6.75346 32.7415C6.74154 32.7078 6.75346 32.6909 6.78922 32.6909C6.81306 32.6909 6.8369 32.7078 6.84882 32.7415V32.5223L6.31242 30.9204H6.27666C6.27666 30.971 6.3005 31.0722 6.33626 31.2577C6.45546 31.8984 6.51506 32.3368 6.51506 32.556ZM8.21961 34.7649V34.7986H8.16002C8.12426 34.7986 8.11234 34.9673 8.11234 35.2876C8.19577 35.2876 8.24345 35.1527 8.24345 34.8661C8.24345 34.8155 8.23153 34.7818 8.21961 34.7649Z" fill="white"/>
<path d="M6.51506 32.556C6.51506 32.9776 6.49122 33.2136 6.45546 33.2811L6.39586 33.2473C6.4197 33.2811 6.43162 33.3317 6.43162 33.3991L6.39586 33.5846C6.37202 33.7026 6.34818 33.8375 6.33626 33.9555C6.32434 33.9724 6.31242 34.0061 6.31242 34.0904H6.28858C6.28858 34.141 6.28858 34.2085 6.27666 34.2591L6.2409 34.6975C6.2409 34.7818 6.2409 34.8324 6.25282 34.8492L6.31242 34.9335C6.3005 34.8492 6.3005 34.7649 6.33626 34.7143L6.39586 34.7649C6.39586 34.748 6.4197 34.5963 6.45546 34.2928V34.2759C6.45546 34.2591 6.44354 34.2253 6.43162 34.2085C6.44354 34.1916 6.4793 34.1242 6.51506 34.0399C6.69386 33.416 6.76538 33.0113 6.75346 32.8258L6.81306 32.8595L6.75346 32.7415C6.74154 32.7078 6.75346 32.6909 6.78922 32.6909C6.81306 32.6909 6.8369 32.7078 6.84882 32.7415V32.5223L6.31242 30.9204H6.27666C6.27666 30.971 6.3005 31.0722 6.33626 31.2577C6.45546 31.8984 6.51506 32.3368 6.51506 32.556Z" fill="white"/>
<path d="M6.09786 30.1448C6.09786 30.2628 6.14554 30.4314 6.25282 30.6675C6.27666 30.2459 6.33626 29.7569 6.43162 29.2005H6.40778C6.20514 29.2005 6.09786 29.5209 6.09786 30.1448Z" fill="white"/>
<path d="M8.21961 34.7649V34.7986H8.16002C8.12426 34.7986 8.11234 34.9673 8.11234 35.2876C8.19577 35.2876 8.24345 35.1527 8.24345 34.8661C8.24345 34.8155 8.23153 34.7818 8.21961 34.7649Z" fill="white"/>
<path d="M8.06465 30.971L8.10042 31.0047C8.16001 30.7855 8.18386 30.6 8.18386 30.4483V30.3302C8.17194 30.3471 8.13617 30.5495 8.06465 30.971Z" fill="white"/>
<path d="M8.24345 29.4872V29.6558C8.30305 29.6221 8.33881 29.504 8.33881 29.3017C8.33881 29.2511 8.32689 29.2174 8.30305 29.2005C8.26729 29.2342 8.24345 29.3354 8.24345 29.4872Z" fill="white"/>
</svg>
