<svg width="64" height="38" viewBox="0 0 64 38" fill="none" xmlns="http://www.w3.org/2000/svg">
<path d="M43.5244 15.991C43.5244 14.2711 44.0608 13.4111 45.1336 13.4111C46.111 13.4111 46.5998 13.8833 46.5998 14.8444V15.0467C46.3018 16.1596 46.1468 16.9184 46.1468 17.3231C46.1468 17.7952 46.2779 18.436 46.5402 19.2285C46.6594 19.5657 46.7428 19.8186 46.8024 19.9872C46.8858 20.2402 46.9216 20.5437 46.9216 20.8809C46.9216 22.3142 46.4806 23.0224 45.5866 23.0224C44.3826 23.0224 43.7867 22.2467 43.7867 20.7123C43.7867 20.4425 43.7867 20.2908 43.7986 20.2402C43.8105 20.0547 43.8224 19.9029 43.8224 19.8186V19.2453C43.8224 18.6552 43.7867 18.0819 43.7032 17.5423C43.584 16.7329 43.5244 16.2102 43.5244 15.991ZM44.6568 15.1816C44.6568 15.4008 44.7522 15.9573 44.931 16.8678V17.0701C44.931 17.1207 44.8475 17.4917 44.6926 18.2168C44.5853 18.672 44.5376 19.0598 44.5376 19.4139C44.5376 19.8355 44.5853 20.2402 44.6926 20.6111C44.931 21.5217 45.2409 21.9769 45.6104 21.9769C45.968 21.9769 46.1468 21.6734 46.1468 21.0833C46.1468 20.8135 46.111 20.5268 46.0276 20.2402C45.6819 19.043 45.515 18.1156 45.515 17.458C45.515 17.3905 45.515 17.3231 45.527 17.2388C45.6581 16.5137 45.7296 15.9404 45.7296 15.502C45.7296 14.6758 45.5389 14.2542 45.1574 14.2542C44.8237 14.2542 44.6568 14.5577 44.6568 15.1816ZM46.0634 14.9287H46.0991C46.0991 14.6252 46.0038 14.406 45.825 14.2542L45.813 14.2711L45.9442 14.5915C45.9799 14.7095 46.0276 14.8107 46.0634 14.9287ZM43.882 15.131C43.882 15.2153 43.8939 15.2491 43.9178 15.2659C43.8582 15.9573 43.9416 16.5306 44.1562 16.9858V16.5643L44.1204 15.7549C44.1204 15.502 44.1323 15.2659 44.1562 15.013V14.9624C44.1562 14.9118 44.1442 14.8275 44.1204 14.7095H44.1085C43.9535 14.7095 43.882 14.8444 43.882 15.131ZM45.7654 16.9015V16.9521L45.7296 17.2219C45.7296 17.3737 45.7654 17.6435 45.825 18.0481C45.9322 18.7563 46.0157 19.1273 46.0872 19.1779C45.9084 18.4191 45.813 17.8289 45.813 17.4242C45.813 17.3231 45.813 17.2556 45.825 17.2388L46.0634 15.6369V15.4683C46.0395 15.4851 46.0038 15.6538 45.9442 15.9404L45.7654 16.9015ZM44.1204 20.0884V20.7797C44.1562 21.0833 44.2158 21.2519 44.2754 21.2856V21.117C44.1919 20.3582 44.1681 19.6331 44.18 18.9249L44.1562 18.9755C44.1323 19.0093 44.1204 19.3802 44.1204 20.0884ZM46.1706 21.9938C46.1706 22.0275 46.1945 22.0612 46.2422 22.095C46.4448 21.8589 46.5402 21.5048 46.5402 21.0327C46.5402 20.9821 46.5282 20.8641 46.5044 20.6954C46.4925 20.8809 46.3852 21.3025 46.1826 21.9601C46.1706 21.9769 46.1706 21.9769 46.1706 21.9938Z" fill="white"/>
<path d="M46.0634 14.9287H46.0991C46.0991 14.6252 46.0038 14.406 45.825 14.2542L45.813 14.2711L45.9442 14.5915C45.9799 14.7095 46.0276 14.8107 46.0634 14.9287Z" fill="white"/>
<path d="M45.7654 16.9015V16.9521L45.7296 17.2219C45.7296 17.3737 45.7654 17.6435 45.825 18.0481C45.9322 18.7563 46.0157 19.1273 46.0872 19.1779C45.9084 18.4191 45.813 17.8289 45.813 17.4242C45.813 17.3231 45.813 17.2556 45.825 17.2388L46.0634 15.6369V15.4683C46.0395 15.4851 46.0038 15.6538 45.9442 15.9404L45.7654 16.9015Z" fill="white"/>
<path d="M46.1706 21.9938C46.1706 22.0275 46.1945 22.0612 46.2422 22.095C46.4448 21.8589 46.5402 21.5048 46.5402 21.0327C46.5402 20.9821 46.5282 20.8641 46.5044 20.6954C46.4925 20.8809 46.3852 21.3025 46.1826 21.9601C46.1706 21.9769 46.1706 21.9769 46.1706 21.9938Z" fill="white"/>
<path d="M44.1204 20.0884V20.7797C44.1562 21.0833 44.2158 21.2519 44.2754 21.2856V21.117C44.1919 20.3582 44.1681 19.6331 44.18 18.9249L44.1562 18.9755C44.1323 19.0093 44.1204 19.3802 44.1204 20.0884Z" fill="white"/>
<path d="M43.882 15.131C43.882 15.2153 43.8939 15.2491 43.9178 15.2659C43.8582 15.9573 43.9416 16.5306 44.1562 16.9858V16.5643L44.1204 15.7549C44.1204 15.502 44.1323 15.2659 44.1562 15.013V14.9624C44.1562 14.9118 44.1442 14.8275 44.1204 14.7095H44.1085C43.9535 14.7095 43.882 14.8444 43.882 15.131Z" fill="white"/>
</svg>
