<svg width="64" height="38" viewBox="0 0 64 38" fill="none" xmlns="http://www.w3.org/2000/svg">
<path d="M4.38867 15.991C4.38867 14.2711 4.92507 13.4111 5.99787 13.4111C6.9753 13.4111 7.46402 13.8833 7.46402 14.8444V15.0467C7.16602 16.1596 7.01106 16.9184 7.01106 17.3231C7.01106 17.7952 7.14218 18.436 7.40442 19.2285C7.52362 19.5657 7.60706 19.8186 7.66666 19.9872C7.7501 20.2402 7.78586 20.5437 7.78586 20.8809C7.78586 22.3142 7.34482 23.0224 6.45082 23.0224C5.24691 23.0224 4.65091 22.2467 4.65091 20.7123C4.65091 20.4425 4.65091 20.2908 4.66283 20.2402C4.67475 20.0547 4.68667 19.9029 4.68667 19.8186V19.2453C4.68667 18.6552 4.65091 18.0819 4.56747 17.5423C4.44827 16.7329 4.38867 16.2102 4.38867 15.991ZM5.52107 15.1816C5.52107 15.4008 5.61643 15.9573 5.79523 16.8678V17.0701C5.79523 17.1207 5.71179 17.4917 5.55683 18.2168C5.44955 18.672 5.40187 19.0598 5.40187 19.4139C5.40187 19.8355 5.44955 20.2402 5.55683 20.6111C5.79523 21.5217 6.10515 21.9769 6.47466 21.9769C6.83226 21.9769 7.01106 21.6734 7.01106 21.0833C7.01106 20.8135 6.9753 20.5268 6.89186 20.2402C6.54618 19.043 6.3793 18.1156 6.3793 17.458C6.3793 17.3905 6.3793 17.3231 6.39122 17.2388C6.52234 16.5137 6.59386 15.9404 6.59386 15.502C6.59386 14.6758 6.40314 14.2542 6.02171 14.2542C5.68795 14.2542 5.52107 14.5577 5.52107 15.1816ZM6.92762 14.9287H6.96338C6.96338 14.6252 6.86802 14.406 6.68922 14.2542L6.6773 14.2711L6.80842 14.5915C6.84418 14.7095 6.89186 14.8107 6.92762 14.9287ZM4.74627 15.131C4.74627 15.2153 4.75819 15.2491 4.78203 15.2659C4.72243 15.9573 4.80587 16.5306 5.02043 16.9858V16.5643L4.98467 15.7549C4.98467 15.502 4.99659 15.2659 5.02043 15.013V14.9624C5.02043 14.9118 5.00851 14.8275 4.98467 14.7095H4.97275C4.81779 14.7095 4.74627 14.8444 4.74627 15.131ZM6.62962 16.9015V16.9521L6.59386 17.2219C6.59386 17.3737 6.62962 17.6435 6.68922 18.0481C6.7965 18.7563 6.87994 19.1273 6.95146 19.1779C6.77266 18.4191 6.6773 17.8289 6.6773 17.4242C6.6773 17.3231 6.6773 17.2556 6.68922 17.2388L6.92762 15.6369V15.4683C6.90378 15.4851 6.86802 15.6538 6.80842 15.9404L6.62962 16.9015ZM4.98467 20.0884V20.7797C5.02043 21.0833 5.08003 21.2519 5.13963 21.2856V21.117C5.05619 20.3582 5.03235 19.6331 5.04427 18.9249L5.02043 18.9755C4.99659 19.0093 4.98467 19.3802 4.98467 20.0884ZM7.0349 21.9938C7.0349 22.0275 7.05874 22.0612 7.10642 22.095C7.30906 21.8589 7.40442 21.5048 7.40442 21.0327C7.40442 20.9821 7.3925 20.8641 7.36866 20.6954C7.35674 20.8809 7.24946 21.3025 7.04682 21.9601C7.0349 21.9769 7.0349 21.9769 7.0349 21.9938Z" fill="white"/>
<path d="M4.74627 15.131C4.74627 15.2153 4.75819 15.2491 4.78203 15.2659C4.72243 15.9573 4.80587 16.5306 5.02043 16.9858V16.5643L4.98467 15.7549C4.98467 15.502 4.99659 15.2659 5.02043 15.013V14.9624C5.02043 14.9118 5.00851 14.8275 4.98467 14.7095H4.97275C4.81779 14.7095 4.74627 14.8444 4.74627 15.131Z" fill="white"/>
<path d="M6.62962 16.9015V16.9521L6.59386 17.2219C6.59386 17.3737 6.62962 17.6435 6.68922 18.0481C6.7965 18.7563 6.87994 19.1273 6.95146 19.1779C6.77266 18.4191 6.6773 17.8289 6.6773 17.4242C6.6773 17.3231 6.6773 17.2556 6.68922 17.2388L6.92762 15.6369V15.4683C6.90378 15.4851 6.86802 15.6538 6.80842 15.9404L6.62962 16.9015Z" fill="white"/>
<path d="M6.92762 14.9287H6.96338C6.96338 14.6252 6.86802 14.406 6.68922 14.2542L6.6773 14.2711L6.80842 14.5915C6.84418 14.7095 6.89186 14.8107 6.92762 14.9287Z" fill="white"/>
<path d="M4.98467 20.0884V20.7797C5.02043 21.0833 5.08003 21.2519 5.13963 21.2856V21.117C5.05619 20.3582 5.03235 19.6331 5.04427 18.9249L5.02043 18.9755C4.99659 19.0093 4.98467 19.3802 4.98467 20.0884Z" fill="white"/>
<path d="M7.0349 21.9938C7.0349 22.0275 7.05874 22.0612 7.10642 22.095C7.30906 21.8589 7.40442 21.5048 7.40442 21.0327C7.40442 20.9821 7.3925 20.8641 7.36866 20.6954C7.35674 20.8809 7.24946 21.3025 7.04682 21.9601C7.0349 21.9769 7.0349 21.9769 7.0349 21.9938Z" fill="white"/>
</svg>
