<svg width="64" height="38" viewBox="0 0 64 38" fill="none" xmlns="http://www.w3.org/2000/svg">
<path d="M16.1865 29.5883C16.1865 28.0876 16.7348 27.3457 17.8196 27.3457C18.3083 27.3457 18.5467 27.5986 18.5467 28.1213C18.5467 28.3743 18.3202 28.8464 17.8553 29.5377C17.8076 29.6052 17.76 29.6895 17.7123 29.7907C17.4381 30.3134 17.2951 30.8192 17.2951 31.3082V33.163C17.2951 34.3939 17.5812 35.0178 18.1652 35.0178C18.4871 35.0178 18.6659 34.748 18.6897 34.2085C18.7016 33.8544 18.7136 33.5171 18.7255 33.163C18.7612 32.7415 18.8924 32.5223 19.1308 32.5223C19.4407 32.5223 19.6433 32.8089 19.7387 33.3654C19.8221 33.8544 19.8579 34.2759 19.8579 34.5963C19.8579 35.7598 19.5837 36.3331 19.0235 36.3331H18.9281C18.6897 36.2656 18.5109 36.215 18.3917 36.1982H18.2487C18.0699 36.1982 17.7719 36.3331 17.3785 36.586H17.0567C16.7587 36.586 16.6037 36.1307 16.6037 35.2033L16.6633 33.9218V33.8038C16.6633 33.3991 16.6156 32.8932 16.5203 32.2694C16.413 31.7804 16.3415 31.3925 16.3057 31.1396C16.2223 30.5326 16.1865 30.0099 16.1865 29.5883ZM16.6872 29.4703C16.6872 29.7569 16.6991 29.9087 16.7229 29.9087H16.7587C16.8183 29.6221 16.9375 29.2342 17.1401 28.7284C17.164 28.6778 17.1759 28.6441 17.1759 28.6103V28.5598C16.854 28.6778 16.6872 28.9813 16.6872 29.4703ZM17.152 35.5237C17.1878 35.5237 17.1997 35.49 17.1997 35.4225V35.3551C17.0567 34.3602 16.9732 33.6014 16.9375 33.0787C16.9256 33.1462 16.9256 33.2136 16.9256 33.2811C16.9256 33.5677 16.9494 34.0904 16.9971 34.8492C17.0209 35.3045 17.0686 35.5237 17.152 35.5237ZM19.1069 33.1968L19.0831 33.2473V34.4277C19.0831 34.8661 18.8924 35.237 18.5109 35.5237C18.499 35.5406 18.4871 35.5405 18.4871 35.5574C18.4871 35.5743 18.4871 35.5743 18.499 35.5743C18.9877 35.5743 19.2261 35.119 19.2261 34.2253C19.2261 33.6183 19.1904 33.2811 19.1069 33.1968Z" fill="white"/>
<path d="M17.152 35.5237C17.1878 35.5237 17.1997 35.49 17.1997 35.4225V35.3551C17.0567 34.3602 16.9732 33.6014 16.9375 33.0787C16.9256 33.1462 16.9256 33.2136 16.9256 33.2811C16.9256 33.5677 16.9494 34.0904 16.9971 34.8492C17.0209 35.3045 17.0686 35.5237 17.152 35.5237Z" fill="white"/>
<path d="M19.1069 33.1968L19.0831 33.2473V34.4277C19.0831 34.8661 18.8924 35.237 18.5109 35.5237C18.499 35.5406 18.4871 35.5405 18.4871 35.5574C18.4871 35.5743 18.4871 35.5743 18.499 35.5743C18.9877 35.5743 19.2261 35.119 19.2261 34.2253C19.2261 33.6183 19.1904 33.2811 19.1069 33.1968Z" fill="white"/>
<path d="M16.6872 29.4703C16.6872 29.7569 16.6991 29.9087 16.7229 29.9087H16.7587C16.8183 29.6221 16.9375 29.2342 17.1401 28.7284C17.164 28.6778 17.1759 28.6441 17.1759 28.6103V28.5598C16.854 28.6778 16.6872 28.9813 16.6872 29.4703Z" fill="white"/>
</svg>
