<svg width="64" height="38" viewBox="0 0 64 38" fill="none" xmlns="http://www.w3.org/2000/svg">
<path d="M32.4658 1.75324C32.4658 1.02819 32.7161 0.657227 33.2287 0.657227C33.7532 0.657227 34.0154 0.977601 34.0154 1.63521V1.78697C34.0035 1.97245 33.9916 2.09048 33.9916 2.17479C33.9797 2.20851 33.9797 2.32655 33.9797 2.51203C33.9797 2.63006 33.9797 2.73123 33.9916 2.84926C34.0512 3.22022 34.2061 3.4057 34.4445 3.4057C34.6829 3.4057 34.9332 3.00102 35.2074 2.17479C35.2432 2.0399 35.2909 1.92186 35.3266 1.83755C35.422 1.58463 35.565 1.44973 35.7557 1.44973C36.0299 1.44973 36.161 1.66894 36.161 2.12421C36.161 2.39399 35.9941 2.91671 35.6604 3.69235C35.6246 3.74294 35.5531 3.94528 35.422 4.28252C35.2909 4.58603 35.2312 4.90641 35.2312 5.22678C35.2312 5.98556 35.5531 6.44083 36.1968 6.55887L36.8166 6.6769C37.1146 6.86238 37.2696 7.21648 37.2696 7.72233C37.2696 8.54856 36.9954 8.97011 36.4352 8.97011C36.2921 8.97011 36.1252 8.8858 35.9226 8.70032C35.3862 8.22819 35.0882 7.99212 35.0286 7.99212C34.7783 7.99212 34.6472 8.19446 34.6114 8.61601C34.5637 9.18931 34.5399 9.50968 34.528 9.56027C34.3611 10.0661 34.1346 10.3191 33.8485 10.3191C33.2883 10.3191 33.0022 9.83006 33.0022 8.85207C33.0022 8.61601 33.0976 7.94154 33.3002 6.81179C33.3241 6.55887 33.336 6.39025 33.336 6.27221C33.336 5.6146 33.2168 4.83896 32.9784 3.94528C32.8115 3.43943 32.6923 3.05161 32.6208 2.79868C32.5135 2.46144 32.4658 2.10734 32.4658 1.75324ZM32.9426 1.65207C32.9426 1.83755 32.9903 1.97245 33.0976 2.09048C33.1333 2.07362 33.1572 1.95559 33.1572 1.75324C33.1572 1.58463 33.1095 1.50032 33.0022 1.50032C32.9665 1.50032 32.9426 1.5509 32.9426 1.65207ZM35.6008 2.17479L35.1836 3.30453V3.43943C35.5054 3.05161 35.6604 2.63006 35.6604 2.17479H35.6008ZM33.932 5.0413V5.37854C33.932 6.06987 33.8009 7.08158 33.5386 8.41367V8.86894C33.5386 8.93638 33.5744 8.97011 33.634 8.97011C33.6817 8.97011 33.7055 8.90266 33.7174 8.78463C33.777 8.1776 33.932 7.51999 34.1704 6.81179C34.1585 6.79493 34.1704 6.74435 34.1942 6.6769C34.2181 6.62631 34.23 6.542 34.23 6.44083C34.23 5.6146 34.1465 4.99072 33.9916 4.56917C33.777 4.14762 33.6221 3.86097 33.5148 3.72608C33.5148 3.81039 33.6459 4.19821 33.8962 4.90641C33.9081 4.95699 33.9201 4.99072 33.932 5.0413Z" fill="white"/>
<path d="M32.9426 1.65207C32.9426 1.83755 32.9903 1.97245 33.0976 2.09048C33.1333 2.07362 33.1572 1.95559 33.1572 1.75324C33.1572 1.58463 33.1095 1.50032 33.0022 1.50032C32.9665 1.50032 32.9426 1.5509 32.9426 1.65207Z" fill="white"/>
<path d="M33.932 5.0413V5.37854C33.932 6.06987 33.8009 7.08158 33.5386 8.41367V8.86894C33.5386 8.93638 33.5744 8.97011 33.634 8.97011C33.6817 8.97011 33.7055 8.90266 33.7174 8.78463C33.777 8.1776 33.932 7.51999 34.1704 6.81179C34.1585 6.79493 34.1704 6.74435 34.1942 6.6769C34.2181 6.62631 34.23 6.542 34.23 6.44083C34.23 5.6146 34.1465 4.99072 33.9916 4.56917C33.777 4.14762 33.6221 3.86097 33.5148 3.72608C33.5148 3.81039 33.6459 4.19821 33.8962 4.90641C33.9081 4.95699 33.9201 4.99072 33.932 5.0413Z" fill="white"/>
<path d="M35.6008 2.17479L35.1836 3.30453V3.43943C35.5054 3.05161 35.6604 2.63006 35.6604 2.17479H35.6008Z" fill="white"/>
</svg>
