<svg width="64" height="38" viewBox="0 0 64 38" fill="none" xmlns="http://www.w3.org/2000/svg">
<path d="M32.2559 14.9293C32.2559 13.7996 32.7565 13.2432 33.7459 13.2432C35.4385 13.2432 36.2848 14.3729 36.2848 16.6493C36.2848 18.2849 35.8795 19.1111 35.0809 19.1111C34.9736 19.1111 34.8186 19.0774 34.616 19.0099C34.5087 18.993 34.4253 18.9762 34.3657 18.9762C33.9127 18.9762 33.6862 19.2797 33.6862 19.8867C33.6862 20.0385 33.7816 20.4094 33.9843 21.0333C33.9962 21.0839 34.02 21.1682 34.0438 21.2525C34.163 21.7247 34.2226 22.0956 34.2226 22.3654C34.2226 23.1748 33.9247 23.5795 33.3167 23.5795C32.8757 23.5795 32.6135 23.3097 32.53 22.7701C32.5181 22.6689 32.5181 22.5678 32.5181 22.4497C32.5181 22.1968 32.5419 21.9945 32.5896 21.8427C32.8638 20.8478 33.0068 20.1902 33.0068 19.853C33.0068 18.9762 32.9353 18.2005 32.7923 17.5429C32.6373 16.9696 32.4823 16.3963 32.3512 15.8062C32.2916 15.5532 32.2559 15.2666 32.2559 14.9293ZM32.5181 14.7776C32.5181 15.216 32.5896 15.4352 32.7207 15.4352V15.2666C32.7565 15.334 32.7923 15.3678 32.8161 15.3678C32.8161 15.1148 32.8638 14.7607 32.9472 14.3392C32.9115 14.3223 32.8995 14.2886 32.8876 14.2549C32.8519 14.1706 32.8399 14.12 32.828 14.12C32.6254 14.12 32.5181 14.3392 32.5181 14.7776ZM35.057 14.5078H35.0928C34.9617 14.2886 34.8425 14.1706 34.759 14.12C34.914 14.3729 35.0213 14.5078 35.057 14.5078ZM33.5313 15.1654C33.5313 15.5027 33.6147 16.076 33.7816 16.9022C33.9366 17.7621 34.2465 18.1837 34.6875 18.1837C35.0809 18.1837 35.2716 17.8464 35.2716 17.172C35.2716 16.8516 35.1762 16.4132 34.9974 15.8567C34.6637 14.8113 34.3418 14.2886 34.0319 14.2886C33.6982 14.2886 33.5313 14.5753 33.5313 15.1654ZM35.6888 16.9865L35.5815 17.3743V17.1551L35.5338 17.2057C35.4742 17.5598 35.3789 17.8802 35.2716 18.1668V18.2174C35.2835 18.2005 35.3312 18.1162 35.3908 17.9982H35.4146C35.355 18.1837 35.2716 18.3523 35.1524 18.5041C35.1643 18.5209 35.1643 18.5209 35.1762 18.5209C35.5219 18.5209 35.6888 18.0994 35.6888 17.2394V16.9865ZM33.3883 18.4703C33.4479 18.4197 33.4836 18.3354 33.4836 18.2174C33.4836 18.0151 33.4002 17.7115 33.2452 17.29C33.2333 17.3406 33.2333 17.3912 33.2333 17.4418C33.2333 18.0319 33.281 18.386 33.3883 18.4703ZM32.8519 21.9607H32.9472C32.9591 22.2811 33.0187 22.4329 33.126 22.4329C33.2571 22.4329 33.3167 22.1631 33.3287 21.6235V19.9036L33.3048 19.8193C33.1499 20.6455 33.0187 21.3031 32.8876 21.7921C32.8638 21.8764 32.8519 21.9439 32.8519 21.9607Z" fill="white"/>
<path d="M32.5181 14.7776C32.5181 15.216 32.5896 15.4352 32.7207 15.4352V15.2666C32.7565 15.334 32.7923 15.3678 32.8161 15.3678C32.8161 15.1148 32.8638 14.7607 32.9472 14.3392C32.9115 14.3223 32.8995 14.2886 32.8876 14.2549C32.8519 14.1706 32.8399 14.12 32.828 14.12C32.6254 14.12 32.5181 14.3392 32.5181 14.7776Z" fill="white"/>
<path d="M35.057 14.5078H35.0928C34.9617 14.2886 34.8425 14.1706 34.759 14.12C34.914 14.3729 35.0213 14.5078 35.057 14.5078Z" fill="white"/>
<path d="M33.3883 18.4703C33.4479 18.4197 33.4836 18.3354 33.4836 18.2174C33.4836 18.0151 33.4002 17.7115 33.2452 17.29C33.2333 17.3406 33.2333 17.3912 33.2333 17.4418C33.2333 18.0319 33.281 18.386 33.3883 18.4703Z" fill="white"/>
<path d="M35.6888 16.9865L35.5815 17.3743V17.1551L35.5338 17.2057C35.4742 17.5598 35.3789 17.8802 35.2716 18.1668V18.2174C35.2835 18.2005 35.3312 18.1162 35.3908 17.9982H35.4146C35.355 18.1837 35.2716 18.3523 35.1524 18.5041C35.1643 18.5209 35.1643 18.5209 35.1762 18.5209C35.5219 18.5209 35.6888 18.0994 35.6888 17.2394V16.9865Z" fill="white"/>
<path d="M32.8519 21.9607H32.9472C32.9591 22.2811 33.0187 22.4329 33.126 22.4329C33.2571 22.4329 33.3167 22.1631 33.3287 21.6235V19.9036L33.3048 19.8193C33.1499 20.6455 33.0187 21.3031 32.8876 21.7921C32.8638 21.8764 32.8519 21.9439 32.8519 21.9607Z" fill="white"/>
</svg>
