<svg width="64" height="38" viewBox="0 0 64 38" fill="none" xmlns="http://www.w3.org/2000/svg">
<path d="M20.2549 15.4685C20.2549 13.9172 20.684 13.1416 21.5542 13.1416C22.5197 13.1416 22.9965 13.8329 22.9965 15.2325V15.5866C22.925 15.9238 22.6389 16.5814 22.1382 17.5594C21.9594 18.0484 21.8641 18.4531 21.8641 18.7735C21.8641 18.9927 21.876 19.1444 21.8998 19.2456C21.9952 19.7009 22.1025 20.1393 22.2217 20.5608C22.3766 21.151 22.6508 21.4545 23.0203 21.4545C23.5329 21.4545 23.8428 21.0498 23.9262 20.2236V19.2119C23.8905 18.7397 23.8785 18.3856 23.8666 18.1496C23.8547 18.1158 23.8547 18.0147 23.8547 17.8292C23.8547 17.6606 23.8547 17.5594 23.8666 17.5257C23.9143 17.0535 23.9381 16.6994 23.9501 16.4634C23.9739 15.9407 23.9858 15.4348 23.9858 14.9121C24.0693 13.8498 24.3792 13.3102 24.8917 13.3102C25.2374 13.3102 25.4758 13.6812 25.6189 14.44C25.6785 14.7603 25.7142 15.1482 25.7142 15.5697C25.7142 16.0924 25.6546 16.5646 25.5354 16.9692C25.3566 17.5931 25.1659 18.217 24.9633 18.824C24.8917 19.1613 24.7845 20.0044 24.6414 21.3533C24.5103 22.1795 24.1289 22.5842 23.4733 22.5842C22.5078 22.5842 21.8879 22.0784 21.6018 21.0667C21.4469 20.5271 21.2919 19.9706 21.1489 19.4142C21.0893 19.195 21.0535 18.7397 21.0654 18.0315C21.0297 17.7955 20.9582 17.5763 20.8509 17.3571L20.4694 16.5477C20.3264 16.1936 20.2549 15.8226 20.2549 15.4685ZM24.5461 14.6929C24.5461 15.2156 24.5341 15.7215 24.5222 16.2105C24.5103 16.2779 24.4984 16.3791 24.4865 16.514C24.3792 17.3402 24.3315 17.8292 24.3315 17.9978C24.3911 17.9978 24.4149 17.9809 24.4269 17.9472C24.6533 16.8681 24.7606 15.9069 24.7606 15.0638V14.5243C24.7368 14.44 24.7129 14.4062 24.6772 14.4062C24.6295 14.4062 24.5818 14.5074 24.5461 14.6929ZM20.8509 15.2662C20.8509 15.536 20.9343 15.6709 21.0893 15.6709C21.1846 15.6709 21.2323 15.6203 21.2323 15.536C21.3396 15.536 21.3873 15.3505 21.3873 14.9795C21.3873 14.6592 21.3515 14.4905 21.2681 14.4905C20.9939 14.4905 20.8509 14.7435 20.8509 15.2662ZM21.4111 18.7229C21.4111 18.8409 21.4111 18.9252 21.423 18.9589L21.4469 19.0432V18.2339C21.423 18.2845 21.4111 18.4531 21.4111 18.7229ZM24.0693 21.2184V21.269C24.1527 21.2184 24.2361 20.9149 24.3077 20.3922C24.3434 20.1055 24.3673 19.7514 24.3673 19.313C24.3673 19.2624 24.3553 19.2287 24.3434 19.2119C24.1646 19.6671 24.0693 20.3416 24.0693 21.2184Z" fill="white"/>
<path d="M20.8509 15.2662C20.8509 15.536 20.9343 15.6709 21.0893 15.6709C21.1846 15.6709 21.2323 15.6203 21.2323 15.536C21.3396 15.536 21.3873 15.3505 21.3873 14.9795C21.3873 14.6592 21.3515 14.4905 21.2681 14.4905C20.9939 14.4905 20.8509 14.7435 20.8509 15.2662Z" fill="white"/>
<path d="M24.5461 14.6929C24.5461 15.2156 24.5341 15.7215 24.5222 16.2105C24.5103 16.2779 24.4984 16.3791 24.4865 16.514C24.3792 17.3402 24.3315 17.8292 24.3315 17.9978C24.3911 17.9978 24.4149 17.9809 24.4269 17.9472C24.6533 16.8681 24.7606 15.9069 24.7606 15.0638V14.5243C24.7368 14.44 24.7129 14.4062 24.6772 14.4062C24.6295 14.4062 24.5818 14.5074 24.5461 14.6929Z" fill="white"/>
<path d="M24.0693 21.2184V21.269C24.1527 21.2184 24.2361 20.9149 24.3077 20.3922C24.3434 20.1055 24.3673 19.7514 24.3673 19.313C24.3673 19.2624 24.3553 19.2287 24.3434 19.2119C24.1646 19.6671 24.0693 20.3416 24.0693 21.2184Z" fill="white"/>
<path d="M21.4111 18.7229C21.4111 18.8409 21.4111 18.9252 21.423 18.9589L21.4469 19.0432V18.2339C21.423 18.2845 21.4111 18.4531 21.4111 18.7229Z" fill="white"/>
</svg>
