<svg width="64" height="38" viewBox="0 0 64 38" fill="none" xmlns="http://www.w3.org/2000/svg">
<path d="M6.67002 1.09622C6.68194 1.07936 6.72962 1.0625 6.80114 1.0625C7.11106 1.0625 7.26602 1.4166 7.26602 2.10793C7.26602 2.12479 7.21834 2.39458 7.11106 2.9173C7.0753 3.1365 7.05146 3.35571 7.05146 3.60864V3.92901C7.11106 4.24938 7.24218 4.40114 7.44482 4.40114C7.76666 4.40114 7.92162 4.18194 7.92162 3.76039V2.58006C7.92162 2.02362 8.12426 1.73697 8.52953 1.73697C8.73217 1.73697 8.83945 1.88873 8.83945 2.19224V2.32714C8.55337 3.38943 8.41033 4.13135 8.41033 4.5529C8.41033 5.29482 8.46993 5.85126 8.60105 6.23908C8.86329 7.06531 8.99441 7.67234 8.99441 8.07702C8.99441 9.00442 8.74409 9.45969 8.24345 9.45969C7.88586 9.45969 7.70706 9.24049 7.70706 8.81894V7.92526C7.70706 7.63861 7.6117 7.50372 7.40906 7.50372C7.24218 7.50372 7.1349 7.67233 7.08722 8.00957C7.02762 8.36367 6.97994 8.6166 6.93226 8.73463C6.82498 9.02128 6.64618 9.15618 6.4197 9.15618C6.02634 9.15618 5.8237 8.80208 5.8237 8.07702C5.8237 7.85782 5.83562 7.6892 5.85946 7.5543C5.96674 6.89669 6.01442 6.44142 6.01442 6.20536C6.01442 5.71636 5.90714 4.87327 5.68066 3.70981V3.44002C5.68066 2.66437 6.01442 1.88873 6.67002 1.09622ZM6.09786 3.35571C6.09786 3.47374 6.14554 3.64236 6.25282 3.87842C6.27666 3.45688 6.33626 2.96789 6.43162 2.41145H6.40778C6.20514 2.41145 6.09786 2.73182 6.09786 3.35571ZM8.24345 2.6981V2.86672C8.30305 2.83299 8.33881 2.71496 8.33881 2.51262C8.33881 2.46203 8.32689 2.42831 8.30305 2.41145C8.26729 2.44517 8.24345 2.54634 8.24345 2.6981ZM8.06465 4.18194L8.10042 4.21566C8.16001 3.99646 8.18386 3.81098 8.18386 3.65922V3.54119C8.17194 3.55805 8.13617 3.76039 8.06465 4.18194ZM6.51506 5.76695C6.51506 6.18849 6.49122 6.42456 6.45546 6.49201L6.39586 6.45828C6.4197 6.49201 6.43162 6.54259 6.43162 6.61004L6.39586 6.79552C6.37202 6.91355 6.34818 7.04845 6.33626 7.16648C6.32434 7.18334 6.31242 7.21707 6.31242 7.30137H6.28858C6.28858 7.35196 6.28858 7.41941 6.27666 7.46999L6.2409 7.9084C6.2409 7.99271 6.2409 8.0433 6.25282 8.06016L6.31242 8.14447C6.3005 8.06016 6.3005 7.97585 6.33626 7.92526L6.39586 7.97585C6.39586 7.95899 6.4197 7.80723 6.45546 7.50372V7.48686C6.45546 7.46999 6.44354 7.43627 6.43162 7.41941C6.44354 7.40255 6.4793 7.3351 6.51506 7.25079C6.69386 6.6269 6.76538 6.22222 6.75346 6.03674L6.81306 6.07046L6.75346 5.95243C6.74154 5.91871 6.75346 5.90184 6.78922 5.90184C6.81306 5.90184 6.8369 5.91871 6.84882 5.95243V5.73323L6.31242 4.13135H6.27666C6.27666 4.18194 6.3005 4.28311 6.33626 4.46859C6.45546 5.10934 6.51506 5.54775 6.51506 5.76695ZM8.21961 7.97585V8.00957H8.16002C8.12426 8.00957 8.11234 8.17819 8.11234 8.49857C8.19577 8.49857 8.24345 8.36367 8.24345 8.07702C8.24345 8.02643 8.23153 7.99271 8.21961 7.97585Z" fill="white"/>
<path d="M6.09786 3.35571C6.09786 3.47374 6.14554 3.64236 6.25282 3.87842C6.27666 3.45688 6.33626 2.96789 6.43162 2.41145H6.40778C6.20514 2.41145 6.09786 2.73182 6.09786 3.35571Z" fill="white"/>
<path d="M6.51506 5.76695C6.51506 6.18849 6.49122 6.42456 6.45546 6.49201L6.39586 6.45828C6.4197 6.49201 6.43162 6.54259 6.43162 6.61004L6.39586 6.79552C6.37202 6.91355 6.34818 7.04845 6.33626 7.16648C6.32434 7.18334 6.31242 7.21707 6.31242 7.30137H6.28858C6.28858 7.35196 6.28858 7.41941 6.27666 7.46999L6.2409 7.9084C6.2409 7.99271 6.2409 8.0433 6.25282 8.06016L6.31242 8.14447C6.3005 8.06016 6.3005 7.97585 6.33626 7.92526L6.39586 7.97585C6.39586 7.95899 6.4197 7.80723 6.45546 7.50372V7.48686C6.45546 7.46999 6.44354 7.43627 6.43162 7.41941C6.44354 7.40255 6.4793 7.3351 6.51506 7.25079C6.69386 6.6269 6.76538 6.22222 6.75346 6.03674L6.81306 6.07046L6.75346 5.95243C6.74154 5.91871 6.75346 5.90184 6.78922 5.90184C6.81306 5.90184 6.8369 5.91871 6.84882 5.95243V5.73323L6.31242 4.13135H6.27666C6.27666 4.18194 6.3005 4.28311 6.33626 4.46859C6.45546 5.10934 6.51506 5.54775 6.51506 5.76695Z" fill="white"/>
<path d="M8.21961 7.97585V8.00957H8.16002C8.12426 8.00957 8.11234 8.17819 8.11234 8.49857C8.19577 8.49857 8.24345 8.36367 8.24345 8.07702C8.24345 8.02643 8.23153 7.99271 8.21961 7.97585Z" fill="white"/>
<path d="M8.06465 4.18194L8.10042 4.21566C8.16001 3.99646 8.18386 3.81098 8.18386 3.65922V3.54119C8.17194 3.55805 8.13617 3.76039 8.06465 4.18194Z" fill="white"/>
<path d="M8.24345 2.6981V2.86672C8.30305 2.83299 8.33881 2.71496 8.33881 2.51262C8.33881 2.46203 8.32689 2.42831 8.30305 2.41145C8.26729 2.44517 8.24345 2.54634 8.24345 2.6981Z" fill="white"/>
</svg>
