<svg width="64" height="38" viewBox="0 0 64 38" fill="none" xmlns="http://www.w3.org/2000/svg">
<path d="M47.0508 15.7048C47.0508 14.71 47.3369 14.2041 47.9209 14.2041C48.3381 14.2041 48.6004 14.5076 48.7196 15.1315C48.9461 16.2612 49.0533 16.9526 49.0533 17.1886V17.4416C49.0056 18.0149 48.9699 18.4364 48.958 18.7062V18.858C48.958 19.465 49.0891 19.7685 49.3513 19.7685C49.6255 19.7685 49.8162 19.3807 49.9116 18.6219C49.995 18.0317 50.0308 17.6271 50.0308 17.4078C50.0188 16.7165 50.0188 16.1938 50.0308 15.8397C50.0427 14.8111 50.2811 14.2884 50.734 14.2884C51.0559 14.2884 51.2228 14.5582 51.2228 15.0809C51.2228 15.7048 51.0916 16.5142 50.8413 17.4922C50.746 17.8463 50.5195 18.5713 50.15 19.6336C50.0904 19.8528 50.0427 20.3924 50.0308 21.2861C50.0188 22.1629 49.852 22.6013 49.554 22.6013C49.3633 22.6013 49.1606 22.3821 48.958 21.9605C48.7315 21.4884 48.5646 21.0669 48.4812 20.6959C48.3143 19.3132 48.0759 18.3015 47.766 17.6608C47.4441 16.9863 47.2773 16.6322 47.2653 16.5985C47.1223 16.2781 47.0508 15.9746 47.0508 15.7048ZM50.15 18.7062C50.4718 17.6439 50.6387 16.413 50.6387 15.0472C50.5076 15.0472 50.436 15.3338 50.4241 15.924C50.3884 16.6322 50.3049 17.5259 50.15 18.5882V18.7062ZM47.5872 15.5868C47.5872 15.806 47.6468 15.8903 47.766 15.8397C47.8017 15.8228 47.8256 15.806 47.8256 15.7554V15.3001C47.8256 15.2495 47.8017 15.2158 47.7421 15.2158C47.6349 15.2158 47.5872 15.3338 47.5872 15.5868ZM49.1487 20.7802H49.1964C49.1845 20.7465 49.1845 20.7128 49.1725 20.6959C48.8984 20.2406 48.7196 19.8022 48.6361 19.3807C48.6242 19.4313 48.6242 19.465 48.6242 19.5156C48.6242 20.3587 48.803 20.7802 49.1487 20.7802Z" fill="white"/>
<path d="M50.15 18.7062C50.4718 17.6439 50.6387 16.413 50.6387 15.0472C50.5076 15.0472 50.436 15.3338 50.4241 15.924C50.3884 16.6322 50.3049 17.5259 50.15 18.5882V18.7062Z" fill="white"/>
<path d="M49.1487 20.7802H49.1964C49.1845 20.7465 49.1845 20.7128 49.1725 20.6959C48.8984 20.2406 48.7196 19.8022 48.6361 19.3807C48.6242 19.4313 48.6242 19.465 48.6242 19.5156C48.6242 20.3587 48.803 20.7802 49.1487 20.7802Z" fill="white"/>
<path d="M47.5872 15.5868C47.5872 15.806 47.6468 15.8903 47.766 15.8397C47.8017 15.8228 47.8256 15.806 47.8256 15.7554V15.3001C47.8256 15.2495 47.8017 15.2158 47.7421 15.2158C47.6349 15.2158 47.5872 15.3338 47.5872 15.5868Z" fill="white"/>
</svg>
