<svg width="64" height="38" viewBox="0 0 64 38" fill="none" xmlns="http://www.w3.org/2000/svg">
<path d="M53.0313 14.4233C53.1624 14.4233 53.2936 14.4064 53.4247 14.3727C53.9134 14.2547 54.1995 14.2041 54.271 14.2041C54.9028 14.2041 55.2127 14.6425 55.2127 15.5025C55.2127 16.295 55.022 16.6997 54.6524 16.6997C54.5452 16.6997 54.4498 16.6322 54.3783 16.4804C53.9849 15.7554 53.7346 15.3844 53.6035 15.3844C53.1267 15.3844 52.8883 15.8397 52.8883 16.7671V17.1043C52.9717 17.5933 53.3293 17.9643 53.9611 18.2004C54.0684 18.3184 54.116 18.4027 54.116 18.4533C54.116 18.6556 54.0326 18.7905 53.8776 18.8411C53.5916 18.9591 53.4128 19.0434 53.3412 19.094C53.079 19.3132 52.9479 19.5662 52.9479 19.8865V20.7802C52.9479 21.5727 53.1982 21.9605 53.6869 21.9605C54.0088 21.9605 54.1876 21.657 54.2352 21.0669C54.271 20.5947 54.2948 20.3081 54.3187 20.2238C54.426 19.8865 54.6167 19.7179 54.8908 19.7179C55.1531 19.7179 55.3438 19.9034 55.4511 20.2744V20.5273C55.4511 21.5221 55.0816 22.1292 54.3544 22.3821C53.9372 22.5338 53.6035 22.6013 53.377 22.6013C52.5545 22.6013 52.1493 22.1966 52.1493 21.4041V19.1783C52.1373 19.1783 52.0062 18.3352 51.732 16.6491C51.7082 16.5142 51.6963 16.3287 51.6963 16.0758C51.6963 14.9123 51.8989 14.3221 52.2923 14.3221H52.4711C52.6499 14.3727 52.7929 14.4064 52.8883 14.4064C52.9002 14.4233 52.9479 14.4233 53.0313 14.4233ZM52.1373 15.9577C52.1373 16.042 52.1373 16.1432 52.1493 16.2275C52.1612 16.2781 52.1731 16.3287 52.2088 16.3456C52.3042 15.8228 52.3519 15.4856 52.3519 15.3001C52.3519 15.1484 52.328 15.0809 52.2684 15.0809C52.185 15.0809 52.1373 15.3676 52.1373 15.9577ZM52.6499 18.4701C52.6499 18.4533 52.5903 18.2341 52.4711 17.8294C52.3996 17.5933 52.34 17.3573 52.2923 17.1043V17.273C52.2923 18.0655 52.4115 18.4701 52.6499 18.4701ZM52.4472 20.8645C52.4472 21.0837 52.483 21.2523 52.5664 21.4041V21.3198C52.5307 20.9151 52.5188 20.3418 52.5307 19.5999C52.4711 19.7516 52.4472 20.1732 52.4472 20.8645ZM54.2352 21.9943H54.2591C54.4379 21.9943 54.6167 21.5559 54.7955 20.6959V20.6116C54.7955 20.5273 54.7716 20.4767 54.7359 20.4767C54.724 20.4767 54.6882 20.6959 54.6167 21.1175C54.569 21.3704 54.4379 21.6739 54.2352 21.9943Z" fill="white"/>
<path d="M52.1373 15.9577C52.1373 16.042 52.1373 16.1432 52.1493 16.2275C52.1612 16.2781 52.1731 16.3287 52.2088 16.3456C52.3042 15.8228 52.3519 15.4856 52.3519 15.3001C52.3519 15.1484 52.328 15.0809 52.2684 15.0809C52.185 15.0809 52.1373 15.3676 52.1373 15.9577Z" fill="white"/>
<path d="M52.6499 18.4701C52.6499 18.4533 52.5903 18.2341 52.4711 17.8294C52.3996 17.5933 52.34 17.3573 52.2923 17.1043V17.273C52.2923 18.0655 52.4115 18.4701 52.6499 18.4701Z" fill="white"/>
<path d="M52.4472 20.8645C52.4472 21.0837 52.483 21.2523 52.5664 21.4041V21.3198C52.5307 20.9151 52.5188 20.3418 52.5307 19.5999C52.4711 19.7516 52.4472 20.1732 52.4472 20.8645Z" fill="white"/>
<path d="M54.2352 21.9943H54.2591C54.4379 21.9943 54.6167 21.5559 54.7955 20.6959V20.6116C54.7955 20.5273 54.7716 20.4767 54.7359 20.4767C54.724 20.4767 54.6882 20.6959 54.6167 21.1175C54.569 21.3704 54.4379 21.6739 54.2352 21.9943Z" fill="white"/>
</svg>
