<svg width="64" height="38" viewBox="0 0 64 38" fill="none" xmlns="http://www.w3.org/2000/svg">
<path d="M44.6118 2.63065C44.6118 1.58522 45.1601 1.0625 46.2449 1.0625C47.5441 1.0625 48.1997 1.7707 48.1997 3.18709C48.1997 4.11449 48.0448 4.85641 47.7229 5.39599C47.258 5.98615 47.0316 6.45828 47.0316 6.79552C47.0316 7.3351 47.1984 7.60489 47.5441 7.60489C47.6514 7.60489 47.7587 7.5543 47.866 7.46999C48.164 7.21707 48.3547 7.08217 48.4381 7.08217C48.7123 7.08217 48.8553 7.36882 48.8553 7.92526C48.8553 8.95383 48.5931 9.45969 48.0805 9.45969C47.6276 9.45969 47.1508 9.05501 46.6501 8.22878C46.5071 8.00957 46.3521 7.89154 46.1733 7.89154C45.9111 7.89154 45.7561 8.09388 45.7204 8.4817C45.6608 9.05501 45.6131 9.37538 45.6012 9.44283C45.5177 9.7632 45.3509 9.91496 45.1005 9.91496C44.6357 9.91496 44.4092 9.47655 44.4092 8.58287C44.4092 8.2625 44.4211 8.06016 44.4449 7.97585C44.5761 7.50372 44.6953 7.03159 44.8025 6.54259C44.9217 6.00301 44.9813 5.54775 44.9813 5.19365C44.9813 4.92386 44.9456 4.60348 44.8621 4.21566C44.6953 3.47374 44.6118 2.95102 44.6118 2.63065ZM45.0886 2.54634C45.0886 2.73182 45.1005 2.83299 45.1363 2.83299C45.3151 2.83299 45.3985 2.64751 45.3985 2.25969C45.3985 2.15852 45.3389 2.10793 45.2078 2.10793C45.1244 2.10793 45.0886 2.25969 45.0886 2.54634ZM45.6846 4.08077C45.6846 5.07561 45.8515 5.58147 46.1733 5.58147C46.4237 5.58147 46.5548 5.31168 46.5548 4.78896C46.5548 3.8447 46.3879 3.37257 46.0541 3.37257C45.8038 3.37257 45.6846 3.60864 45.6846 4.08077ZM46.7336 5.64892V5.80067C47.0077 5.80067 47.1508 5.31168 47.1508 4.35056C47.1508 4.23252 47.1389 4.16508 47.1269 4.13135C47.0673 4.62035 46.9362 5.1262 46.7336 5.64892ZM45.3032 6.00302C45.3032 6.39084 45.2793 6.66063 45.2436 6.79552C44.9813 7.65547 44.8502 8.21191 44.8502 8.46484C44.8502 8.54915 44.8502 8.65032 44.8621 8.73463C44.8502 8.78522 44.8741 8.81894 44.9217 8.81894C44.9456 8.81894 44.9694 8.68404 45.0052 8.39739C45.0409 8.11074 45.2078 7.60489 45.5177 6.87983C45.5535 6.77866 45.5773 6.67749 45.5773 6.57632V6.45828C45.5535 6.32339 45.5177 6.12105 45.4581 5.86812C45.3985 5.44657 45.3389 5.02503 45.3032 4.60348L45.2793 4.51917C45.2674 4.58662 45.2674 4.65407 45.2674 4.70465C45.2674 4.82269 45.2674 4.87327 45.2793 4.89013C45.2793 5.04189 45.2913 5.27796 45.3032 5.56461V6.00302Z" fill="white"/>
<path d="M45.3032 6.00302C45.3032 6.39084 45.2793 6.66063 45.2436 6.79552C44.9813 7.65547 44.8502 8.21191 44.8502 8.46484C44.8502 8.54915 44.8502 8.65032 44.8621 8.73463C44.8502 8.78522 44.8741 8.81894 44.9217 8.81894C44.9456 8.81894 44.9694 8.68404 45.0052 8.39739C45.0409 8.11074 45.2078 7.60489 45.5177 6.87983C45.5535 6.77866 45.5773 6.67749 45.5773 6.57632V6.45828C45.5535 6.32339 45.5177 6.12105 45.4581 5.86812C45.3985 5.44657 45.3389 5.02503 45.3032 4.60348L45.2793 4.51917C45.2674 4.58662 45.2674 4.65407 45.2674 4.70465C45.2674 4.82269 45.2674 4.87327 45.2793 4.89013C45.2793 5.04189 45.2913 5.27796 45.3032 5.56461V6.00302Z" fill="white"/>
<path d="M45.0886 2.54634C45.0886 2.73182 45.1005 2.83299 45.1363 2.83299C45.3151 2.83299 45.3985 2.64751 45.3985 2.25969C45.3985 2.15852 45.3389 2.10793 45.2078 2.10793C45.1244 2.10793 45.0886 2.25969 45.0886 2.54634Z" fill="white"/>
<path d="M46.7336 5.64892V5.80067C47.0077 5.80067 47.1508 5.31168 47.1508 4.35056C47.1508 4.23252 47.1389 4.16508 47.1269 4.13135C47.0673 4.62035 46.9362 5.1262 46.7336 5.64892Z" fill="white"/>
</svg>
