<svg width="64" height="38" viewBox="0 0 64 38" fill="none" xmlns="http://www.w3.org/2000/svg">
<path d="M36.6914 16.5479C36.6914 14.9797 37.204 14.2041 38.2172 14.2041C38.7774 14.2041 39.2304 14.2547 39.5522 14.3727C40.0648 14.5582 40.327 15.1484 40.327 16.1601C40.327 17.391 40.029 17.998 39.4449 17.998C39.1588 17.998 39.0158 17.6945 39.0158 17.1043C39.0158 16.9526 39.0277 16.8008 39.0516 16.6828C39.1469 16.1263 39.1946 15.7891 39.1946 15.6711C39.1946 15.1484 39.0396 14.8786 38.7178 14.8786C38.1814 14.8786 37.9072 15.4519 37.9072 16.5816C37.9072 16.6997 37.9072 16.8177 37.9192 16.9357C38.0026 17.391 38.1933 17.7957 38.5152 18.116L39.5284 19.1783C39.9217 19.5999 40.1244 20.0889 40.1244 20.679C40.1244 21.9605 39.6595 22.6013 38.7297 22.6013C38.694 22.6013 38.6701 22.6013 38.6344 22.5844C38.3125 22.4664 38.0026 22.3146 37.7046 22.1629C37.2874 21.9605 37.0728 21.5559 37.0728 20.9657C37.0728 20.3924 37.2636 20.1057 37.645 20.1057C37.8119 20.1057 38.0264 20.3249 38.3006 20.7802C38.4198 20.9826 38.539 21.0837 38.6582 21.0837C38.9562 21.0837 39.1112 20.8139 39.1112 20.2912C39.1112 19.9203 39.0039 19.6673 38.7774 19.5156L37.7404 18.7905C37.0371 18.3184 36.6914 17.5765 36.6914 16.5479ZM39.5522 15.8228C39.5522 15.8734 39.5164 16.2275 39.433 16.8514C39.4211 16.9357 39.4211 17.0032 39.4211 17.0875C39.6118 17.0875 39.7072 16.6997 39.7072 15.924C39.7072 15.3001 39.5522 14.8954 39.2304 14.71C39.4449 14.9966 39.5522 15.3676 39.5522 15.8228ZM37.1086 16.413C37.1086 16.5479 37.1324 16.6153 37.1682 16.6153C37.204 16.6153 37.2159 16.5985 37.2278 16.5648C37.2516 16.3793 37.3232 16.0083 37.4424 15.4687V15.4182C37.2159 15.4182 37.1086 15.7554 37.1086 16.413ZM39.433 20.3924C39.433 20.5273 39.3615 20.8645 39.2304 21.4041H39.2542C39.4568 21.4041 39.5522 21.0837 39.5522 20.4598C39.5522 20.0383 39.4688 19.7348 39.29 19.5493C39.3853 19.8191 39.433 20.1057 39.433 20.3924ZM37.4662 20.8982C37.4662 21.0163 37.5139 21.0837 37.6212 21.1175C37.6331 21.1006 37.645 21.0837 37.645 21.0331C37.645 20.8814 37.5973 20.8139 37.5139 20.8139C37.4781 20.8139 37.4662 20.8477 37.4662 20.8982Z" fill="white"/>
<path d="M37.4662 20.8982C37.4662 21.0163 37.5139 21.0837 37.6212 21.1175C37.6331 21.1006 37.645 21.0837 37.645 21.0331C37.645 20.8814 37.5973 20.8139 37.5139 20.8139C37.4781 20.8139 37.4662 20.8477 37.4662 20.8982Z" fill="white"/>
<path d="M39.433 20.3924C39.433 20.5273 39.3615 20.8645 39.2304 21.4041H39.2542C39.4568 21.4041 39.5522 21.0837 39.5522 20.4598C39.5522 20.0383 39.4688 19.7348 39.29 19.5493C39.3853 19.8191 39.433 20.1057 39.433 20.3924Z" fill="white"/>
<path d="M39.5522 15.8228C39.5522 15.8734 39.5164 16.2275 39.433 16.8514C39.4211 16.9357 39.4211 17.0032 39.4211 17.0875C39.6118 17.0875 39.7072 16.6997 39.7072 15.924C39.7072 15.3001 39.5522 14.8954 39.2304 14.71C39.4449 14.9966 39.5522 15.3676 39.5522 15.8228Z" fill="white"/>
<path d="M37.1086 16.413C37.1086 16.5479 37.1324 16.6153 37.1682 16.6153C37.204 16.6153 37.2159 16.5985 37.2278 16.5648C37.2516 16.3793 37.3232 16.0083 37.4424 15.4687V15.4182C37.2159 15.4182 37.1086 15.7554 37.1086 16.413Z" fill="white"/>
</svg>
