<svg width="64" height="38" viewBox="0 0 64 38" fill="none" xmlns="http://www.w3.org/2000/svg">
<path d="M49.0068 2.84939C49.0068 1.12948 49.5432 0.269531 50.616 0.269531C51.5935 0.269531 52.0822 0.741662 52.0822 1.70279V1.90513C51.7842 3.01801 51.6292 3.77679 51.6292 4.18147C51.6292 4.65361 51.7603 5.29436 52.0226 6.08686C52.1418 6.4241 52.2252 6.67702 52.2848 6.84564C52.3683 7.09857 52.404 7.40208 52.404 7.73932C52.404 9.17258 51.963 9.88077 51.069 9.88077C49.8651 9.88077 49.2691 9.10513 49.2691 7.5707C49.2691 7.30091 49.2691 7.14916 49.281 7.09857C49.2929 6.91309 49.3048 6.76133 49.3048 6.67702V6.10372C49.3048 5.51356 49.2691 4.94026 49.1856 4.40068C49.0664 3.59131 49.0068 3.06859 49.0068 2.84939ZM50.1392 2.04002C50.1392 2.25923 50.2346 2.81567 50.4134 3.72621V3.92855C50.4134 3.97913 50.33 4.35009 50.175 5.07515C50.0677 5.53042 50.02 5.91824 50.02 6.27234C50.02 6.69389 50.0677 7.09857 50.175 7.46953C50.4134 8.38007 50.7233 8.83534 51.0928 8.83534C51.4504 8.83534 51.6292 8.53183 51.6292 7.94166C51.6292 7.67187 51.5935 7.38522 51.51 7.09857C51.1643 5.90138 50.9975 4.97398 50.9975 4.31637C50.9975 4.24892 50.9975 4.18147 51.0094 4.09717C51.1405 3.37211 51.212 2.7988 51.212 2.3604C51.212 1.53417 51.0213 1.11262 50.6399 1.11262C50.3061 1.11262 50.1392 1.41614 50.1392 2.04002ZM51.5458 1.7871H51.5815C51.5815 1.48358 51.4862 1.26438 51.3074 1.11262L51.2955 1.12948L51.4266 1.44986C51.4623 1.56789 51.51 1.66906 51.5458 1.7871ZM49.3644 1.98944C49.3644 2.07375 49.3764 2.10747 49.4002 2.12433C49.3406 2.81567 49.424 3.38897 49.6386 3.84424V3.42269L49.6028 2.61333C49.6028 2.3604 49.6148 2.12433 49.6386 1.8714V1.82082C49.6386 1.77023 49.6267 1.68592 49.6028 1.56789H49.5909C49.436 1.56789 49.3644 1.70279 49.3644 1.98944ZM51.2478 3.75993V3.81051L51.212 4.0803C51.212 4.23206 51.2478 4.50185 51.3074 4.90653C51.4147 5.61473 51.4981 5.98569 51.5696 6.03628C51.3908 5.27749 51.2955 4.68733 51.2955 4.28265C51.2955 4.18147 51.2955 4.11403 51.3074 4.09717L51.5458 2.49529V2.32667C51.5219 2.34354 51.4862 2.51215 51.4266 2.7988L51.2478 3.75993ZM49.6028 6.94681V7.63815C49.6386 7.94166 49.6982 8.11028 49.7578 8.144V7.97539C49.6744 7.2166 49.6505 6.49154 49.6624 5.78335L49.6386 5.83393C49.6148 5.86766 49.6028 6.23862 49.6028 6.94681ZM51.6531 8.8522C51.6531 8.88592 51.6769 8.91965 51.7246 8.95337C51.9272 8.71731 52.0226 8.36321 52.0226 7.89108C52.0226 7.84049 52.0107 7.72246 51.9868 7.55384C51.9749 7.73932 51.8676 8.16087 51.665 8.81848C51.6531 8.83534 51.6531 8.83534 51.6531 8.8522Z" fill="white"/>
<path d="M49.3644 1.98944C49.3644 2.07375 49.3764 2.10747 49.4002 2.12433C49.3406 2.81567 49.424 3.38897 49.6386 3.84424V3.42269L49.6028 2.61333C49.6028 2.3604 49.6148 2.12433 49.6386 1.8714V1.82082C49.6386 1.77023 49.6267 1.68592 49.6028 1.56789H49.5909C49.436 1.56789 49.3644 1.70279 49.3644 1.98944Z" fill="white"/>
<path d="M49.6028 6.94681V7.63815C49.6386 7.94166 49.6982 8.11028 49.7578 8.144V7.97539C49.6744 7.2166 49.6505 6.49154 49.6624 5.78335L49.6386 5.83393C49.6148 5.86766 49.6028 6.23862 49.6028 6.94681Z" fill="white"/>
<path d="M51.2478 3.75993V3.81051L51.212 4.0803C51.212 4.23206 51.2478 4.50185 51.3074 4.90653C51.4147 5.61473 51.4981 5.98569 51.5696 6.03628C51.3908 5.27749 51.2955 4.68733 51.2955 4.28265C51.2955 4.18147 51.2955 4.11403 51.3074 4.09717L51.5458 2.49529V2.32667C51.5219 2.34354 51.4862 2.51215 51.4266 2.7988L51.2478 3.75993Z" fill="white"/>
<path d="M51.5458 1.7871H51.5815C51.5815 1.48358 51.4862 1.26438 51.3074 1.11262L51.2955 1.12948L51.4266 1.44986C51.4623 1.56789 51.51 1.66906 51.5458 1.7871Z" fill="white"/>
<path d="M51.6531 8.8522C51.6531 8.88592 51.6769 8.91965 51.7246 8.95337C51.9272 8.71731 52.0226 8.36321 52.0226 7.89108C52.0226 7.84049 52.0107 7.72246 51.9868 7.55384C51.9749 7.73932 51.8676 8.16087 51.665 8.81848C51.6531 8.83534 51.6531 8.83534 51.6531 8.8522Z" fill="white"/>
</svg>
