<svg width="64" height="38" viewBox="0 0 64 38" fill="none" xmlns="http://www.w3.org/2000/svg">
<path d="M40.8701 29.6385C40.8701 27.9185 41.4065 27.0586 42.4793 27.0586C43.4567 27.0586 43.9455 27.5307 43.9455 28.4918V28.6942C43.6475 29.8071 43.4925 30.5659 43.4925 30.9705C43.4925 31.4427 43.6236 32.0834 43.8859 32.8759C44.0051 33.2132 44.0885 33.4661 44.1481 33.6347C44.2315 33.8876 44.2673 34.1911 44.2673 34.5284C44.2673 35.9616 43.8263 36.6698 42.9323 36.6698C41.7284 36.6698 41.1324 35.8942 41.1324 34.3598C41.1324 34.09 41.1324 33.9382 41.1443 33.8876C41.1562 33.7022 41.1681 33.5504 41.1681 33.4661V32.8928C41.1681 32.3026 41.1324 31.7293 41.0489 31.1897C40.9297 30.3804 40.8701 29.8577 40.8701 29.6385ZM42.0025 28.8291C42.0025 29.0483 42.0979 29.6047 42.2767 30.5153V30.7176C42.2767 30.7682 42.1932 31.1392 42.0383 31.8642C41.931 32.3195 41.8833 32.7073 41.8833 33.0614C41.8833 33.483 41.931 33.8876 42.0383 34.2586C42.2767 35.1691 42.5866 35.6244 42.9561 35.6244C43.3137 35.6244 43.4925 35.3209 43.4925 34.7307C43.4925 34.4609 43.4567 34.1743 43.3733 33.8876C43.0276 32.6904 42.8607 31.763 42.8607 31.1054C42.8607 31.038 42.8607 30.9705 42.8727 30.8862C43.0038 30.1612 43.0753 29.5879 43.0753 29.1495C43.0753 28.3232 42.8846 27.9017 42.5032 27.9017C42.1694 27.9017 42.0025 28.2052 42.0025 28.8291ZM43.4091 28.5762H43.4448C43.4448 28.2726 43.3495 28.0534 43.1707 27.9017L43.1587 27.9185L43.2899 28.2389C43.3256 28.357 43.3733 28.4581 43.4091 28.5762ZM41.2277 28.7785C41.2277 28.8628 41.2396 28.8965 41.2635 28.9134C41.2039 29.6047 41.2873 30.178 41.5019 30.6333V30.2118L41.4661 29.4024C41.4661 29.1495 41.478 28.9134 41.5019 28.6605V28.6099C41.5019 28.5593 41.49 28.475 41.4661 28.357H41.4542C41.2992 28.357 41.2277 28.4918 41.2277 28.7785ZM43.1111 30.549V30.5996L43.0753 30.8694C43.0753 31.0211 43.1111 31.2909 43.1707 31.6956C43.2779 32.4038 43.3614 32.7748 43.4329 32.8253C43.2541 32.0666 43.1587 31.4764 43.1587 31.0717C43.1587 30.9705 43.1587 30.9031 43.1707 30.8862L43.4091 29.2844V29.1157C43.3852 29.1326 43.3495 29.3012 43.2899 29.5879L43.1111 30.549ZM41.4661 33.7359V34.4272C41.5019 34.7307 41.5615 34.8993 41.6211 34.9331V34.7644C41.5376 34.0057 41.5138 33.2806 41.5257 32.5724L41.5019 32.623C41.478 32.6567 41.4661 33.0277 41.4661 33.7359ZM43.5163 35.6413C43.5163 35.675 43.5402 35.7087 43.5879 35.7424C43.7905 35.5064 43.8859 35.1523 43.8859 34.6801C43.8859 34.6296 43.8739 34.5115 43.8501 34.3429C43.8382 34.5284 43.7309 34.9499 43.5283 35.6075C43.5163 35.6244 43.5163 35.6244 43.5163 35.6413Z" fill="white"/>
<path d="M41.2277 28.7785C41.2277 28.8628 41.2396 28.8965 41.2635 28.9134C41.2039 29.6047 41.2873 30.178 41.5019 30.6333V30.2118L41.4661 29.4024C41.4661 29.1495 41.478 28.9134 41.5019 28.6605V28.6099C41.5019 28.5593 41.49 28.475 41.4661 28.357H41.4542C41.2992 28.357 41.2277 28.4918 41.2277 28.7785Z" fill="white"/>
<path d="M43.1111 30.549V30.5996L43.0753 30.8694C43.0753 31.0211 43.1111 31.2909 43.1707 31.6956C43.2779 32.4038 43.3614 32.7748 43.4329 32.8253C43.2541 32.0666 43.1587 31.4764 43.1587 31.0717C43.1587 30.9705 43.1587 30.9031 43.1707 30.8862L43.4091 29.2844V29.1157C43.3852 29.1326 43.3495 29.3012 43.2899 29.5879L43.1111 30.549Z" fill="white"/>
<path d="M43.4091 28.5762H43.4448C43.4448 28.2726 43.3495 28.0534 43.1707 27.9017L43.1587 27.9185L43.2899 28.2389C43.3256 28.357 43.3733 28.4581 43.4091 28.5762Z" fill="white"/>
<path d="M41.4661 33.7359V34.4272C41.5019 34.7307 41.5615 34.8993 41.6211 34.9331V34.7644C41.5376 34.0057 41.5138 33.2806 41.5257 32.5724L41.5019 32.623C41.478 32.6567 41.4661 33.0277 41.4661 33.7359Z" fill="white"/>
<path d="M43.5163 35.6413C43.5163 35.675 43.5402 35.7087 43.5879 35.7424C43.7905 35.5064 43.8859 35.1523 43.8859 34.6801C43.8859 34.6296 43.8739 34.5115 43.8501 34.3429C43.8382 34.5284 43.7309 34.9499 43.5283 35.6075C43.5163 35.6244 43.5163 35.6244 43.5163 35.6413Z" fill="white"/>
</svg>
