<svg width="64" height="38" viewBox="0 0 64 38" fill="none" xmlns="http://www.w3.org/2000/svg">
<path d="M20.4214 28.8293C20.4214 27.4635 20.6717 26.7891 21.1723 26.7891C21.6849 26.7891 21.9829 27.1937 22.0663 28.0031C22.1021 28.5258 22.1259 28.9305 22.1617 29.1834C22.2094 29.723 22.3405 30.5324 22.5431 31.5947C22.6266 32.05 22.8054 32.4884 23.0795 32.893C23.5086 33.5675 23.7232 33.9048 23.7351 33.9048C23.9735 34.4275 24.0927 34.8996 24.0927 35.3211C24.0927 36.2654 23.7947 36.7375 23.1987 36.7375C22.8054 36.7375 22.5789 36.4509 22.5431 35.8944C22.4835 35.1357 22.4597 34.731 22.4597 34.7141C22.3762 34.0565 22.1498 33.7361 21.8041 33.7361C21.4226 33.7361 21.2319 34.0396 21.2319 34.6635C21.2319 34.849 21.3273 35.338 21.5299 36.0968C21.5418 36.1811 21.5418 36.2485 21.5418 36.316C21.5418 36.805 21.3988 37.0411 21.1246 37.0411C20.5644 37.0411 20.2783 36.4509 20.2783 35.2874C20.2783 34.9333 20.3141 34.5118 20.3737 33.9891C20.4571 33.4832 20.5167 33.1122 20.5525 32.8593C20.5882 32.5389 20.6121 32.1511 20.6121 31.6621V31.1225C20.5048 30.3806 20.4452 29.8242 20.4333 29.4364C20.4214 29.4026 20.4214 29.2003 20.4214 28.8293ZM20.9339 27.7502C20.8862 28.8293 20.9816 29.6387 21.2081 30.1614C21.22 30.1446 21.2319 30.0434 21.2319 29.8748C21.2319 29.8579 21.22 29.723 21.2081 29.4364C21.1723 29.0317 21.1604 28.5258 21.1723 27.9188C21.1366 27.6996 21.077 27.5816 20.9935 27.5816C20.9697 27.5816 20.9458 27.6322 20.9339 27.7502ZM21.3988 31.6959C21.3988 31.8476 21.4465 31.9319 21.5538 31.9319C21.661 31.9319 21.7087 31.8476 21.7087 31.6959C21.7087 31.5441 21.6491 31.4598 21.5418 31.4598C21.4465 31.4598 21.3988 31.5441 21.3988 31.6959ZM20.9935 32.6907C20.9935 32.8256 20.922 33.1797 20.7909 33.7361C20.7074 34.0734 20.6598 34.4781 20.6598 34.9333C20.6598 35.22 20.6836 35.4223 20.7313 35.5066C20.7432 34.4612 20.9101 33.5844 21.2081 32.893V32.8593C21.2081 32.4209 21.1246 31.9825 20.9697 31.5441C20.9578 31.6621 20.9578 31.7633 20.9578 31.8813C20.9578 32.0837 20.9578 32.2017 20.9697 32.2186C20.9697 32.2692 20.9816 32.3535 20.9935 32.4378V32.6907ZM22.0306 31.8139C22.0306 31.9319 22.0425 31.9825 22.0782 31.9825C22.114 31.9825 22.1259 31.9488 22.1259 31.8645C22.1259 31.7127 22.1021 31.6115 22.0663 31.5947C22.0425 31.6284 22.0306 31.6959 22.0306 31.8139ZM23.0199 34.4612V34.4443C23.0199 34.36 22.9841 34.2251 22.9007 34.0734V34.1071C22.9007 34.2083 22.9365 34.3263 23.0199 34.4612Z" fill="white"/>
<path d="M20.9339 27.7502C20.8862 28.8293 20.9816 29.6387 21.2081 30.1614C21.22 30.1446 21.2319 30.0434 21.2319 29.8748C21.2319 29.8579 21.22 29.723 21.2081 29.4364C21.1723 29.0317 21.1604 28.5258 21.1723 27.9188C21.1366 27.6996 21.077 27.5816 20.9935 27.5816C20.9697 27.5816 20.9458 27.6322 20.9339 27.7502Z" fill="white"/>
<path d="M21.3988 31.6959C21.3988 31.8476 21.4465 31.9319 21.5538 31.9319C21.661 31.9319 21.7087 31.8476 21.7087 31.6959C21.7087 31.5441 21.6491 31.4598 21.5418 31.4598C21.4465 31.4598 21.3988 31.5441 21.3988 31.6959Z" fill="white"/>
<path d="M22.0306 31.8139C22.0306 31.9319 22.0425 31.9825 22.0782 31.9825C22.114 31.9825 22.1259 31.9488 22.1259 31.8645C22.1259 31.7127 22.1021 31.6115 22.0663 31.5947C22.0425 31.6284 22.0306 31.6959 22.0306 31.8139Z" fill="white"/>
<path d="M20.9935 32.6907C20.9935 32.8256 20.922 33.1797 20.7909 33.7361C20.7074 34.0734 20.6598 34.4781 20.6598 34.9333C20.6598 35.22 20.6836 35.4223 20.7313 35.5066C20.7432 34.4612 20.9101 33.5844 21.2081 32.893V32.8593C21.2081 32.4209 21.1246 31.9825 20.9697 31.5441C20.9578 31.6621 20.9578 31.7633 20.9578 31.8813C20.9578 32.0837 20.9578 32.2017 20.9697 32.2186C20.9697 32.2692 20.9816 32.3535 20.9935 32.4378V32.6907Z" fill="white"/>
<path d="M23.0199 34.4612V34.4443C23.0199 34.36 22.9841 34.2251 22.9007 34.0734V34.1071C22.9007 34.2083 22.9365 34.3263 23.0199 34.4612Z" fill="white"/>
</svg>
