<svg width="64" height="38" viewBox="0 0 64 38" fill="none" xmlns="http://www.w3.org/2000/svg">
<path d="M26.6167 2.344C26.6167 1.48405 26.879 1.0625 27.4154 1.0625C27.9041 1.0625 28.2259 1.48405 28.3809 2.32714V2.68124C28.3809 3.06906 28.2736 3.55805 28.059 4.13135C27.8564 4.67093 27.7491 5.04189 27.7491 5.24423C27.7491 5.39599 27.7491 5.46344 27.761 5.4803C27.8206 5.6995 27.8683 5.86812 27.8802 5.98615V6.4077C27.8087 7.41941 27.773 7.99271 27.761 8.14447C27.7014 9.02128 27.4511 9.45969 27.0101 9.45969C26.569 9.45969 26.3545 9.07187 26.3545 8.31309C26.3545 8.06016 26.3903 7.84095 26.4499 7.63861C26.7002 6.81238 26.879 5.78381 26.9862 4.5529V4.33369C26.9862 4.0639 26.9624 3.86156 26.9266 3.70981C26.724 3.03533 26.6167 2.58006 26.6167 2.344ZM27.0697 2.27655C27.0697 2.46203 27.1412 2.54634 27.2723 2.54634C27.3319 2.54634 27.3677 2.47889 27.3677 2.32714C27.3677 2.10793 27.3081 1.9899 27.2008 1.9899C27.1174 1.9899 27.0697 2.09107 27.0697 2.27655ZM26.8194 8.2625H26.8671C27.165 7.31824 27.3081 6.59318 27.3081 6.10419C27.3081 6.08732 27.2962 5.88498 27.2842 5.53088C27.2723 5.51402 27.2723 5.49716 27.2723 5.46344C27.2723 5.37913 27.2842 5.24423 27.3081 5.05875C27.3438 4.70465 27.3677 4.51917 27.3677 4.50231V4.35056C27.2604 4.5529 27.2008 4.89013 27.1889 5.36227C27.165 6.28967 27.0578 7.1159 26.8671 7.84095C26.8313 7.94213 26.8194 8.07702 26.8194 8.2625Z" fill="white"/>
<path d="M26.8194 8.2625H26.8671C27.165 7.31824 27.3081 6.59318 27.3081 6.10419C27.3081 6.08732 27.2962 5.88498 27.2842 5.53088C27.2723 5.51402 27.2723 5.49716 27.2723 5.46344C27.2723 5.37913 27.2842 5.24423 27.3081 5.05875C27.3438 4.70465 27.3677 4.51917 27.3677 4.50231V4.35056C27.2604 4.5529 27.2008 4.89013 27.1889 5.36227C27.165 6.28967 27.0578 7.1159 26.8671 7.84095C26.8313 7.94213 26.8194 8.07702 26.8194 8.2625Z" fill="white"/>
<path d="M27.0697 2.27655C27.0697 2.46203 27.1412 2.54634 27.2723 2.54634C27.3319 2.54634 27.3677 2.47889 27.3677 2.32714C27.3677 2.10793 27.3081 1.9899 27.2008 1.9899C27.1174 1.9899 27.0697 2.09107 27.0697 2.27655Z" fill="white"/>
</svg>
