<svg width="64" height="38" viewBox="0 0 64 38" fill="none" xmlns="http://www.w3.org/2000/svg">
<path d="M40.0059 2.36079C40.0059 1.19733 40.5899 0.624023 41.7581 0.624023C43.0812 0.624023 43.7368 1.36594 43.7368 2.83292C43.7368 3.20388 43.6414 3.57484 43.4388 3.9458C43.117 4.55283 42.9501 4.95751 42.9501 5.14299C42.9501 5.46337 43.0216 5.69943 43.1646 5.85119C43.5103 6.23901 43.7487 6.52566 43.856 6.69428C43.9752 6.87976 44.0348 7.18327 44.0348 7.60482C44.0348 8.65025 43.6057 9.34159 42.7475 9.69569C42.3303 9.8643 42.0084 9.94861 41.8058 9.94861C41.0071 9.94861 40.6019 9.4259 40.6019 8.39733V8.04323C40.6376 7.68913 40.6495 7.41934 40.6615 7.23386V6.57625C40.6615 5.26103 40.5542 4.26618 40.3396 3.60857C40.1131 2.96782 40.0059 2.54627 40.0059 2.36079ZM40.5065 2.15845C40.5065 2.2259 40.5065 2.29334 40.5184 2.34393C40.5303 2.39452 40.5423 2.41138 40.578 2.42824C40.6019 2.4451 40.6257 2.42824 40.6376 2.39452C40.7449 2.12473 40.8045 1.92238 40.8164 1.80435C40.8164 1.72004 40.7807 1.66946 40.6972 1.66946C40.5661 1.66946 40.5065 1.83808 40.5065 2.15845ZM41.3767 3.18702C41.3767 3.81091 41.5555 4.13128 41.925 4.13128C42.2587 4.13128 42.4256 3.87836 42.4256 3.35564C42.4256 2.71489 42.2349 2.39452 41.8415 2.39452C41.5316 2.39452 41.3767 2.6643 41.3767 3.18702ZM42.8666 3.40622L42.6044 4.19873V4.26618C42.7713 4.26618 42.8786 3.96267 42.9263 3.35564H42.9143C42.8905 3.35564 42.8786 3.3725 42.8666 3.40622ZM41.2455 5.42964C41.2932 5.42964 41.3051 5.37906 41.2932 5.29475L41.3528 5.37906C41.3647 5.3622 41.3767 5.29475 41.3767 5.21044C41.3767 5.19358 41.2932 4.97437 41.1383 4.53597C41.0071 4.18187 40.9237 3.99639 40.9118 3.99639H40.8999C41.031 4.95751 41.1383 5.42964 41.2455 5.42964ZM41.3171 7.45306C41.3171 8.34674 41.6151 8.80201 42.2111 8.80201C42.6283 8.80201 42.8428 8.54908 42.8428 8.02637C42.8428 7.04838 42.4971 6.55939 41.8177 6.55939C41.4839 6.55939 41.3171 6.8629 41.3171 7.45306ZM40.8999 7.92519C40.8999 8.41419 40.9475 8.7177 41.0548 8.80201L41.0787 8.75142C41.0191 8.73456 40.9714 8.4985 40.9595 8.07695C40.9475 7.7903 40.9475 7.52051 40.9356 7.23386C40.9118 7.45306 40.8999 7.68913 40.8999 7.92519ZM42.8428 9.00435C42.8428 9.02121 42.8428 9.02121 42.8547 9.02121C42.9858 9.02121 43.1408 8.70084 43.3196 8.07695C43.3196 8.06009 43.3315 8.06009 43.3434 8.04323L43.2839 7.99264C43.1766 8.44791 43.0216 8.78515 42.8428 9.00435Z" fill="white"/>
<path d="M42.8666 3.40622L42.6044 4.19873V4.26618C42.7713 4.26618 42.8786 3.96267 42.9263 3.35564H42.9143C42.8905 3.35564 42.8786 3.3725 42.8666 3.40622Z" fill="white"/>
<path d="M41.2455 5.42964C41.2932 5.42964 41.3051 5.37906 41.2932 5.29475L41.3528 5.37906C41.3647 5.3622 41.3767 5.29475 41.3767 5.21044C41.3767 5.19358 41.2932 4.97437 41.1383 4.53597C41.0071 4.18187 40.9237 3.99639 40.9118 3.99639H40.8999C41.031 4.95751 41.1383 5.42964 41.2455 5.42964Z" fill="white"/>
<path d="M40.5065 2.15845C40.5065 2.2259 40.5065 2.29334 40.5184 2.34393C40.5303 2.39452 40.5423 2.41138 40.578 2.42824C40.6019 2.4451 40.6257 2.42824 40.6376 2.39452C40.7449 2.12473 40.8045 1.92238 40.8164 1.80435C40.8164 1.72004 40.7807 1.66946 40.6972 1.66946C40.5661 1.66946 40.5065 1.83808 40.5065 2.15845Z" fill="white"/>
<path d="M40.8999 7.92519C40.8999 8.41419 40.9475 8.7177 41.0548 8.80201L41.0787 8.75142C41.0191 8.73456 40.9714 8.4985 40.9595 8.07695C40.9475 7.7903 40.9475 7.52051 40.9356 7.23386C40.9118 7.45306 40.8999 7.68913 40.8999 7.92519Z" fill="white"/>
<path d="M42.8428 9.00435C42.8428 9.02121 42.8428 9.02121 42.8547 9.02121C42.9858 9.02121 43.1408 8.70084 43.3196 8.07695C43.3196 8.06009 43.3315 8.06009 43.3434 8.04323L43.2839 7.99264C43.1766 8.44791 43.0216 8.78515 42.8428 9.00435Z" fill="white"/>
</svg>
