<svg width="64" height="38" viewBox="0 0 64 38" fill="none" xmlns="http://www.w3.org/2000/svg">
<path d="M10.1565 18.116C10.7287 18.116 11.0863 17.4415 11.2293 16.0926C11.3247 15.1989 11.3843 14.7099 11.4081 14.6087C11.6346 13.715 12.0279 13.2598 12.612 13.2598C13.0411 13.2598 13.2557 13.6644 13.2557 14.4738C13.2557 15.2326 13.0888 15.8396 12.7551 16.2949L11.2055 18.3183C11.0743 18.4701 11.0147 18.723 11.0147 19.0771C11.0147 19.7347 11.2889 20.0551 11.8491 20.0551C12.0279 20.0551 12.2067 19.9876 12.3617 19.8359C12.767 19.4649 13.0292 19.2794 13.1365 19.2794C13.5537 19.2794 13.7683 19.7347 13.7683 20.6621C13.7683 21.9099 13.4345 22.5338 12.7551 22.5338C12.4928 22.5338 12.0399 22.2808 11.3843 21.775C11.122 21.5726 10.8717 21.4715 10.6452 21.4715C10.1804 21.4715 9.85851 21.8593 9.65587 22.6181C9.52475 23.1071 9.45323 23.3769 9.41747 23.4612C9.16715 24.0851 8.91684 24.3886 8.6546 24.3886C8.42812 24.3886 8.30892 24.1862 8.30892 23.7647C8.30892 23.2251 8.42812 22.7024 8.66652 22.1965C8.88108 21.7413 9.09564 21.3029 9.32211 20.8476C9.42939 20.6284 9.47707 20.3755 9.47707 20.0888C9.47707 19.701 9.32211 19.2963 9.02412 18.9085C8.595 18.352 8.34468 17.9979 8.28508 17.863C7.86788 16.9356 7.65332 16.278 7.65332 15.8902C7.65332 15.2663 7.91556 14.9459 8.44004 14.9459C8.79764 14.9459 9.02412 15.1989 9.11947 15.7047C9.19099 16.2106 9.25059 16.5984 9.29827 16.8513C9.29827 16.8851 9.32211 16.9694 9.35787 17.1043C9.52475 17.7787 9.78699 18.116 10.1565 18.116ZM11.9445 14.9122C11.7538 16.0082 11.4677 16.9356 11.0863 17.7281V17.7787C11.3008 17.5258 11.4796 17.1886 11.6227 16.767L12.1829 15.0303C12.2187 14.9122 12.2425 14.7942 12.2425 14.693C12.2425 14.6424 12.2187 14.6087 12.171 14.6087C12.0756 14.6087 12.0041 14.7099 11.9445 14.9122ZM8.297 16.1263C8.33276 16.1263 8.34468 16.0926 8.34468 16.042C8.34468 15.8902 8.27316 15.8059 8.1182 15.8059C8.1182 16.0251 8.1778 16.1263 8.297 16.1263ZM10.0373 19.6504C10.0373 20.0719 10.0016 20.3755 9.91811 20.5609L8.90492 22.753C8.76188 23.0565 8.69036 23.3431 8.69036 23.5961C8.72612 23.5961 8.85724 23.2588 9.08371 22.5844C9.16715 22.3146 9.29827 22.0111 9.47707 21.657C9.47707 21.6401 9.48899 21.6232 9.50091 21.6064C9.78699 21.1174 9.95387 20.8139 10.0135 20.7296C10.1684 20.426 10.2519 20.2068 10.2519 20.0888C10.2519 19.9708 10.2042 19.6673 10.0969 19.212C10.0492 19.1277 9.90619 18.9591 9.65587 18.7399C9.90619 19.2794 10.0373 19.5829 10.0373 19.6504Z" fill="white"/>
<path d="M8.297 16.1263C8.33276 16.1263 8.34468 16.0926 8.34468 16.042C8.34468 15.8902 8.27316 15.8059 8.1182 15.8059C8.1182 16.0251 8.1778 16.1263 8.297 16.1263Z" fill="white"/>
<path d="M10.0373 19.6504C10.0373 20.0719 10.0016 20.3755 9.91811 20.5609L8.90492 22.753C8.76188 23.0565 8.69036 23.3431 8.69036 23.5961C8.72612 23.5961 8.85724 23.2588 9.08371 22.5844C9.16715 22.3146 9.29827 22.0111 9.47707 21.657C9.47707 21.6401 9.48899 21.6232 9.50091 21.6064C9.78699 21.1174 9.95387 20.8139 10.0135 20.7296C10.1684 20.426 10.2519 20.2068 10.2519 20.0888C10.2519 19.9708 10.2042 19.6673 10.0969 19.212C10.0492 19.1277 9.90619 18.9591 9.65587 18.7399C9.90619 19.2794 10.0373 19.5829 10.0373 19.6504Z" fill="white"/>
<path d="M11.9445 14.9122C11.7538 16.0082 11.4677 16.9356 11.0863 17.7281V17.7787C11.3008 17.5258 11.4796 17.1886 11.6227 16.767L12.1829 15.0303C12.2187 14.9122 12.2425 14.7942 12.2425 14.693C12.2425 14.6424 12.2187 14.6087 12.171 14.6087C12.0756 14.6087 12.0041 14.7099 11.9445 14.9122Z" fill="white"/>
</svg>
