<svg width="64" height="38" viewBox="0 0 64 38" fill="none" xmlns="http://www.w3.org/2000/svg">
<path d="M10.671 1.2817C10.8021 1.2817 10.9332 1.26484 11.0643 1.23112C11.553 1.11309 11.8391 1.0625 11.9106 1.0625C12.5424 1.0625 12.8523 1.50091 12.8523 2.36086C12.8523 3.15337 12.6616 3.55805 12.2921 3.55805C12.1848 3.55805 12.0894 3.4906 12.0179 3.33885C11.6246 2.61379 11.3742 2.24283 11.2431 2.24283C10.7663 2.24283 10.5279 2.6981 10.5279 3.6255V3.96273C10.6114 4.45173 10.969 4.82269 11.6007 5.05875C11.708 5.17679 11.7557 5.26109 11.7557 5.31168C11.7557 5.51402 11.6722 5.64892 11.5173 5.6995C11.2312 5.81753 11.0524 5.90184 10.9809 5.95243C10.7187 6.17163 10.5875 6.42456 10.5875 6.74494V7.63861C10.5875 8.43112 10.8379 8.81894 11.3266 8.81894C11.6484 8.81894 11.8272 8.51543 11.8749 7.92526C11.9106 7.45313 11.9345 7.16648 11.9583 7.08217C12.0656 6.74494 12.2563 6.57632 12.5305 6.57632C12.7927 6.57632 12.9834 6.7618 13.0907 7.13276V7.38568C13.0907 8.38053 12.7212 8.98756 11.9941 9.24049C11.5769 9.39224 11.2431 9.45969 11.0167 9.45969C10.1942 9.45969 9.7889 9.05501 9.7889 8.2625V6.03674C9.77698 6.03674 9.64586 5.19365 9.3717 3.50746C9.34786 3.37257 9.33594 3.18709 9.33594 2.93416C9.33594 1.7707 9.53858 1.18053 9.93194 1.18053H10.1107C10.2895 1.23112 10.4326 1.26484 10.5279 1.26484C10.5399 1.2817 10.5875 1.2817 10.671 1.2817ZM9.77698 2.81613C9.77698 2.90044 9.77698 3.00161 9.7889 3.08592C9.80082 3.1365 9.81273 3.18709 9.84849 3.20395C9.94385 2.68123 9.99153 2.344 9.99153 2.15852C9.99153 2.00676 9.9677 1.93931 9.9081 1.93931C9.82466 1.93931 9.77698 2.22597 9.77698 2.81613ZM10.2895 5.32854C10.2895 5.31168 10.2299 5.09248 10.1107 4.68779C10.0392 4.45173 9.97962 4.21566 9.93194 3.96273V4.13135C9.93194 4.92386 10.0511 5.32854 10.2895 5.32854ZM10.0869 7.72292C10.0869 7.94212 10.1227 8.11074 10.2061 8.2625V8.17819C10.1703 7.77351 10.1584 7.2002 10.1703 6.45828C10.1107 6.61004 10.0869 7.03159 10.0869 7.72292ZM11.8749 8.85266H11.8987C12.0775 8.85266 12.2563 8.41426 12.4351 7.5543V7.46999C12.4351 7.38568 12.4113 7.3351 12.3755 7.3351C12.3636 7.3351 12.3278 7.5543 12.2563 7.97585C12.2086 8.22878 12.0775 8.53229 11.8749 8.85266Z" fill="white"/>
<path d="M9.77698 2.81613C9.77698 2.90044 9.77698 3.00161 9.7889 3.08592C9.80082 3.1365 9.81273 3.18709 9.84849 3.20395C9.94385 2.68123 9.99153 2.344 9.99153 2.15852C9.99153 2.00676 9.9677 1.93931 9.9081 1.93931C9.82466 1.93931 9.77698 2.22597 9.77698 2.81613Z" fill="white"/>
<path d="M10.2895 5.32854C10.2895 5.31168 10.2299 5.09248 10.1107 4.68779C10.0392 4.45173 9.97962 4.21566 9.93194 3.96273V4.13135C9.93194 4.92386 10.0511 5.32854 10.2895 5.32854Z" fill="white"/>
<path d="M10.0869 7.72292C10.0869 7.94212 10.1227 8.11074 10.2061 8.2625V8.17819C10.1703 7.77351 10.1584 7.2002 10.1703 6.45828C10.1107 6.61004 10.0869 7.03159 10.0869 7.72292Z" fill="white"/>
<path d="M11.8749 8.85266H11.8987C12.0775 8.85266 12.2563 8.41426 12.4351 7.5543V7.46999C12.4351 7.38568 12.4113 7.3351 12.3755 7.3351C12.3636 7.3351 12.3278 7.5543 12.2563 7.97585C12.2086 8.22878 12.0775 8.53229 11.8749 8.85266Z" fill="white"/>
</svg>
