<svg width="64" height="38" viewBox="0 0 64 38" fill="none" xmlns="http://www.w3.org/2000/svg">
<path d="M10.671 28.0708C10.8021 28.0708 10.9332 28.0539 11.0643 28.0202C11.553 27.9021 11.8391 27.8516 11.9106 27.8516C12.5424 27.8516 12.8523 28.29 12.8523 29.1499C12.8523 29.9424 12.6616 30.3471 12.2921 30.3471C12.1848 30.3471 12.0894 30.2797 12.0179 30.1279C11.6246 29.4028 11.3742 29.0319 11.2431 29.0319C10.7663 29.0319 10.5279 29.4872 10.5279 30.4146V30.7518C10.6114 31.2408 10.969 31.6117 11.6007 31.8478C11.708 31.9658 11.7557 32.0502 11.7557 32.1007C11.7557 32.3031 11.6722 32.438 11.5173 32.4886C11.2312 32.6066 11.0524 32.6909 10.9809 32.7415C10.7187 32.9607 10.5875 33.2136 10.5875 33.534V34.4277C10.5875 35.2202 10.8379 35.608 11.3266 35.608C11.6484 35.608 11.8272 35.3045 11.8749 34.7143C11.9106 34.2422 11.9345 33.9555 11.9583 33.8712C12.0656 33.534 12.2563 33.3654 12.5305 33.3654C12.7927 33.3654 12.9834 33.5509 13.0907 33.9218V34.1747C13.0907 35.1696 12.7212 35.7766 11.9941 36.0295C11.5769 36.1813 11.2431 36.2488 11.0167 36.2488C10.1942 36.2488 9.7889 35.8441 9.7889 35.0516V32.8258C9.77698 32.8258 9.64586 31.9827 9.3717 30.2965C9.34786 30.1616 9.33594 29.9762 9.33594 29.7232C9.33594 28.5598 9.53858 27.9696 9.93194 27.9696H10.1107C10.2895 28.0202 10.4326 28.0539 10.5279 28.0539C10.5399 28.0708 10.5875 28.0708 10.671 28.0708ZM9.77698 29.6052C9.77698 29.6895 9.77698 29.7907 9.7889 29.875C9.80082 29.9256 9.81273 29.9762 9.84849 29.993C9.94385 29.4703 9.99153 29.1331 9.99153 28.9476C9.99153 28.7958 9.9677 28.7284 9.9081 28.7284C9.82466 28.7284 9.77698 29.015 9.77698 29.6052ZM10.2895 32.1176C10.2895 32.1007 10.2299 31.8815 10.1107 31.4769C10.0392 31.2408 9.97962 31.0047 9.93194 30.7518V30.9204C9.93194 31.7129 10.0511 32.1176 10.2895 32.1176ZM10.0869 34.512C10.0869 34.7312 10.1227 34.8998 10.2061 35.0516V34.9673C10.1703 34.5626 10.1584 33.9893 10.1703 33.2473C10.1107 33.3991 10.0869 33.8206 10.0869 34.512ZM11.8749 35.6417H11.8987C12.0775 35.6417 12.2563 35.2033 12.4351 34.3434V34.2591C12.4351 34.1747 12.4113 34.1242 12.3755 34.1242C12.3636 34.1242 12.3278 34.3434 12.2563 34.7649C12.2086 35.0178 12.0775 35.3214 11.8749 35.6417Z" fill="white"/>
<path d="M10.2895 32.1176C10.2895 32.1007 10.2299 31.8815 10.1107 31.4769C10.0392 31.2408 9.97962 31.0047 9.93194 30.7518V30.9204C9.93194 31.7129 10.0511 32.1176 10.2895 32.1176Z" fill="white"/>
<path d="M9.77698 29.6052C9.77698 29.6895 9.77698 29.7907 9.7889 29.875C9.80082 29.9256 9.81273 29.9762 9.84849 29.993C9.94385 29.4703 9.99153 29.1331 9.99153 28.9476C9.99153 28.7958 9.9677 28.7284 9.9081 28.7284C9.82466 28.7284 9.77698 29.015 9.77698 29.6052Z" fill="white"/>
<path d="M10.0869 34.512C10.0869 34.7312 10.1227 34.8998 10.2061 35.0516V34.9673C10.1703 34.5626 10.1584 33.9893 10.1703 33.2473C10.1107 33.3991 10.0869 33.8206 10.0869 34.512Z" fill="white"/>
<path d="M11.8749 35.6417H11.8987C12.0775 35.6417 12.2563 35.2033 12.4351 34.3434V34.2591C12.4351 34.1747 12.4113 34.1242 12.3755 34.1242C12.3636 34.1242 12.3278 34.3434 12.2563 34.7649C12.2086 35.0178 12.0775 35.3214 11.8749 35.6417Z" fill="white"/>
</svg>
