<svg width="64" height="38" viewBox="0 0 64 38" fill="none" xmlns="http://www.w3.org/2000/svg">
<path d="M1.57343 14.6762C1.75223 14.6762 1.87143 14.6594 1.94295 14.6256C2.56279 14.339 2.90847 14.2041 2.97999 14.2041C3.69519 14.2041 4.05278 14.7943 4.05278 15.9746V16.3118C3.86207 17.0706 3.56407 17.4584 3.14687 17.4584C2.82503 17.4584 2.65815 17.273 2.65815 16.902V15.7554C2.65815 15.3001 2.46743 15.0809 2.07407 15.0809H1.90719C1.43039 15.3676 1.192 16.042 1.192 17.1212C1.192 17.5427 1.3112 17.8968 1.54959 18.1666C1.89527 18.5545 2.06215 18.7905 2.06215 18.8917C2.06215 18.976 2.05023 19.0434 2.02639 19.094C1.79991 19.6167 1.69263 19.9034 1.69263 19.954C1.69263 20.072 1.72839 20.2238 1.78799 20.443C1.93103 20.9657 2.00255 21.2861 2.00255 21.4041C2.00255 22.1966 1.72839 22.5844 1.16816 22.5844C0.786717 22.5844 0.560238 22.3484 0.476798 21.8762V21.539C0.476798 21.2861 0.488718 21.1006 0.512558 20.9826C0.607918 20.4261 0.655598 20.0552 0.655598 19.8697C0.655598 19.4144 0.572158 18.8748 0.417198 18.2509C0.226479 17.4922 0.13112 17.1043 0.1192 17.0706C0.0357599 16.6828 0 16.3287 0 16.042C0 15.2495 0.190719 14.7774 0.572158 14.6256H1.0728C1.192 14.6425 1.28736 14.6594 1.34695 14.6594C1.35887 14.6762 1.44231 14.6762 1.57343 14.6762ZM3.13495 15.4687V15.7554C3.13495 15.9409 3.11111 16.1938 3.07535 16.4804C3.06343 16.4804 3.06343 16.4804 3.06343 16.4973C3.06343 16.5479 3.07535 16.5648 3.11111 16.5648C3.21839 16.5648 3.27799 16.3456 3.27799 15.8903C3.27799 15.1315 3.01575 14.7437 2.49127 14.7437H2.44359C2.81311 14.946 3.05151 15.1821 3.13495 15.4687ZM0.441038 15.8903C0.441038 16.1264 0.464878 16.2781 0.512558 16.3456C0.631758 16.2275 0.691357 15.9577 0.691357 15.5362C0.691357 15.4519 0.667517 15.4182 0.607918 15.4182C0.500638 15.4182 0.441038 15.5699 0.441038 15.8903ZM1.10856 19.1278C1.10856 19.1446 1.10856 19.1446 1.12048 19.1446C1.15624 19.1446 1.16816 19.0772 1.16816 18.9423C1.16816 18.3858 1.0728 18.116 0.870157 18.116H0.834397C0.846317 18.4027 0.941676 18.7399 1.10856 19.1278ZM0.953596 21.2861V21.4884C0.989356 21.5221 1.0132 21.539 1.02512 21.539C1.12048 21.539 1.16816 21.3704 1.16816 21.05C1.16816 20.0889 1.14432 19.5493 1.10856 19.4313L1.0728 19.465C0.989356 19.583 0.953596 20.1901 0.953596 21.2861Z" fill="white"/>
<path d="M0.953596 21.2861V21.4884C0.989356 21.5221 1.0132 21.539 1.02512 21.539C1.12048 21.539 1.16816 21.3704 1.16816 21.05C1.16816 20.0889 1.14432 19.5493 1.10856 19.4313L1.0728 19.465C0.989356 19.583 0.953596 20.1901 0.953596 21.2861Z" fill="white"/>
<path d="M1.10856 19.1278C1.10856 19.1446 1.10856 19.1446 1.12048 19.1446C1.15624 19.1446 1.16816 19.0772 1.16816 18.9423C1.16816 18.3858 1.0728 18.116 0.870157 18.116H0.834397C0.846317 18.4027 0.941676 18.7399 1.10856 19.1278Z" fill="white"/>
<path d="M0.441038 15.8903C0.441038 16.1264 0.464878 16.2781 0.512558 16.3456C0.631758 16.2275 0.691357 15.9577 0.691357 15.5362C0.691357 15.4519 0.667517 15.4182 0.607918 15.4182C0.500638 15.4182 0.441038 15.5699 0.441038 15.8903Z" fill="white"/>
<path d="M3.13495 15.4687V15.7554C3.13495 15.9409 3.11111 16.1938 3.07535 16.4804C3.06343 16.4804 3.06343 16.4804 3.06343 16.4973C3.06343 16.5479 3.07535 16.5648 3.11111 16.5648C3.21839 16.5648 3.27799 16.3456 3.27799 15.8903C3.27799 15.1315 3.01575 14.7437 2.49127 14.7437H2.44359C2.81311 14.946 3.05151 15.1821 3.13495 15.4687Z" fill="white"/>
</svg>
