<svg width="64" height="38" viewBox="0 0 64 38" fill="none" xmlns="http://www.w3.org/2000/svg">
<path d="M26.2266 15.9405C26.2266 14.5409 26.7749 13.8496 27.8715 13.8496C28.241 13.8496 28.4318 14.0688 28.4318 14.5241V14.6927C28.3722 15.0299 28.3245 15.2829 28.3126 15.4515V15.7887C28.3126 16.969 28.5748 17.5592 29.0874 17.5592C29.4688 17.5592 29.6714 17.2557 29.6833 16.6655C29.6953 15.8562 29.7072 15.4515 29.7191 15.4515C29.8741 14.6253 30.1482 14.2206 30.5654 14.2206C30.8396 14.2206 30.9707 14.4061 30.9707 14.7939C30.9707 14.9119 30.9588 14.9962 30.9349 15.0637C30.6727 15.9911 30.5416 16.5644 30.5416 16.7836C30.5416 17.222 30.6489 17.6941 30.8515 18.1831C30.9111 18.3517 31.1018 18.7395 31.4117 19.3634C31.6501 19.8524 31.7693 20.2908 31.7693 20.7124V21.977C31.7693 22.8032 31.4713 23.2079 30.8753 23.2079C30.5297 23.2079 30.2913 22.9719 30.1601 22.4829V22.1794C30.1601 21.9264 30.1721 21.7409 30.1959 21.6398C30.3985 20.7967 30.4939 20.2234 30.4939 19.903C30.4939 19.0093 30.2913 18.5709 29.8741 18.5709C29.5522 18.5709 29.3854 18.8576 29.3854 19.414V19.5826C29.3973 19.7175 29.4092 19.8187 29.4211 19.8693V20.3751C29.3854 20.5606 29.3138 20.6449 29.2066 20.6449C29.0635 20.6449 28.9801 20.5269 28.9682 20.2908C28.8966 19.4477 28.7417 19.0262 28.4914 19.0262C28.1695 19.0262 28.0146 19.3803 28.0146 20.1053V20.4257C28.0503 20.6787 28.0622 20.8473 28.0742 20.9653V21.3194C28.0742 22.1625 27.8954 22.584 27.5258 22.584C27.1921 22.584 27.0252 22.3311 27.0252 21.8084C27.0252 21.6229 27.061 21.3868 27.1206 21.1002C27.2636 20.4426 27.3351 19.9873 27.3351 19.7344C27.3351 19.2791 27.2755 18.925 27.1563 18.6552C26.8583 18.0145 26.6318 17.5424 26.5007 17.222C26.3219 16.8173 26.2266 16.3957 26.2266 15.9405ZM30.0529 16.126H30.1005C30.1363 15.8899 30.1959 15.6201 30.2793 15.3166C30.3032 15.2491 30.3151 15.1986 30.3151 15.148C30.3151 15.0805 30.2793 15.0468 30.2197 15.0637C30.2317 15.0974 30.2197 15.148 30.1959 15.1986C30.1005 15.4178 30.0529 15.7381 30.0529 16.126ZM26.763 15.8224C26.763 16.1091 26.8464 16.2609 27.0252 16.2609C27.1086 16.2609 27.1563 16.0079 27.1563 15.5189C26.8941 15.5189 26.763 15.6201 26.763 15.8224ZM29.6238 17.8964V17.947C29.6834 17.947 29.8026 17.8796 29.9813 17.7278C30.0648 17.4749 30.1125 17.0871 30.1125 16.5306C30.1125 16.4126 30.1125 16.3452 30.1005 16.2946L30.0767 16.244L29.9575 17.3063C29.9456 17.4412 29.8264 17.6435 29.6238 17.8964ZM30.9111 20.2571C30.9111 20.4932 30.8873 20.7461 30.8515 21.0159C30.8277 21.1508 30.8038 21.2688 30.7919 21.3531C30.6965 21.7915 30.6489 22.0445 30.6489 22.1288C30.8992 22.1288 31.0303 21.5892 31.0303 20.5269V20.0042C30.9945 19.6501 30.8992 19.3297 30.7561 19.0768V19.1611C30.8634 19.7513 30.9111 20.1222 30.9111 20.2571ZM27.657 19.6669L27.6331 19.7512C27.6093 20.0716 27.5735 20.392 27.5378 20.7124C27.5139 20.8979 27.4782 21.1676 27.4186 21.5217C27.4066 21.6061 27.4066 21.6904 27.4066 21.7915C27.4901 21.7915 27.5616 21.4037 27.6331 20.6281C27.645 20.392 27.657 20.1391 27.657 19.8693V19.6669Z" fill="white"/>
<path d="M26.763 15.8224C26.763 16.1091 26.8464 16.2609 27.0252 16.2609C27.1086 16.2609 27.1563 16.0079 27.1563 15.5189C26.8941 15.5189 26.763 15.6201 26.763 15.8224Z" fill="white"/>
<path d="M29.6238 17.8964V17.947C29.6834 17.947 29.8026 17.8796 29.9813 17.7278C30.0648 17.4749 30.1125 17.0871 30.1125 16.5306C30.1125 16.4126 30.1125 16.3452 30.1005 16.2946L30.0767 16.244L29.9575 17.3063C29.9456 17.4412 29.8264 17.6435 29.6238 17.8964Z" fill="white"/>
<path d="M30.9111 20.2571C30.9111 20.4932 30.8873 20.7461 30.8515 21.0159C30.8277 21.1508 30.8038 21.2688 30.7919 21.3531C30.6965 21.7915 30.6489 22.0445 30.6489 22.1288C30.8992 22.1288 31.0303 21.5892 31.0303 20.5269V20.0042C30.9945 19.6501 30.8992 19.3297 30.7561 19.0768V19.1611C30.8634 19.7513 30.9111 20.1222 30.9111 20.2571Z" fill="white"/>
<path d="M30.0529 16.126H30.1005C30.1363 15.8899 30.1959 15.6201 30.2793 15.3166C30.3032 15.2491 30.3151 15.1986 30.3151 15.148C30.3151 15.0805 30.2793 15.0468 30.2197 15.0637C30.2317 15.0974 30.2197 15.148 30.1959 15.1986C30.1005 15.4178 30.0529 15.7381 30.0529 16.126Z" fill="white"/>
<path d="M27.657 19.6669L27.6331 19.7512C27.6093 20.0716 27.5735 20.392 27.5378 20.7124C27.5139 20.8979 27.4782 21.1676 27.4186 21.5217C27.4066 21.6061 27.4066 21.6904 27.4066 21.7915C27.4901 21.7915 27.5616 21.4037 27.6331 20.6281C27.645 20.392 27.657 20.1391 27.657 19.8693V19.6669Z" fill="white"/>
</svg>
