<svg width="64" height="38" viewBox="0 0 64 38" fill="none" xmlns="http://www.w3.org/2000/svg">
<path d="M36.249 28.6769C36.249 27.8676 36.5232 27.4629 37.0715 27.4629C37.8225 27.4629 38.5853 27.7833 39.384 28.424C40.0634 28.9805 40.3972 29.5875 40.3972 30.2282V30.3631C40.2899 31.2231 40.2422 31.8976 40.2422 32.3865C40.2422 32.7069 40.266 32.9767 40.3018 33.2296C40.421 33.9547 40.4806 34.3762 40.4806 34.528C40.4806 35.5228 40.1826 36.0287 39.5747 36.0287C39.4912 36.0287 39.4078 36.0118 39.3244 35.9781C38.7999 35.8095 38.5138 35.7252 38.4542 35.7252C38.2754 35.7252 38.1205 35.7589 38.0132 35.8432C37.4768 36.2479 37.1549 36.4502 37.0596 36.4502C36.5947 36.4502 36.3682 36.0624 36.3682 35.3036C36.3682 35.1182 36.3801 34.9664 36.404 34.8315C36.5351 34.1065 36.6424 33.55 36.702 33.1959C36.7377 32.9598 36.7616 32.6563 36.7616 32.2685C36.7616 31.5097 36.6662 30.7509 36.4874 29.9922C36.3325 29.3008 36.249 28.8624 36.249 28.6769ZM36.7258 28.3397V28.542C36.7258 28.7275 36.7497 28.8118 36.7854 28.8118C36.8689 28.8118 36.9046 28.6938 36.9046 28.4746C36.9046 28.3566 36.8689 28.306 36.7854 28.306C36.7497 28.306 36.7377 28.3228 36.7258 28.3397ZM37.441 29.9416V30.2451C37.5125 30.7004 37.596 31.1388 37.6794 31.594C37.7152 31.7458 37.7748 31.9819 37.8582 32.3022C37.9059 32.5214 37.9655 32.8418 38.037 33.2802C38.1443 33.8367 38.335 34.1233 38.5853 34.1233C38.8118 34.1233 38.931 33.9041 38.931 33.4488V33.1959C38.931 33.061 38.9191 32.8587 38.9072 32.6057C38.8953 32.5889 38.8953 32.5383 38.8953 32.454C38.8953 32.2854 38.9072 32.0999 38.931 31.8807C39.0145 31.0545 39.0502 30.6161 39.0502 30.5317C39.0502 29.402 38.7284 28.8456 38.0966 28.8456C37.6556 28.8456 37.441 29.2165 37.441 29.9416ZM39.527 30.262C39.527 30.4331 39.5169 30.6187 39.5059 30.8186C39.505 30.8353 39.5041 30.8521 39.5032 30.869C39.4197 31.7289 39.3721 32.2011 39.3721 32.2854C39.3721 32.5383 39.372 32.6732 39.384 32.7238C39.384 32.825 39.3959 32.9598 39.4078 33.1453V33.3814C39.4078 33.9547 39.2886 34.41 39.0502 34.7472C39.0383 34.7641 39.0502 34.7978 39.0621 34.8146C38.9787 34.8146 38.9191 34.8315 38.9072 34.8821H38.9906C39.0502 34.8821 39.1098 34.8315 39.1694 34.7472C39.1813 34.7303 39.1933 34.7472 39.2052 34.7809V34.8484C39.229 34.8484 39.2529 34.8146 39.2886 34.7472L39.2648 34.7135C39.2886 34.7303 39.3125 34.7135 39.3244 34.6629C39.3244 34.7303 39.3363 34.7641 39.3601 34.7641C39.5151 34.7641 39.5866 34.4606 39.5866 33.8367C39.5866 33.6655 39.5765 33.4801 39.5655 33.2802C39.5646 33.2635 39.5637 33.2466 39.5628 33.2296C39.5389 33.2465 39.5032 33.2296 39.4674 33.1453C39.527 33.1622 39.5508 33.0947 39.5508 32.943H39.5032V32.6057C39.5985 31.6109 39.6462 30.9196 39.6462 30.5317C39.6462 29.9753 39.4912 29.4863 39.1694 29.0648C39.4078 29.4694 39.527 29.8741 39.527 30.262ZM37.143 32.7912C37.143 33.1285 37.1073 33.6175 37.0238 34.2413C37.0238 34.2751 37.0119 34.3257 37 34.3762C36.9642 34.5954 36.9285 34.8315 36.9046 35.0507C36.8927 35.1687 36.9285 35.2193 36.9881 35.2193C36.9881 34.899 37.0119 34.7472 37.0715 34.7472H37.1192L37.0834 34.7978C37.1073 34.8484 37.143 34.8821 37.1907 34.8821C37.2265 34.8821 37.2384 34.8315 37.2384 34.7472C37.2384 34.7303 37.2265 34.7303 37.2026 34.7135C37.1669 34.5617 37.143 34.4605 37.143 34.41C37.143 34.3257 37.1549 34.2919 37.1907 34.2919C37.2145 34.2919 37.2503 34.3257 37.3099 34.3762V32.4709C37.3099 32.5214 37.2861 32.3697 37.2384 32.0156C37.1192 31.1894 37.0477 30.7172 37.0238 30.6161V30.7847C37.1073 31.965 37.143 32.6395 37.143 32.7912ZM39.527 34.0727C39.5032 33.9041 39.4912 33.7524 39.4912 33.6343C39.4912 33.6006 39.4913 33.5669 39.5032 33.5331C39.5389 33.6175 39.5508 33.7018 39.5628 33.7861C39.5628 33.8872 39.5508 33.9884 39.527 34.0727Z" fill="white"/>
<path d="M37.143 32.7912C37.143 33.1285 37.1073 33.6175 37.0238 34.2413C37.0238 34.2751 37.0119 34.3257 37 34.3762C36.9642 34.5954 36.9285 34.8315 36.9046 35.0507C36.8927 35.1687 36.9285 35.2193 36.9881 35.2193C36.9881 34.899 37.0119 34.7472 37.0715 34.7472H37.1192L37.0834 34.7978C37.1073 34.8484 37.143 34.8821 37.1907 34.8821C37.2265 34.8821 37.2384 34.8315 37.2384 34.7472C37.2384 34.7303 37.2265 34.7303 37.2026 34.7135C37.1669 34.5617 37.143 34.4605 37.143 34.41C37.143 34.3257 37.1549 34.2919 37.1907 34.2919C37.2145 34.2919 37.2503 34.3257 37.3099 34.3762V32.4709C37.3099 32.5214 37.2861 32.3697 37.2384 32.0156C37.1192 31.1894 37.0477 30.7172 37.0238 30.6161V30.7847C37.1073 31.965 37.143 32.6395 37.143 32.7912Z" fill="white"/>
<path d="M36.7258 28.3397V28.542C36.7258 28.7275 36.7497 28.8118 36.7854 28.8118C36.8689 28.8118 36.9046 28.6938 36.9046 28.4746C36.9046 28.3566 36.8689 28.306 36.7854 28.306C36.7497 28.306 36.7377 28.3228 36.7258 28.3397Z" fill="white"/>
<path fill-rule="evenodd" clip-rule="evenodd" d="M39.527 30.262C39.527 30.4331 39.5169 30.6187 39.5059 30.8186L39.5032 30.869C39.4197 31.7289 39.3721 32.2011 39.3721 32.2854C39.3721 32.5383 39.372 32.6732 39.384 32.7238C39.384 32.825 39.3959 32.9598 39.4078 33.1453V33.3814C39.4078 33.9547 39.2886 34.41 39.0502 34.7472C39.0383 34.7641 39.0502 34.7978 39.0621 34.8146C38.9787 34.8146 38.9191 34.8315 38.9072 34.8821H38.9906C39.0502 34.8821 39.1098 34.8315 39.1694 34.7472C39.1813 34.7303 39.1933 34.7472 39.2052 34.7809V34.8484C39.229 34.8484 39.2529 34.8146 39.2886 34.7472L39.2648 34.7135C39.2886 34.7303 39.3125 34.7135 39.3244 34.6629C39.3244 34.7303 39.3363 34.7641 39.3601 34.7641C39.5151 34.7641 39.5866 34.4606 39.5866 33.8367C39.5866 33.6655 39.5765 33.4801 39.5655 33.2802L39.5628 33.2296C39.5389 33.2465 39.5032 33.2296 39.4674 33.1453C39.527 33.1622 39.5508 33.0947 39.5508 32.943H39.5032V32.6057C39.5985 31.6109 39.6462 30.9196 39.6462 30.5317C39.6462 29.9753 39.4912 29.4863 39.1694 29.0648C39.4078 29.4694 39.527 29.8741 39.527 30.262ZM39.4912 33.6343C39.4912 33.7524 39.5032 33.9041 39.527 34.0727C39.5508 33.9884 39.5628 33.8872 39.5628 33.7861C39.5508 33.7018 39.5389 33.6175 39.5032 33.5331C39.4913 33.5669 39.4912 33.6006 39.4912 33.6343Z" fill="white"/>
</svg>
