<svg width="64" height="38" viewBox="0 0 64 38" fill="none" xmlns="http://www.w3.org/2000/svg">
<path d="M20.3828 2.32693C20.3828 0.775644 20.8119 0 21.6821 0C22.6476 0 23.1244 0.691335 23.1244 2.09087V2.44496C23.0529 2.7822 22.7668 3.43981 22.2662 4.4178C22.0874 4.90679 21.992 5.31148 21.992 5.63185C21.992 5.85105 22.0039 6.00281 22.0278 6.10398C22.1231 6.55925 22.2304 6.99766 22.3496 7.4192C22.5046 8.00937 22.7787 8.31288 23.1482 8.31288C23.6608 8.31288 23.9707 7.9082 24.0542 7.08197V6.07026C24.0184 5.59813 24.0065 5.24403 23.9946 5.00796C23.9826 4.97424 23.9826 4.87307 23.9826 4.68759C23.9826 4.51897 23.9826 4.4178 23.9946 4.38408C24.0422 3.91194 24.0661 3.55785 24.078 3.32178C24.1018 2.79906 24.1138 2.29321 24.1138 1.77049C24.1972 0.708197 24.5071 0.168618 25.0197 0.168618C25.3654 0.168618 25.6038 0.539578 25.7468 1.29836C25.8064 1.61874 25.8422 2.00656 25.8422 2.4281C25.8422 2.95082 25.7826 3.42295 25.6634 3.82764C25.4846 4.45152 25.2938 5.07541 25.0912 5.68244C25.0197 6.01967 24.9124 6.86276 24.7694 8.21171C24.6382 9.03794 24.2568 9.44262 23.6012 9.44262C22.6357 9.44262 22.0158 8.93677 21.7298 7.92506C21.5748 7.38548 21.4198 6.82904 21.2768 6.2726C21.2172 6.0534 21.1814 5.59813 21.1934 4.88993C21.1576 4.65386 21.0861 4.43466 20.9788 4.21546L20.5974 3.40609C20.4543 3.05199 20.3828 2.68103 20.3828 2.32693ZM24.674 1.55129C24.674 2.074 24.6621 2.57986 24.6502 3.06885C24.6382 3.1363 24.6263 3.23747 24.6144 3.37237C24.5071 4.19859 24.4594 4.68759 24.4594 4.85621C24.519 4.85621 24.5429 4.83934 24.5548 4.80562C24.7813 3.72646 24.8886 2.76534 24.8886 1.92225V1.38267C24.8647 1.29836 24.8409 1.26464 24.8051 1.26464C24.7574 1.26464 24.7098 1.36581 24.674 1.55129ZM20.9788 2.12459C20.9788 2.39438 21.0622 2.52927 21.2172 2.52927C21.3126 2.52927 21.3602 2.47869 21.3602 2.39438C21.4675 2.39438 21.5152 2.2089 21.5152 1.83794C21.5152 1.51756 21.4794 1.34895 21.396 1.34895C21.1219 1.34895 20.9788 1.60187 20.9788 2.12459ZM21.539 5.58126C21.539 5.6993 21.539 5.78361 21.551 5.81733L21.5748 5.90164V5.09227C21.551 5.14286 21.539 5.31148 21.539 5.58126ZM24.1972 8.07681V8.1274C24.2806 8.07681 24.3641 7.7733 24.4356 7.25059C24.4714 6.96393 24.4952 6.60984 24.4952 6.17143C24.4952 6.12084 24.4833 6.08712 24.4714 6.07026C24.2926 6.52553 24.1972 7.2 24.1972 8.07681Z" fill="white"/>
<path d="M20.9788 2.12459C20.9788 2.39438 21.0622 2.52927 21.2172 2.52927C21.3126 2.52927 21.3602 2.47869 21.3602 2.39438C21.4675 2.39438 21.5152 2.2089 21.5152 1.83794C21.5152 1.51756 21.4794 1.34895 21.396 1.34895C21.1219 1.34895 20.9788 1.60187 20.9788 2.12459Z" fill="white"/>
<path d="M24.674 1.55129C24.674 2.074 24.6621 2.57986 24.6502 3.06885C24.6382 3.1363 24.6263 3.23747 24.6144 3.37237C24.5071 4.19859 24.4594 4.68759 24.4594 4.85621C24.519 4.85621 24.5429 4.83934 24.5548 4.80562C24.7813 3.72646 24.8886 2.76534 24.8886 1.92225V1.38267C24.8647 1.29836 24.8409 1.26464 24.8051 1.26464C24.7574 1.26464 24.7098 1.36581 24.674 1.55129Z" fill="white"/>
<path d="M24.1972 8.07681V8.1274C24.2806 8.07681 24.3641 7.7733 24.4356 7.25059C24.4714 6.96393 24.4952 6.60984 24.4952 6.17143C24.4952 6.12084 24.4833 6.08712 24.4714 6.07026C24.2926 6.52553 24.1972 7.2 24.1972 8.07681Z" fill="white"/>
<path d="M21.539 5.58126C21.539 5.6993 21.539 5.78361 21.551 5.81733L21.5748 5.90164V5.09227C21.551 5.14286 21.539 5.31148 21.539 5.58126Z" fill="white"/>
</svg>
