<svg width="64" height="38" viewBox="0 0 64 38" fill="none" xmlns="http://www.w3.org/2000/svg">
<path d="M55.9839 15.7723C55.9839 14.7268 56.5322 14.2041 57.6169 14.2041C58.9162 14.2041 59.5718 14.9123 59.5718 16.3287C59.5718 17.2561 59.4168 17.998 59.095 18.5376C58.6301 19.1278 58.4036 19.5999 58.4036 19.9371C58.4036 20.4767 58.5705 20.7465 58.9162 20.7465C59.0235 20.7465 59.1308 20.6959 59.238 20.6116C59.536 20.3587 59.7268 20.2238 59.8102 20.2238C60.0844 20.2238 60.2274 20.5104 60.2274 21.0669C60.2274 22.0954 59.9652 22.6013 59.4526 22.6013C58.9996 22.6013 58.5228 22.1966 58.0222 21.3704C57.8792 21.1512 57.7242 21.0331 57.5454 21.0331C57.2832 21.0331 57.1282 21.2355 57.0924 21.6233C57.0328 22.1966 56.9852 22.517 56.9732 22.5844C56.8898 22.9048 56.7229 23.0566 56.4726 23.0566C56.0077 23.0566 55.7812 22.6182 55.7812 21.7245C55.7812 21.4041 55.7932 21.2018 55.817 21.1175C55.9481 20.6453 56.0673 20.1732 56.1746 19.6842C56.2938 19.1446 56.3534 18.6893 56.3534 18.3352C56.3534 18.0655 56.3176 17.7451 56.2342 17.3573C56.0673 16.6153 55.9839 16.0926 55.9839 15.7723ZM56.4607 15.6879C56.4607 15.8734 56.4726 15.9746 56.5084 15.9746C56.6872 15.9746 56.7706 15.7891 56.7706 15.4013C56.7706 15.3001 56.711 15.2495 56.5799 15.2495C56.4964 15.2495 56.4607 15.4013 56.4607 15.6879ZM57.0567 17.2224C57.0567 18.2172 57.2236 18.7231 57.5454 18.7231C57.7957 18.7231 57.9268 18.4533 57.9268 17.9306C57.9268 16.9863 57.76 16.5142 57.4262 16.5142C57.1759 16.5142 57.0567 16.7502 57.0567 17.2224ZM58.1056 18.7905V18.9423C58.3798 18.9423 58.5228 18.4533 58.5228 17.4922C58.5228 17.3741 58.5109 17.3067 58.499 17.273C58.4394 17.7619 58.3083 18.2678 58.1056 18.7905ZM56.6752 19.1446C56.6752 19.5324 56.6514 19.8022 56.6156 19.9371C56.3534 20.7971 56.2223 21.3535 56.2223 21.6064C56.2223 21.6908 56.2223 21.7919 56.2342 21.8762C56.2223 21.9268 56.2461 21.9605 56.2938 21.9605C56.3176 21.9605 56.3415 21.8256 56.3772 21.539C56.413 21.2523 56.5799 20.7465 56.8898 20.0214C56.9256 19.9203 56.9494 19.8191 56.9494 19.7179V19.5999C56.9256 19.465 56.8898 19.2626 56.8302 19.0097C56.7706 18.5882 56.711 18.1666 56.6752 17.7451L56.6514 17.6608C56.6395 17.7282 56.6395 17.7957 56.6395 17.8463C56.6395 17.9643 56.6395 18.0149 56.6514 18.0317C56.6514 18.1835 56.6633 18.4196 56.6752 18.7062V19.1446Z" fill="white"/>
<path d="M58.1056 18.7905V18.9423C58.3798 18.9423 58.5228 18.4533 58.5228 17.4922C58.5228 17.3741 58.5109 17.3067 58.499 17.273C58.4394 17.7619 58.3083 18.2678 58.1056 18.7905Z" fill="white"/>
<path d="M56.6752 19.1446C56.6752 19.5324 56.6514 19.8022 56.6156 19.9371C56.3534 20.7971 56.2223 21.3535 56.2223 21.6064C56.2223 21.6908 56.2223 21.7919 56.2342 21.8762C56.2223 21.9268 56.2461 21.9605 56.2938 21.9605C56.3176 21.9605 56.3415 21.8256 56.3772 21.539C56.413 21.2523 56.5799 20.7465 56.8898 20.0214C56.9256 19.9203 56.9494 19.8191 56.9494 19.7179V19.5999C56.9256 19.465 56.8898 19.2626 56.8302 19.0097C56.7706 18.5882 56.711 18.1666 56.6752 17.7451L56.6514 17.6608C56.6395 17.7282 56.6395 17.7957 56.6395 17.8463C56.6395 17.9643 56.6395 18.0149 56.6514 18.0317C56.6514 18.1835 56.6633 18.4196 56.6752 18.7062V19.1446Z" fill="white"/>
<path d="M56.4607 15.6879C56.4607 15.8734 56.4726 15.9746 56.5084 15.9746C56.6872 15.9746 56.7706 15.7891 56.7706 15.4013C56.7706 15.3001 56.711 15.2495 56.5799 15.2495C56.4964 15.2495 56.4607 15.4013 56.4607 15.6879Z" fill="white"/>
</svg>
