<svg width="64" height="38" viewBox="0 0 64 38" fill="none" xmlns="http://www.w3.org/2000/svg">
<path d="M18.0534 15.3165C18.0534 14.2542 18.3514 13.7314 18.9594 13.7314C19.4481 13.7314 19.6984 14.1024 19.6984 14.8443V15.0804C19.615 15.7211 19.5673 16.1933 19.5434 16.5136V16.6823C19.5434 17.3062 19.6984 18.0818 19.9964 19.0429C20.1037 19.3464 20.1871 19.5656 20.2348 19.7174C20.354 20.1052 20.4136 20.5436 20.4136 21.0326C20.4136 22.0106 20.199 22.5333 19.758 22.5839C19.1501 22.6008 18.7806 22.6176 18.6256 22.6682C18.1488 22.82 17.8389 22.8874 17.6958 22.8874H17.3978C16.8853 22.6682 16.623 22.1792 16.623 21.4542C16.623 20.0715 17.0402 19.3802 17.8866 19.3802C18.2203 19.3802 18.3872 19.5488 18.3872 19.9029C18.3872 19.9872 18.3753 20.0715 18.3514 20.1389C18.1726 20.7122 18.0773 21.0495 18.0773 21.1338C18.0773 21.5722 18.2561 21.7914 18.6137 21.7914C19.1382 21.7914 19.4004 21.3024 19.4004 20.3413C19.4004 19.3464 19.2454 18.5371 18.9474 17.9469L18.2918 16.6317C18.1369 16.3113 18.0534 15.8729 18.0534 15.3165ZM18.5898 14.9118V15.1478C18.5898 15.4008 18.6256 15.5525 18.709 15.62C18.7686 15.5188 18.8044 15.3165 18.8044 14.9961V14.8275C18.7925 14.7937 18.7686 14.7769 18.709 14.7769C18.6494 14.7769 18.6137 14.8275 18.5898 14.9118ZM19.5792 18.908V18.9923C19.6984 19.5488 19.758 20.0378 19.758 20.4425C19.758 21.235 19.5315 21.7914 19.0666 22.078H19.1143C19.6269 22.078 19.8772 21.6059 19.8772 20.6448C19.8772 20.2907 19.7818 19.7005 19.5792 18.908ZM17.1237 21.2855C17.1237 21.471 17.1594 21.5722 17.219 21.5722C17.2548 21.5722 17.2667 21.5553 17.2786 21.5216C17.2906 21.4036 17.3025 21.2687 17.3144 21.1506C17.3263 21.0663 17.3382 20.9314 17.374 20.7628V20.5942C17.2071 20.5942 17.1237 20.8303 17.1237 21.2855Z" fill="white"/>
<path d="M19.5792 18.908V18.9923C19.6984 19.5488 19.758 20.0378 19.758 20.4425C19.758 21.235 19.5315 21.7914 19.0666 22.078H19.1143C19.6269 22.078 19.8772 21.6059 19.8772 20.6448C19.8772 20.2907 19.7818 19.7005 19.5792 18.908Z" fill="white"/>
<path d="M17.1237 21.2855C17.1237 21.471 17.1594 21.5722 17.219 21.5722C17.2548 21.5722 17.2667 21.5553 17.2786 21.5216C17.2906 21.4036 17.3025 21.2687 17.3144 21.1506C17.3263 21.0663 17.3382 20.9314 17.374 20.7628V20.5942C17.2071 20.5942 17.1237 20.8303 17.1237 21.2855Z" fill="white"/>
<path d="M18.5898 14.9118V15.1478C18.5898 15.4008 18.6256 15.5525 18.709 15.62C18.7686 15.5188 18.8044 15.3165 18.8044 14.9961V14.8275C18.7925 14.7937 18.7686 14.7769 18.709 14.7769C18.6494 14.7769 18.6137 14.8275 18.5898 14.9118Z" fill="white"/>
</svg>
