<svg width="64" height="38" viewBox="0 0 64 38" fill="none" xmlns="http://www.w3.org/2000/svg">
<path d="M58.9932 2.29367C58.9932 1.1302 59.3508 0.540039 60.066 0.540039C60.4832 0.540039 60.6977 0.910999 60.6977 1.63606V1.88899C60.6739 2.02388 60.662 2.12505 60.662 2.1925V2.52973C60.662 2.985 60.7812 3.40655 61.0196 3.8281C61.4368 4.55315 61.7348 4.92411 61.9016 4.92411C62.0804 4.92411 62.1877 4.80608 62.2473 4.55315V4.23278C62.2473 3.81123 62.1996 3.15362 62.0924 2.27681V2.1925C62.0924 1.4843 62.2712 1.1302 62.6287 1.1302C62.9029 1.1302 63.0579 1.34941 63.0817 1.80468V2.47915C63.0817 3.27165 63.0221 4.13161 62.9029 5.05901C62.891 5.14332 62.891 5.22763 62.891 5.31194C62.891 5.93582 63.1413 6.69461 63.6419 7.58828C63.8803 8.00983 63.9995 8.44824 63.9995 8.90351C63.9995 9.67915 63.7492 10.067 63.2605 10.067C62.891 10.067 62.5453 9.7466 62.2115 9.10585C61.8778 8.4651 61.6632 7.87493 61.556 7.33536C61.4606 6.76205 61.3891 6.34051 61.3533 6.07072C61.246 5.48055 61.0553 5.17704 60.7573 5.17704C60.4593 5.17704 60.3044 5.42997 60.3044 5.95269C60.3044 6.13817 60.3282 6.30678 60.364 6.44168L60.7573 7.7569C60.7692 7.82435 60.7812 7.99297 60.7812 8.24589C60.7812 9.0384 60.5308 9.44308 60.0302 9.44308C59.7084 9.44308 59.5534 9.17329 59.5534 8.63372C59.5534 8.54941 59.5534 8.4651 59.5653 8.38079C59.8037 7.38594 59.9229 6.66088 59.9229 6.23934C59.9229 5.51428 59.768 4.73863 59.4461 3.9124C59.2912 3.55831 59.1839 3.28852 59.1124 3.1199C59.0289 2.90069 58.9932 2.63091 58.9932 2.29367ZM59.4342 1.87212L59.4461 1.88899C59.47 1.85526 59.4938 1.8384 59.5296 1.8384C59.5415 1.8384 59.5534 1.8384 59.5653 1.85526C59.5176 1.93957 59.4938 2.0576 59.4938 2.17564C59.4938 2.4117 59.5534 2.52973 59.6607 2.52973C59.768 2.52973 59.8276 2.27681 59.8276 1.75409C59.8276 1.70351 59.7918 1.66978 59.7203 1.66978C59.7203 1.65292 59.7203 1.63606 59.7084 1.60233C59.7322 1.51802 59.7441 1.45058 59.7441 1.38313C59.5415 1.38313 59.4342 1.55175 59.4342 1.87212ZM62.3903 1.77095C62.3903 1.82154 62.4142 1.85526 62.4499 1.85526C62.4261 2.04074 62.4619 2.44543 62.5691 3.03559V1.80468C62.5691 1.72037 62.5334 1.66978 62.4499 1.66978C62.4142 1.66978 62.3903 1.70351 62.3903 1.77095ZM62.4738 4.83981C62.4738 4.89039 62.4738 4.92411 62.4857 4.9747C62.5691 4.89039 62.6049 4.63746 62.6049 4.18219V4.08102L62.5691 4.13161C62.5095 4.21592 62.4738 4.45198 62.4738 4.83981ZM62.2235 7.08243H62.2473C62.14 6.57657 62.0923 6.20561 62.1281 5.98641C62.0685 5.91896 62.0208 5.86838 61.9732 5.81779C61.7467 5.58173 61.5679 5.37938 61.4368 5.22763L61.8301 5.93582C61.8539 5.98641 61.9374 6.27306 62.0924 6.77891C62.152 6.98126 62.1877 7.08243 62.2235 7.08243ZM59.9706 8.48196C59.9706 8.56627 59.9825 8.59999 60.0064 8.59999C60.1256 8.59999 60.1852 8.26276 60.1852 7.58828C60.1852 7.16674 60.1613 6.74519 60.1256 6.35737C60.1136 7.03184 60.066 7.72318 59.9825 8.43137C59.9706 8.43137 59.9706 8.44824 59.9706 8.48196Z" fill="white"/>
<path d="M59.4342 1.87212L59.4461 1.88899C59.47 1.85526 59.4938 1.8384 59.5296 1.8384C59.5415 1.8384 59.5534 1.8384 59.5653 1.85526C59.5176 1.93957 59.4938 2.0576 59.4938 2.17564C59.4938 2.4117 59.5534 2.52973 59.6607 2.52973C59.768 2.52973 59.8276 2.27681 59.8276 1.75409C59.8276 1.70351 59.7918 1.66978 59.7203 1.66978C59.7203 1.65292 59.7203 1.63606 59.7084 1.60233C59.7322 1.51802 59.7441 1.45058 59.7441 1.38313C59.5415 1.38313 59.4342 1.55175 59.4342 1.87212Z" fill="white"/>
<path d="M62.2235 7.08243H62.2473C62.14 6.57657 62.0923 6.20561 62.1281 5.98641C62.0685 5.91896 62.0208 5.86838 61.9732 5.81779C61.7467 5.58173 61.5679 5.37938 61.4368 5.22763L61.8301 5.93582C61.8539 5.98641 61.9374 6.27306 62.0924 6.77891C62.152 6.98126 62.1877 7.08243 62.2235 7.08243Z" fill="white"/>
<path d="M62.4738 4.83981C62.4738 4.89039 62.4738 4.92411 62.4857 4.9747C62.5691 4.89039 62.6049 4.63746 62.6049 4.18219V4.08102L62.5691 4.13161C62.5095 4.21592 62.4738 4.45198 62.4738 4.83981Z" fill="white"/>
<path d="M62.3903 1.77095C62.3903 1.82154 62.4142 1.85526 62.4499 1.85526C62.4261 2.04074 62.4619 2.44543 62.5691 3.03559V1.80468C62.5691 1.72037 62.5334 1.66978 62.4499 1.66978C62.4142 1.66978 62.3903 1.70351 62.3903 1.77095Z" fill="white"/>
<path d="M59.9706 8.48196C59.9706 8.56627 59.9825 8.59999 60.0064 8.59999C60.1256 8.59999 60.1852 8.26276 60.1852 7.58828C60.1852 7.16674 60.1613 6.74519 60.1256 6.35737C60.1136 7.03184 60.066 7.72318 59.9825 8.43137C59.9706 8.43137 59.9706 8.44824 59.9706 8.48196Z" fill="white"/>
</svg>
