<svg width="64" height="38" viewBox="0 0 64 38" fill="none" xmlns="http://www.w3.org/2000/svg">
<path d="M15.9355 5.29456C15.9355 4.14795 16.2693 2.88331 16.9487 1.50064C17.1752 1.04538 17.4732 0.826172 17.8666 0.826172C19.0467 0.826172 19.7976 1.75357 20.1433 3.60837V4.09737C20.1433 4.68753 19.9526 5.46317 19.5711 6.39057C19.297 7.08191 19.1539 7.5709 19.1539 7.89128C19.1539 8.32968 19.4877 8.80182 20.1671 9.29081C20.3698 9.44257 20.4651 9.67863 20.4651 9.99901C20.4651 10.488 20.2625 10.7409 19.8691 10.7409C19.7142 10.7409 19.5235 10.6566 19.3089 10.488C18.8321 10.117 18.5579 9.9147 18.4983 9.89783C18.4864 9.88097 18.1646 9.86411 17.5209 9.81353C17.3063 9.79666 17.1037 9.71235 16.9249 9.59432C16.4243 9.27395 16.1263 8.44772 16.0309 7.14936C15.9713 6.35685 15.9355 5.74982 15.9355 5.29456ZM17.2229 1.6524V1.58495C17.1395 1.61868 17.0441 1.77043 16.9487 2.04022L16.3527 3.81071C16.2335 4.16481 16.1739 4.62008 16.1739 5.1428V5.29456L16.2097 5.24397C16.2455 4.38402 16.3289 3.87816 16.4719 3.72641V3.81071C16.3647 4.35029 16.317 4.7887 16.317 5.1428C16.317 5.63179 16.3527 6.15451 16.4123 6.67723C16.5315 7.67207 16.6984 8.17793 16.9249 8.17793V8.07676C16.5792 7.31797 16.4123 6.37371 16.4123 5.22711C16.4123 3.76013 16.7461 2.54608 17.4255 1.58495C17.4255 1.55123 17.4136 1.53437 17.4017 1.53437C17.3898 1.53437 17.3779 1.55123 17.3421 1.58495C17.2825 1.63554 17.2348 1.6524 17.2229 1.6524ZM16.9487 5.04163C16.9487 5.53062 16.9726 5.88472 17.0083 6.08706C17.1514 6.82898 17.3659 7.19994 17.652 7.19994C17.8427 7.19994 18.1646 6.82898 18.6175 6.08706C18.8559 5.69924 18.9751 5.17652 18.9751 4.50205C18.9751 4.04678 18.9513 3.67582 18.8917 3.38917C18.6891 2.49549 18.3791 2.04022 17.9619 2.04022C17.5328 2.04022 17.2587 2.42805 17.1275 3.18683C17.0083 3.91189 16.9487 4.51891 16.9487 5.04163ZM19.4281 4.11423C19.4281 4.67067 19.2731 5.41259 18.9751 6.30627V6.39057C19.3327 6.00275 19.5115 5.31142 19.5115 4.35029C19.5115 3.38917 19.3804 2.76528 19.1301 2.46177C19.1182 2.47863 19.1182 2.47863 19.1182 2.49549C19.1182 2.51235 19.1182 2.51235 19.1301 2.51235C19.3327 3.22055 19.4281 3.76013 19.4281 4.11423Z" fill="white"/>
<path d="M17.2229 1.6524V1.58495C17.1395 1.61868 17.0441 1.77043 16.9487 2.04022L16.3527 3.81071C16.2335 4.16481 16.1739 4.62008 16.1739 5.1428V5.29456L16.2097 5.24397C16.2455 4.38402 16.3289 3.87816 16.4719 3.72641V3.81071C16.3647 4.35029 16.317 4.7887 16.317 5.1428C16.317 5.63179 16.3527 6.15451 16.4123 6.67723C16.5315 7.67207 16.6984 8.17793 16.9249 8.17793V8.07676C16.5792 7.31797 16.4123 6.37371 16.4123 5.22711C16.4123 3.76013 16.7461 2.54608 17.4255 1.58495C17.4255 1.55123 17.4136 1.53437 17.4017 1.53437C17.3898 1.53437 17.3779 1.55123 17.3421 1.58495C17.2825 1.63554 17.2348 1.6524 17.2229 1.6524Z" fill="white"/>
<path d="M19.4281 4.11423C19.4281 4.67067 19.2731 5.41259 18.9751 6.30627V6.39057C19.3327 6.00275 19.5115 5.31142 19.5115 4.35029C19.5115 3.38917 19.3804 2.76528 19.1301 2.46177C19.1182 2.47863 19.1182 2.47863 19.1182 2.49549C19.1182 2.51235 19.1182 2.51235 19.1301 2.51235C19.3327 3.22055 19.4281 3.76013 19.4281 4.11423Z" fill="white"/>
</svg>
