<svg width="64" height="38" viewBox="0 0 64 38" fill="none" xmlns="http://www.w3.org/2000/svg">
<path d="M32.0347 28.2393C32.0347 27.5143 32.2135 27.1602 32.5592 27.1602C33.1194 27.1602 33.4055 27.5648 33.4055 28.3742C33.4055 29.251 33.0717 30.111 32.3923 30.9541C32.2135 31.1395 32.0943 31.2744 32.0108 31.3756C31.9155 31.4936 31.7844 31.6623 31.6175 31.9152C31.391 32.2524 31.2837 32.7583 31.2837 33.4496C31.2837 33.7531 31.3076 33.9892 31.3552 34.1578C31.5579 35.0009 31.6532 35.5236 31.6532 35.726C31.6532 36.0463 31.546 36.3499 31.3195 36.6028C31.2837 36.6365 31.2122 36.6534 31.0811 36.6534C30.5447 36.6534 30.2705 36.215 30.2705 35.355C30.2705 35.1695 30.2944 34.9672 30.342 34.7817C30.4732 34.1578 30.5447 33.7363 30.5447 33.5171C30.5447 33.3653 30.5208 33.1967 30.4851 33.0112C30.2348 32.2861 30.0679 31.8309 29.9844 31.6623L29.2096 30.3133C29.1024 30.1447 29.0547 29.8918 29.0547 29.5377C29.0547 28.2562 29.4957 27.6154 30.3659 27.6154C30.6877 27.6154 30.8427 27.8009 30.8427 28.155C30.8427 28.2393 30.8308 28.3236 30.8188 28.4248C30.5328 29.1836 30.3897 29.7232 30.3897 30.0435C30.3897 30.8192 30.6996 31.207 31.3195 31.207C31.8559 31.207 32.13 30.6168 32.13 29.4196V29.1836C32.0824 28.8295 32.0466 28.5597 32.0347 28.3742V28.2393ZM32.4757 28.0707C32.4757 28.2056 32.5234 28.3573 32.6068 28.5428V28.3742C32.6426 28.3742 32.6664 28.3405 32.6664 28.273C32.6664 28.1213 32.6307 28.0032 32.5472 27.9189C32.4996 27.9358 32.4757 27.9864 32.4757 28.0707ZM29.5553 29.4028C29.5553 29.4871 29.5553 29.5377 29.5672 29.5545L29.5911 29.6051C29.6507 29.5377 29.6864 29.4871 29.6864 29.4534C29.6864 29.4196 29.6626 29.4028 29.6268 29.3859C29.6268 29.3691 29.6507 29.2679 29.7103 29.0487C29.7222 29.0318 29.7222 29.015 29.7103 28.9981C29.7699 28.9981 29.8056 28.9475 29.8056 28.8295C29.8056 28.7452 29.7818 28.7114 29.7222 28.7114C29.6149 28.7114 29.5553 28.9475 29.5553 29.4028ZM32.3923 30.1784V30.1953C32.428 30.1616 32.4519 30.0941 32.4519 29.9761V29.9424C32.4161 30.0267 32.3923 30.111 32.3923 30.1784ZM30.7116 31.9321L30.7235 31.9152L30.4016 31.4599C30.5328 31.7803 30.64 31.9321 30.7116 31.9321ZM30.8784 33.4328L30.8427 33.5676C30.8308 33.9386 30.8069 34.3096 30.7831 34.6637C30.7831 34.7143 30.7712 34.7986 30.7592 34.9166C30.7473 34.9335 30.7473 35.0178 30.7473 35.1358C30.7473 35.355 30.7831 35.473 30.8427 35.473C30.8546 35.473 30.8665 35.473 30.8784 35.4562C30.8904 34.7311 30.9023 34.1578 30.9023 33.7363V33.4833L30.8784 33.4328Z" fill="white"/>
<path d="M30.8784 33.4328L30.8427 33.5676C30.8308 33.9386 30.8069 34.3096 30.7831 34.6637C30.7831 34.7143 30.7712 34.7986 30.7592 34.9166C30.7473 34.9335 30.7473 35.0178 30.7473 35.1358C30.7473 35.355 30.7831 35.473 30.8427 35.473C30.8546 35.473 30.8665 35.473 30.8784 35.4562C30.8904 34.7311 30.9023 34.1578 30.9023 33.7363V33.4833L30.8784 33.4328Z" fill="white"/>
<path d="M29.5553 29.4028C29.5553 29.4871 29.5553 29.5377 29.5672 29.5545L29.5911 29.6051C29.6507 29.5377 29.6864 29.4871 29.6864 29.4534C29.6864 29.4196 29.6626 29.4028 29.6268 29.3859C29.6268 29.3691 29.6507 29.2679 29.7103 29.0487C29.7222 29.0318 29.7222 29.015 29.7103 28.9981C29.7699 28.9981 29.8056 28.9475 29.8056 28.8295C29.8056 28.7452 29.7818 28.7114 29.7222 28.7114C29.6149 28.7114 29.5553 28.9475 29.5553 29.4028Z" fill="white"/>
<path d="M30.7116 31.9321L30.7235 31.9152L30.4016 31.4599C30.5328 31.7803 30.64 31.9321 30.7116 31.9321Z" fill="white"/>
<path d="M32.3923 30.1784V30.1953C32.428 30.1616 32.4519 30.0941 32.4519 29.9761V29.9424C32.4161 30.0267 32.3923 30.111 32.3923 30.1784Z" fill="white"/>
<path d="M32.4757 28.0707C32.4757 28.2056 32.5234 28.3573 32.6068 28.5428V28.3742C32.6426 28.3742 32.6664 28.3405 32.6664 28.273C32.6664 28.1213 32.6307 28.0032 32.5472 27.9189C32.4996 27.9358 32.4757 27.9864 32.4757 28.0707Z" fill="white"/>
</svg>
