<svg width="64" height="38" viewBox="0 0 64 38" fill="none" xmlns="http://www.w3.org/2000/svg">
<path d="M0 29.4192C0 29.0314 0.0357599 28.6941 0.0953596 28.4243C0.286079 27.5644 0.536398 27.126 0.846317 27.126C0.977436 27.126 1.08472 27.1597 1.16816 27.244L2.26479 28.5086C2.46743 28.7447 2.72967 28.8627 3.05151 28.8627C3.32567 28.8627 3.56407 28.7616 3.75479 28.5592C4.2435 28.0534 4.56534 27.8004 4.69646 27.8004C5.12558 27.8004 5.34014 28.2557 5.34014 29.1831C5.34014 30.3803 5.08982 30.9705 4.6011 30.9705C4.45806 30.9705 4.35078 30.9199 4.26734 30.8356C3.87399 30.4478 3.61175 30.2454 3.48063 30.2454C3.08727 30.2454 2.89655 30.5321 2.89655 31.1222V32.1845C2.89655 32.6061 2.99191 33.1288 3.19455 33.7358C3.32567 34.1405 3.45679 34.5283 3.61175 34.9161C3.64751 35.0679 3.67135 35.2534 3.67135 35.4389C3.67135 36.2314 3.27799 36.6192 2.49127 36.6192C1.76415 36.6192 1.39463 36.1133 1.39463 35.0848C1.39463 34.7475 1.45423 34.3934 1.58535 34.0393C1.83567 33.3311 2.02639 32.7916 2.14559 32.4375C2.30055 31.9653 2.38399 31.5775 2.38399 31.2908C2.38399 30.7344 2.21711 30.4478 1.89527 30.4478C1.72839 30.4478 1.56151 30.5827 1.40655 30.8356C1.08472 31.3246 0.870157 31.5606 0.750957 31.5606C0.452958 31.5606 0.238399 31.1728 0.0953596 30.414C0.0357599 30.1105 0 29.7733 0 29.4192ZM0.560238 29.1325C0.560238 29.5709 0.607918 29.7901 0.703277 29.7901C0.858237 29.7901 0.929756 29.5035 0.929756 28.9471C0.929756 28.4581 0.882077 28.222 0.774797 28.222C0.631758 28.222 0.560238 28.5255 0.560238 29.1325ZM3.67135 29.436C3.71903 29.4529 3.76671 29.4529 3.81439 29.4529C3.96934 29.4529 4.1243 29.436 4.26734 29.4023C4.29118 29.3855 4.3031 29.3349 4.3031 29.2168C4.04086 29.2168 3.82631 29.2843 3.67135 29.436ZM2.59855 31.6787C2.63431 31.5775 2.63431 31.4763 2.59855 31.3752C2.56279 31.4763 2.56279 31.5775 2.59855 31.6787ZM2.56279 32.0159C2.59855 31.9316 2.59855 31.8473 2.56279 31.763C2.52703 31.8473 2.52703 31.9316 2.56279 32.0159ZM1.93103 34.933C1.93103 35.1185 1.99063 35.2197 2.12175 35.2197C2.21711 35.2197 2.28863 35.1185 2.32439 34.9161C2.32439 34.6295 2.33631 34.326 2.36015 34.0393C2.37207 33.9044 2.38399 33.6852 2.41975 33.3986V33.0276C2.09791 33.6852 1.93103 34.3091 1.93103 34.933Z" fill="white"/>
<path d="M3.67135 29.436C3.71903 29.4529 3.76671 29.4529 3.81439 29.4529C3.96934 29.4529 4.1243 29.436 4.26734 29.4023C4.29118 29.3855 4.3031 29.3349 4.3031 29.2168C4.04086 29.2168 3.82631 29.2843 3.67135 29.436Z" fill="white"/>
<path d="M2.59855 31.6787C2.63431 31.5775 2.63431 31.4763 2.59855 31.3752C2.56279 31.4763 2.56279 31.5775 2.59855 31.6787Z" fill="white"/>
<path d="M2.56279 32.0159C2.59855 31.9316 2.59855 31.8473 2.56279 31.763C2.52703 31.8473 2.52703 31.9316 2.56279 32.0159Z" fill="white"/>
<path d="M0.560238 29.1325C0.560238 29.5709 0.607918 29.7901 0.703277 29.7901C0.858237 29.7901 0.929756 29.5035 0.929756 28.9471C0.929756 28.4581 0.882077 28.222 0.774797 28.222C0.631758 28.222 0.560238 28.5255 0.560238 29.1325Z" fill="white"/>
<path d="M1.93103 34.933C1.93103 35.1185 1.99063 35.2197 2.12175 35.2197C2.21711 35.2197 2.28863 35.1185 2.32439 34.9161C2.32439 34.6295 2.33631 34.326 2.36015 34.0393C2.37207 33.9044 2.38399 33.6852 2.41975 33.3986V33.0276C2.09791 33.6852 1.93103 34.3091 1.93103 34.933Z" fill="white"/>
</svg>
