<svg width="64" height="38" viewBox="0 0 64 38" fill="none" xmlns="http://www.w3.org/2000/svg">
<path d="M52.7129 1.83807C52.7129 0.860086 53.1658 0.371094 54.0718 0.371094C54.7512 0.371094 55.0969 0.742054 55.0969 1.50084V2.34393C55.0969 2.47882 55.0492 2.6643 54.9538 2.90037C54.775 3.32191 54.6439 3.62543 54.5605 3.82777C54.477 4.03011 54.4413 4.26618 54.4413 4.55283C54.4413 5.31161 54.6678 5.68257 55.1326 5.68257C55.5856 5.68257 55.8121 5.41278 55.8121 4.8732C55.8121 4.80575 55.7882 4.72145 55.7525 4.62027C55.6094 4.28304 55.5379 4.04697 55.5379 3.89522C55.5379 3.50739 55.669 3.32191 55.9313 3.32191C56.1101 3.32191 56.2054 3.49053 56.2054 3.81091C56.2054 3.92894 56.1339 4.21559 55.9909 4.70458V4.83948C55.9909 5.46337 56.2531 5.76688 56.7895 5.76688C57.2782 5.76688 57.5166 5.48023 57.5166 4.92379V4.28304C57.5166 4.26618 57.5047 4.23245 57.4809 4.165C57.2902 3.57484 57.1471 3.11957 57.0637 2.81606C57.0041 2.59685 56.9683 2.34393 56.9683 2.07414C56.9683 1.29849 57.2186 0.910672 57.7312 0.910672C58.2914 0.910672 58.6252 1.29849 58.7325 2.091C58.7921 2.59685 58.8278 3.08585 58.8278 3.57484C58.8278 4.21559 58.7801 4.77203 58.6729 5.26102C58.4702 6.18842 58.3749 6.84604 58.3749 7.20013V7.62168C58.4226 7.90833 58.4583 8.11067 58.4702 8.24557V8.49849C58.4702 9.12238 58.2437 9.44276 57.8027 9.44276C57.457 9.44276 57.171 9.22355 56.9206 8.80201C56.6465 8.32988 56.4558 7.97578 56.3246 7.73971C56.1578 7.45306 55.967 7.31817 55.7406 7.31817C55.2399 7.31817 54.9896 7.6554 54.9896 8.32988V9.39217C54.9896 9.88116 54.8108 10.1172 54.4532 10.1172C53.893 10.1172 53.6069 9.67882 53.6069 8.80201V8.07695C53.7857 6.98093 53.881 6.20529 53.881 5.76688C53.881 5.2273 53.7618 4.72145 53.5234 4.24931C53.3208 3.87835 53.1659 3.5917 53.0705 3.40622C52.8321 2.93409 52.7129 2.41137 52.7129 1.83807ZM53.3685 1.46711V1.45025C53.3685 1.33222 53.3327 1.28163 53.2612 1.28163C53.2493 1.28163 53.2374 1.28163 53.2254 1.29849L53.3089 1.3828C53.3327 1.39966 53.3566 1.43339 53.3685 1.46711ZM53.2731 1.7369C53.2731 2.05728 53.3804 2.22589 53.595 2.22589C53.6784 2.22589 53.7261 2.15845 53.7261 2.00669C53.7261 1.70318 53.6069 1.55142 53.3804 1.55142C53.3089 1.55142 53.2731 1.61887 53.2731 1.7369ZM57.5047 1.97297C57.5047 2.10786 57.5762 2.25962 57.7193 2.42824L57.755 2.39451V2.27648C57.755 1.95611 57.6835 1.80435 57.5405 1.80435C57.5166 1.80435 57.5047 1.85493 57.5047 1.97297ZM58.0173 4.41793L57.7789 5.68257V5.78374C57.8623 5.78374 57.9577 5.56454 58.053 5.12613C58.0769 5.0081 58.0888 4.75517 58.0888 4.36735C58.053 4.36735 58.0292 4.38421 58.0173 4.41793ZM54.3221 6.62683V6.81231C54.1671 7.60482 54.0837 8.12753 54.0837 8.34674C54.0837 8.49849 54.1194 8.5828 54.179 8.5828C54.191 8.5828 54.2267 8.46477 54.2625 8.21184C54.334 7.73971 54.4294 7.26758 54.5605 6.81231V6.71114C54.5605 6.66056 54.5247 6.52566 54.4413 6.27273C54.3578 6.03667 54.2625 5.64885 54.1433 5.0924V5.15985C54.1433 5.17671 54.191 5.49709 54.2982 6.13784C54.3102 6.28959 54.3221 6.44135 54.3221 6.62683ZM57.0637 7.06524V6.98093C57.0637 6.89662 56.9683 6.8629 56.7657 6.8629H56.7418C56.8253 6.99779 56.9326 7.06524 57.0637 7.06524Z" fill="white"/>
<path d="M54.3221 6.62683V6.81231C54.1671 7.60482 54.0837 8.12753 54.0837 8.34674C54.0837 8.49849 54.1194 8.5828 54.179 8.5828C54.191 8.5828 54.2267 8.46477 54.2625 8.21184C54.334 7.73971 54.4294 7.26758 54.5605 6.81231V6.71114C54.5605 6.66056 54.5247 6.52566 54.4413 6.27273C54.3578 6.03667 54.2625 5.64885 54.1433 5.0924V5.15985C54.1433 5.17671 54.191 5.49709 54.2982 6.13784C54.3102 6.28959 54.3221 6.44135 54.3221 6.62683Z" fill="white"/>
<path d="M53.2731 1.7369C53.2731 2.05728 53.3804 2.22589 53.595 2.22589C53.6784 2.22589 53.7261 2.15845 53.7261 2.00669C53.7261 1.70318 53.6069 1.55142 53.3804 1.55142C53.3089 1.55142 53.2731 1.61887 53.2731 1.7369Z" fill="white"/>
<path d="M57.0637 7.06524V6.98093C57.0637 6.89662 56.9683 6.8629 56.7657 6.8629H56.7418C56.8253 6.99779 56.9326 7.06524 57.0637 7.06524Z" fill="white"/>
<path d="M58.0173 4.41793L57.7789 5.68257V5.78374C57.8623 5.78374 57.9577 5.56454 58.053 5.12613C58.0769 5.0081 58.0888 4.75517 58.0888 4.36735C58.053 4.36735 58.0292 4.38421 58.0173 4.41793Z" fill="white"/>
<path d="M57.5047 1.97297C57.5047 2.10786 57.5762 2.25962 57.7193 2.42824L57.755 2.39451V2.27648C57.755 1.95611 57.6835 1.80435 57.5405 1.80435C57.5166 1.80435 57.5047 1.85493 57.5047 1.97297Z" fill="white"/>
<path d="M53.3685 1.46711V1.45025C53.3685 1.33222 53.3327 1.28163 53.2612 1.28163C53.2493 1.28163 53.2374 1.28163 53.2254 1.29849L53.3089 1.3828C53.3327 1.39966 53.3566 1.43339 53.3685 1.46711Z" fill="white"/>
</svg>
