<svg width="64" height="38" viewBox="0 0 64 38" fill="none" xmlns="http://www.w3.org/2000/svg">
<path d="M44.3975 30.3134C44.3975 30.0099 44.5405 29.5715 44.8147 28.9813C45.1842 28.2225 45.5775 27.8516 46.0186 27.8516H46.1259C46.3285 27.9021 46.4715 27.9527 46.5788 27.9696C46.8649 28.0202 47.0794 28.0708 47.2344 28.1045C47.8304 28.2562 48.1284 28.6609 48.1284 29.3185C48.1284 30.5326 47.8423 31.1396 47.2821 31.1396C47.0556 31.1396 46.9364 31.0047 46.9364 30.7181V29.9087C46.9364 29.5715 46.7934 29.4029 46.4954 29.4029C46.1259 29.4029 45.9232 29.8244 45.8636 30.6675C45.7802 31.7635 45.7325 32.4886 45.7325 32.8258C45.7325 33.3148 45.7683 33.7195 45.8279 34.0061C46.0543 35.0178 46.4239 35.5237 46.9483 35.5237C47.3417 35.5237 47.5324 35.2708 47.5324 34.748C47.5324 34.4951 47.3536 34.1579 46.996 33.7026C46.7695 33.4328 46.6623 33.163 46.6623 32.8932C46.6623 32.3031 46.9006 32.0164 47.3655 32.0164C47.8304 32.0164 48.1165 32.3705 48.2476 33.0787V33.4497C48.2476 33.905 48.1761 34.3434 48.033 34.7986C47.735 35.7598 47.294 36.2488 46.7338 36.2488C46.3166 36.2488 45.9471 36.1139 45.6252 35.8609C44.8981 35.3045 44.5405 34.6975 44.5405 34.0061C44.5405 33.8881 44.5524 33.7869 44.5763 33.7026C44.6835 33.3485 44.7312 33.1293 44.7312 33.0281V32.9944L44.4332 31.0047C44.4094 30.8698 44.3975 30.6338 44.3975 30.3134ZM45.0531 29.6221C45.065 29.5377 45.0531 29.4534 45.0292 29.3691L45.0054 29.4029V29.7064C44.9696 29.7569 44.9577 29.8075 44.9696 29.8244C44.9339 29.8075 44.9219 29.757 44.91 29.6558C44.8862 29.7064 44.8743 29.7401 44.8743 29.7907C44.8743 29.8075 44.8862 29.8075 44.91 29.8244C44.9219 29.8581 44.9219 29.8918 44.9339 29.9087H44.8623C44.8623 29.9256 44.8623 29.9424 44.8743 29.9593C44.8862 29.9762 44.8981 29.9762 44.91 29.993C44.91 30.0267 44.8981 30.0773 44.8743 30.1279V30.2459C44.8743 30.8361 44.9219 31.1565 45.0292 31.2239C45.0531 30.3808 45.2199 29.6558 45.5299 29.0319L45.506 28.9813C45.4464 28.897 45.3153 29.0993 45.0888 29.5715L45.0531 29.6221ZM45.1484 32.6572L45.1127 32.7415C45.0888 33.0619 45.0411 33.4497 44.9696 33.8712C44.9577 33.905 44.9577 33.9387 44.9577 33.9893C45.1007 33.9893 45.1723 33.7026 45.1723 33.1293V32.7752L45.1484 32.6572ZM47.0437 32.8427C47.0437 32.8595 47.0437 32.8595 47.0556 32.8595C47.1152 32.9438 47.1986 32.9776 47.3298 32.9776C47.3298 32.8427 47.2702 32.7752 47.151 32.7752C47.0794 32.7752 47.0437 32.7921 47.0437 32.8427Z" fill="white"/>
<path d="M45.1484 32.6572L45.1127 32.7415C45.0888 33.0619 45.0411 33.4497 44.9696 33.8712C44.9577 33.905 44.9577 33.9387 44.9577 33.9893C45.1007 33.9893 45.1723 33.7026 45.1723 33.1293V32.7752L45.1484 32.6572Z" fill="white"/>
<path d="M45.0531 29.6221C45.065 29.5377 45.0531 29.4534 45.0292 29.3691L45.0054 29.4029V29.7064C44.9696 29.7569 44.9577 29.8075 44.9696 29.8244C44.9339 29.8075 44.9219 29.757 44.91 29.6558C44.8862 29.7064 44.8743 29.7401 44.8743 29.7907C44.8743 29.8075 44.8862 29.8075 44.91 29.8244C44.9219 29.8581 44.9219 29.8918 44.9339 29.9087H44.8623C44.8623 29.9256 44.8623 29.9424 44.8743 29.9593C44.8862 29.9762 44.8981 29.9762 44.91 29.993C44.91 30.0267 44.8981 30.0773 44.8743 30.1279V30.2459C44.8743 30.8361 44.9219 31.1565 45.0292 31.2239C45.0531 30.3808 45.2199 29.6558 45.5299 29.0319L45.506 28.9813C45.4464 28.897 45.3153 29.0993 45.0888 29.5715L45.0531 29.6221Z" fill="white"/>
<path d="M47.0437 32.8427C47.0437 32.8595 47.0437 32.8595 47.0556 32.8595C47.1152 32.9438 47.1986 32.9776 47.3298 32.9776C47.3298 32.8427 47.2702 32.7752 47.151 32.7752C47.0794 32.7752 47.0437 32.7921 47.0437 32.8427Z" fill="white"/>
</svg>
