<svg width="104" height="121" viewBox="0 0 104 121" fill="none" xmlns="http://www.w3.org/2000/svg">
<g filter="url(#filter0_i_1064_9534)">
<path fill-rule="evenodd" clip-rule="evenodd" d="M51.8009 98.2475C60.6036 98.2475 67.7396 91.1115 67.7396 82.3088C67.7396 73.5061 60.6036 66.3701 51.8009 66.3701C42.9982 66.3701 35.8622 73.5061 35.8622 82.3088C35.8622 91.1115 42.9982 98.2475 51.8009 98.2475ZM53.3895 93.1519C58.6884 92.3823 62.7585 87.8207 62.7585 82.3084C62.7585 76.7962 58.6884 72.2346 53.3895 71.4649C52.9169 71.3963 52.6807 71.362 52.4363 71.4568C52.2402 71.5329 52.0332 71.7121 51.9296 71.8952C51.8007 72.1234 51.8007 72.3971 51.8007 72.9445V91.6724C51.8007 92.2198 51.8007 92.4935 51.9296 92.7216C52.0332 92.9048 52.2402 93.0839 52.4363 93.1601C52.6807 93.2549 52.9169 93.2206 53.3895 93.1519Z" fill="black" fill-opacity="0.3"/>
</g>
<defs>
<filter id="filter0_i_1064_9534" x="35.8622" y="66.3701" width="31.8774" height="33.2774" filterUnits="userSpaceOnUse" color-interpolation-filters="sRGB">
<feFlood flood-opacity="0" result="BackgroundImageFix"/>
<feBlend mode="normal" in="SourceGraphic" in2="BackgroundImageFix" result="shape"/>
<feColorMatrix in="SourceAlpha" type="matrix" values="0 0 0 0 0 0 0 0 0 0 0 0 0 0 0 0 0 0 127 0" result="hardAlpha"/>
<feOffset dy="1.4"/>
<feGaussianBlur stdDeviation="1"/>
<feComposite in2="hardAlpha" operator="arithmetic" k2="-1" k3="1"/>
<feColorMatrix type="matrix" values="0 0 0 0 0 0 0 0 0 0 0 0 0 0 0 0 0 0 0.32 0"/>
<feBlend mode="normal" in2="shape" result="effect1_innerShadow_1064_9534"/>
</filter>
</defs>
</svg>
