<svg width="64" height="38" viewBox="0 0 64 38" fill="none" xmlns="http://www.w3.org/2000/svg">
<path d="M23.7354 30.6846C23.7354 30.3642 23.8307 29.7741 24.0095 28.8804C24.1645 28.071 24.534 27.6157 25.1061 27.5314C25.6187 27.464 26.0121 27.3797 26.2743 27.2785C26.6557 27.1436 26.8703 27.0762 26.9061 27.0762C27.812 27.0762 28.2649 27.7001 28.2649 28.9478C28.2649 29.4705 28.1219 30.0944 27.8477 30.7858C27.6213 31.3422 27.3948 31.8818 27.1683 32.4214C27.1087 32.5394 26.8584 32.9609 26.3935 33.6523C26.1909 34.0401 26.0836 34.4617 26.0836 34.9169C26.0836 35.5408 26.2743 35.8443 26.6557 35.8443C27.0372 35.8443 27.3113 35.4228 27.4663 34.5797C27.5736 33.9727 27.6451 33.6354 27.6689 33.568C27.8477 33.1127 28.1338 32.8935 28.5153 32.8935C29.2424 32.8935 29.6119 33.5511 29.6119 34.8832C29.6119 35.7263 29.3496 36.1478 28.8371 36.1478C28.7894 36.1478 28.7537 36.1478 28.7417 36.131C28.6225 36.1141 28.5391 36.0972 28.4795 36.0972H28.3007C28.0385 36.0972 27.7881 36.1984 27.5497 36.4008C27.2517 36.6705 27.0253 36.8729 26.8703 36.9909C26.4173 37.3282 26.0478 37.4968 25.7498 37.4968C25.0227 37.4968 24.6532 37.0584 24.6532 36.1984C24.6532 35.7431 24.832 35.1361 25.2015 34.4111C25.5949 33.6017 25.9882 32.7923 26.3935 31.9998C26.7869 31.0724 26.9895 30.2631 26.9895 29.5886V29.1333C26.8822 28.6106 26.6915 28.3408 26.4054 28.3408C26.0001 28.3408 25.7379 28.7455 25.6187 29.5549L25.3207 31.5446C25.2253 32.1347 24.9989 32.4382 24.6293 32.4382C24.0333 32.4382 23.7354 31.8481 23.7354 30.6846ZM24.3313 30.5834C24.3313 30.6846 24.3671 30.7689 24.4267 30.8195C24.4863 30.6677 24.5101 30.5497 24.5101 30.4485V30.3642C24.4863 30.4148 24.4625 30.4485 24.4386 30.4485H24.4267C24.4386 30.2968 24.4982 30.0776 24.6055 29.8078C24.7366 29.4706 24.8081 29.1839 24.8081 28.931V28.7455C24.6651 28.7455 24.5459 28.9984 24.4505 29.5211C24.3671 29.9427 24.3313 30.2968 24.3313 30.5834ZM26.3339 32.8935V32.9272C26.4293 32.8092 26.5842 32.5225 26.8107 32.0841C26.9657 31.6963 27.1087 31.3085 27.2517 30.9038C27.4544 30.3474 27.5497 29.8246 27.5497 29.3694C27.5497 29.2851 27.5378 29.2345 27.5259 29.2176C27.514 29.2345 27.4901 29.42 27.4305 29.8078C27.2994 30.7015 26.9299 31.73 26.3339 32.8935ZM27.3113 35.9286H27.3233C27.3471 35.9286 27.3829 35.8949 27.4305 35.8443C28.0742 35.0518 28.3961 34.5797 28.3961 34.4448C28.3961 34.3942 28.3961 34.3268 28.3841 34.2762C28.3841 34.2593 28.3484 34.2593 28.2888 34.2593C28.2888 34.1581 28.3007 34.1076 28.3245 34.1076C28.2888 34.057 28.2649 34.0232 28.2411 34.0232C28.2173 34.0401 28.1577 34.2256 28.0623 34.6134C27.9908 34.8663 27.7405 35.3047 27.3113 35.9286ZM25.2253 36.0467C25.2253 36.131 25.2611 36.1816 25.3326 36.1816C25.4041 36.1816 25.4399 36.1478 25.4399 36.0635C25.4399 35.8443 25.4161 35.6588 25.3803 35.5408C25.273 35.6251 25.2253 35.7937 25.2253 36.0467Z" fill="white"/>
<path d="M24.3313 30.5834C24.3313 30.6846 24.3671 30.7689 24.4267 30.8195C24.4863 30.6677 24.5101 30.5497 24.5101 30.4485V30.3642C24.4863 30.4148 24.4625 30.4485 24.4386 30.4485H24.4267C24.4386 30.2968 24.4982 30.0776 24.6055 29.8078C24.7366 29.4706 24.8081 29.1839 24.8081 28.931V28.7455C24.6651 28.7455 24.5459 28.9984 24.4505 29.5211C24.3671 29.9427 24.3313 30.2968 24.3313 30.5834Z" fill="white"/>
<path d="M26.3339 32.8935V32.9272C26.4293 32.8092 26.5842 32.5225 26.8107 32.0841C26.9657 31.6963 27.1087 31.3085 27.2517 30.9038C27.4544 30.3474 27.5497 29.8246 27.5497 29.3694C27.5497 29.2851 27.5378 29.2345 27.5259 29.2176C27.514 29.2345 27.4901 29.42 27.4305 29.8078C27.2994 30.7015 26.9299 31.73 26.3339 32.8935Z" fill="white"/>
<path d="M27.3113 35.9286H27.3233C27.3471 35.9286 27.3829 35.8949 27.4305 35.8443C28.0742 35.0518 28.3961 34.5797 28.3961 34.4448C28.3961 34.3942 28.3961 34.3268 28.3841 34.2762C28.3841 34.2593 28.3484 34.2593 28.2888 34.2593C28.2888 34.1581 28.3007 34.1076 28.3245 34.1076C28.2888 34.057 28.2649 34.0232 28.2411 34.0232C28.2173 34.0401 28.1577 34.2256 28.0623 34.6134C27.9908 34.8663 27.7405 35.3047 27.3113 35.9286Z" fill="white"/>
<path d="M25.2253 36.0467C25.2253 36.131 25.2611 36.1816 25.3326 36.1816C25.4041 36.1816 25.4399 36.1478 25.4399 36.0635C25.4399 35.8443 25.4161 35.6588 25.3803 35.5408C25.273 35.6251 25.2253 35.7937 25.2253 36.0467Z" fill="white"/>
</svg>
