<svg width="64" height="38" viewBox="0 0 64 38" fill="none" xmlns="http://www.w3.org/2000/svg">
<path d="M0 2.63012C0 2.2423 0.0357599 1.90506 0.0953596 1.63528C0.286079 0.775322 0.536398 0.336914 0.846317 0.336914C0.977436 0.336914 1.08472 0.370638 1.16816 0.454947L2.26479 1.71958C2.46743 1.95565 2.72967 2.07368 3.05151 2.07368C3.32567 2.07368 3.56407 1.97251 3.75479 1.77017C4.2435 1.26432 4.56534 1.01139 4.69646 1.01139C5.12558 1.01139 5.34014 1.46666 5.34014 2.39406C5.34014 3.59125 5.08982 4.18141 4.6011 4.18141C4.45806 4.18141 4.35078 4.13083 4.26734 4.04652C3.87399 3.65869 3.61175 3.45635 3.48063 3.45635C3.08727 3.45635 2.89655 3.743 2.89655 4.33317V5.39546C2.89655 5.81701 2.99191 6.33972 3.19455 6.94675C3.32567 7.35143 3.45679 7.73926 3.61175 8.12708C3.64751 8.27883 3.67135 8.46432 3.67135 8.6498C3.67135 9.4423 3.17071 10.4095 2.38399 10.4095C1.65687 10.4095 1.39463 9.32427 1.39463 8.2957C1.39463 7.95846 1.45423 7.60436 1.58535 7.25026C1.83567 6.54207 2.02639 6.00249 2.14559 5.64839C2.30055 5.17626 2.38399 4.78844 2.38399 4.50179C2.38399 3.94535 2.21711 3.65869 1.89527 3.65869C1.72839 3.65869 1.56151 3.79359 1.40655 4.04652C1.08472 4.53551 0.870157 4.77157 0.750957 4.77157C0.452958 4.77157 0.238399 4.38375 0.0953596 3.62497C0.0357599 3.32146 0 2.98422 0 2.63012ZM0.560238 2.34347C0.560238 2.78188 0.607918 3.00108 0.703277 3.00108C0.858237 3.00108 0.929756 2.71443 0.929756 2.15799C0.929756 1.669 0.882077 1.43293 0.774797 1.43293C0.631758 1.43293 0.560238 1.73645 0.560238 2.34347ZM3.67135 2.64698C3.71903 2.66385 3.76671 2.66385 3.81439 2.66385C3.96934 2.66385 4.1243 2.64698 4.26734 2.61326C4.29118 2.5964 4.3031 2.54581 4.3031 2.42778C4.04086 2.42778 3.82631 2.49523 3.67135 2.64698ZM2.59855 4.88961C2.63431 4.78844 2.63431 4.68727 2.59855 4.58609C2.56279 4.68727 2.56279 4.78844 2.59855 4.88961ZM2.56279 5.22684C2.59855 5.14254 2.59855 5.05823 2.56279 4.97392C2.52703 5.05823 2.52703 5.14254 2.56279 5.22684ZM1.93103 8.14394C1.93103 8.32942 1.99063 8.43059 2.12175 8.43059C2.21711 8.43059 2.28863 8.32942 2.32439 8.12708C2.32439 7.84043 2.33631 7.53691 2.36015 7.25026C2.37207 7.11537 2.38399 6.89617 2.41975 6.60951V6.23855C2.09791 6.89617 1.93103 7.52005 1.93103 8.14394Z" fill="white"/>
<path d="M1.93103 8.14394C1.93103 8.32942 1.99063 8.43059 2.12175 8.43059C2.21711 8.43059 2.28863 8.32942 2.32439 8.12708C2.32439 7.84043 2.33631 7.53691 2.36015 7.25026C2.37207 7.11537 2.38399 6.89617 2.41975 6.60951V6.23855C2.09791 6.89617 1.93103 7.52005 1.93103 8.14394Z" fill="white"/>
<path d="M3.67135 2.64698C3.71903 2.66385 3.76671 2.66385 3.81439 2.66385C3.96934 2.66385 4.1243 2.64698 4.26734 2.61326C4.29118 2.5964 4.3031 2.54581 4.3031 2.42778C4.04086 2.42778 3.82631 2.49523 3.67135 2.64698Z" fill="white"/>
<path d="M0.560238 2.34347C0.560238 2.78188 0.607918 3.00108 0.703277 3.00108C0.858237 3.00108 0.929756 2.71443 0.929756 2.15799C0.929756 1.669 0.882077 1.43293 0.774797 1.43293C0.631758 1.43293 0.560238 1.73645 0.560238 2.34347Z" fill="white"/>
</svg>
